<?xml version="1.0" encoding="UTF-8"?>
<svg id="Layer_2" data-name="Layer 2" xmlns="http://www.w3.org/2000/svg" viewBox="0 0 310.78 310.44">
  <defs>
    <style>
      .cls-1 {
        fill: #fff;
        stroke-width: 0px;
      }
    </style>
  </defs>
  <g id="Layer_1-2" data-name="Layer 1">
    <g>
      <path class="cls-1" d="m124.96,308.18c-1.44-3.22-2.63-6.19-4.08-9.02-1.56-3.05-3.37-5.98-5.04-8.97-.64-1.14-1.44-1.27-2.54-.66-5.24,2.88-10.51,5.7-15.72,8.63-1.7.96-1.89.83-2.41-1.06-1.6-5.83-3.34-11.63-5.15-17.4-.16-.52-1.42-1.17-1.94-1.01-5.72,1.74-11.42,3.54-17.07,5.5-2.24.78-2.41.72-2.55-1.66-.34-5.82-.85-11.63-1.26-17.45-.1-1.47-.79-2.1-2.26-1.94-5.73.62-11.46,1.15-17.17,1.88-2.51.33-2.54.28-2.22-2.22.74-5.71,1.25-11.45,1.84-17.18.15-1.45-.51-2.12-1.99-2.23-5.82-.41-11.63-.92-17.45-1.32-2.11-.15-2.23-.37-1.58-2.35,1.89-5.67,3.66-11.39,5.51-17.07.42-1.27-.03-1.92-1.24-2.27-5.75-1.66-11.47-3.39-17.24-4.98-1.96-.54-2-.63-1.01-2.36,2.99-5.26,5.84-10.6,8.79-15.88.72-1.28.06-1.88-.95-2.4-5.26-2.7-10.49-5.44-15.78-8.07-2.03-1.01-2.03-1.17-.58-2.82,3.96-4.48,7.76-9.1,11.65-13.64.89-1.04.6-1.82-.36-2.57-4.75-3.75-9.45-7.57-14.25-11.24-1.32-1.01-1.17-1.47.03-2.39,4.74-3.64,9.39-7.39,14.1-11.08,1.15-.9,1.32-1.75.31-2.91-3.92-4.52-7.75-9.11-11.69-13.6-1.25-1.42-1.2-1.68.62-2.58,5.16-2.56,10.27-5.24,15.43-7.81,1.66-.83,2.03-1.83,1.1-3.48-2.88-5.07-5.62-10.23-8.54-15.27-.81-1.4-.62-1.78.9-2.2,5.84-1.6,11.63-3.37,17.46-4.99,1.44-.4,1.65-1.1,1.23-2.39-1.87-5.68-3.62-11.4-5.56-17.06-.62-1.8-.06-2.13,1.59-2.24,5.75-.37,11.49-.9,17.23-1.27,1.82-.12,2.46-.94,2.27-2.66-.64-5.72-1.21-11.45-1.93-17.16-.25-2-.07-2.16,2.05-1.89,5.71.72,11.44,1.28,17.16,1.93,1.63.19,2.41-.37,2.52-2.11.37-5.68.93-11.34,1.26-17.02.16-2.8.2-2.73,2.92-1.77,5.5,1.95,11.08,3.66,16.67,5.32.54.16,1.85-.6,2.03-1.17,1.8-5.77,3.51-11.57,5.09-17.41.47-1.75,1.01-1.68,2.38-.9,5.13,2.92,10.34,5.71,15.5,8.58,1.4.78,2.26.45,2.96-.96,2.64-5.28,5.33-10.54,8-15.81.2-.39.36-.8.59-1.16.1-.16.35-.24.71-.48.5.46,1.01.95,1.54,1.41,4.37,3.75,8.76,7.48,13.12,11.25,1.25,1.08,2.23,1.06,3.28-.28,3.57-4.52,7.23-8.97,10.77-13.52,1.39-1.79,1.45-1.78,2.88.05,3.54,4.55,7.23,8.97,10.79,13.5,1.1,1.4,2.08,1.25,3.27.21,4.41-3.82,8.85-7.61,13.27-11.41.47-.41.95-.82,1.67-1.44.45.88.76,1.5,1.07,2.12,2.67,5.27,5.35,10.53,8.01,15.8.63,1.24,1.53,1.47,2.7.83,5.18-2.84,10.35-5.7,15.53-8.53.55-.3,1.16-.49,1.74-.73.26.64.57,1.26.77,1.91,1.71,5.73,3.36,11.47,5.18,17.17.16.51,1.57,1.09,2.18.91,5.65-1.71,11.28-3.51,16.86-5.44,2.2-.76,2.36-.64,2.5,1.72.34,5.89.89,11.76,1.32,17.64.1,1.32.78,1.82,2,1.7,5.73-.59,11.47-1.08,17.18-1.84,2.77-.37,2.73-.4,2.36,2.42-.75,5.63-1.22,11.31-1.79,16.96-.15,1.48.58,2.11,2.02,2.22,5.75.42,11.49.92,17.23,1.31,2.36.16,2.42.35,1.66,2.59-1.91,5.59-3.63,11.24-5.47,16.86-.48,1.46.26,1.97,1.48,2.32,5.68,1.62,11.34,3.3,17.04,4.87,2.03.56,1.99.66.91,2.56-3,5.25-5.87,10.58-8.68,15.94-.22.42.19,1.64.63,1.88,5.26,2.84,10.55,5.64,15.92,8.28,2.27,1.11,2.28,1.19.62,3.06-3.92,4.41-7.66,8.99-11.49,13.49-.78.91-.72,1.68.2,2.43,4.37,3.53,8.64,7.19,13.14,10.54,2.77,2.06,2.76,1.95-.08,4.07-4.5,3.36-8.79,6.99-13.07,10.62-.41.35-.53,1.74-.19,2.16,3.78,4.63,7.61,9.23,11.57,13.7,1.57,1.77,1.58,1.97-.53,3-5.24,2.56-10.41,5.27-15.61,7.91-1.29.66-1.61,1.56-.88,2.86,2.91,5.22,5.73,10.49,8.72,15.67.83,1.44.56,1.78-.93,2.18-5.7,1.54-11.36,3.24-17.06,4.81-1.61.44-2.15,1.17-1.59,2.82,1.88,5.6,3.61,11.25,5.55,16.83.63,1.8.08,2.13-1.58,2.24-5.75.37-11.49.9-17.23,1.27-1.81.12-2.47.91-2.28,2.64.64,5.72,1.21,11.45,1.92,17.16.26,2.05.11,2.19-2.02,1.92-5.64-.72-11.3-1.28-16.94-1.94-1.77-.21-2.72.33-2.84,2.28-.36,5.81-.87,11.62-1.24,17.43-.11,1.75-.54,1.98-2.4,1.35-5.46-1.84-10.96-3.57-16.42-5.42-1.7-.57-2.62-.07-3.09,1.6-1.59,5.68-3.27,11.34-4.79,17.04-.53,2-1.33,1.3-2.48.65-5.09-2.85-10.22-5.63-15.32-8.45-1.34-.74-2.26-.59-2.99.88-2.64,5.28-5.39,10.51-7.99,15.81-.92,1.87-1.09,1.92-2.71.5-4.38-3.85-8.85-7.6-13.25-11.43-1.35-1.18-2.34-1.02-3.43.37-3.6,4.59-7.3,9.1-10.87,13.72-.93,1.2-1.41,1.37-2.41.07-3.56-4.62-7.26-9.13-10.85-13.73-1.15-1.47-2.18-1.6-3.6-.35-4.43,3.9-8.93,7.74-13.4,11.59-.37.32-.78.61-1.46,1.14Zm136.44-152.95c.16-59.13-47.19-105.72-106.4-105.95-59.05-.23-105.47,48.51-105.77,105.45-.31,58.14,47.85,106.73,105.43,106.56,58.27-.17,106.9-45.58,106.74-106.06Zm-258.55-.16c.12.31.13.49.22.56,5.73,4.74,11.45,9.49,17.2,14.21,8.14,6.67,17.33,8.28,27.38,5.5.6-.17,1.43-.69,1.55-1.19.59-2.55-.82-3.94-3.37-3.5-7.73,1.33-14.75-.02-20.98-5.1-3.95-3.22-8.11-6.18-12.23-9.2-1.22-.89-1.12-1.4.06-2.24,3.09-2.19,6.09-4.51,9.14-6.75,2.47-1.81,4.85-3.78,7.47-5.34,5.47-3.24,11.45-3.09,17.45-2,1.66.3,2.11-.44,2.26-1.77.14-1.21.95-2.58-1.14-3.1-8.73-2.17-17.18-2.08-24.69,3.54-4.72,3.53-9.11,7.52-13.68,11.25-2.18,1.78-4.45,3.45-6.64,5.14Zm305.22.16c-.22-.25-.37-.5-.58-.67-4.93-4.11-9.95-8.11-14.79-12.33-8.48-7.39-18.01-10.26-29.03-7.17-.71.2-1.71.56-1.91,1.1-.84,2.2.83,4.15,3.13,3.71,8.63-1.65,16.13.46,22.75,6.28,3.22,2.83,6.79,5.28,10.28,7.8,1.73,1.25,1.74,1.39-.09,2.65-2.69,1.87-5.29,3.88-7.93,5.83-2.76,2.03-5.38,4.29-8.3,6.05-5.45,3.27-11.44,3.02-17.45,2.01-1.06-.18-2.23-.43-2.26,1.12-.02,1.3-1.41,3.06,1.14,3.71,8.9,2.29,17.49,2.04,25.06-3.74,6.77-5.17,13.21-10.77,19.99-16.33Zm-152.73,143.62c-.18-.15-.45-.29-.61-.5-3.35-4.41-6.89-8.71-9.96-13.31-1.91-2.86-3.44-6.09-4.56-9.35-1.31-3.8-.76-7.8.04-11.7.29-1.42-.14-2.27-1.66-2.43-1.25-.13-2.69-.84-3.17,1.15-1.93,8.06-2.23,16.01,2.55,23.24,2.44,3.69,5.4,7.06,8.21,10.5,3.03,3.72,6.15,7.36,9.29,11.1.24-.17.52-.29.69-.49,4.45-5.31,8.84-10.68,13.33-15.95,7.19-8.43,8.85-18,5.99-28.51-.15-.55-.81-1.3-1.31-1.37-2.91-.38-3.81.6-3.3,3.45,1.16,6.56.66,12.87-3.33,18.45-3.77,5.27-7.78,10.38-11.69,15.56-.07.09-.26.09-.49.16Zm55.35-10.8c-.71-.24-1.07-.3-1.36-.48-4.53-2.66-8.99-5.43-13.58-7.98-6.66-3.71-10.79-9.24-12.47-16.64-.15-.64-.31-1.28-.42-1.93-.24-1.4-1.13-1.6-2.26-1.2-1.09.38-2.94-.1-2.57,2.09.96,5.67,2.42,11.14,6.05,15.78,3.62,4.62,8.58,7.39,13.67,10.01,5,2.57,9.92,5.28,14.89,7.91.41.22.89.28,1.1.35,2.29-7.05,4.57-13.9,6.75-20.77,3.31-10.4.85-19.74-5.37-28.33-.33-.45-1.29-.94-1.67-.77-1.15.51-2.16,1.33-3.33,2.09.76,1.16,1.37,2.07,1.94,2.99,2.69,4.31,4.8,9.01,3.91,14.07-1.34,7.58-3.44,15.03-5.28,22.81ZM155.39,2.97c-.16.1-.39.18-.52.33-4.39,5.26-8.7,10.6-13.18,15.79-7.05,8.16-9.12,17.42-6.46,27.79.2.79.81,1.92,1.45,2.08,2.5.65,3.83-.7,3.36-3.24-1.51-8.03.26-15.15,5.52-21.49,3.16-3.81,5.97-7.91,8.96-11.87.24-.32.62-.54,1.25-1.07.23.4.37.75.59,1.04,2.93,3.91,5.69,7.96,8.83,11.7,5.42,6.44,7.27,13.69,5.62,21.86-.34,1.71-.18,2.75,1.83,3.12,1.93.35,2.95-.17,3.13-2.17.06-.65.24-1.29.37-1.94,1.59-8.27.58-16.07-4.75-22.84-5.06-6.41-10.35-12.64-15.54-18.94-.08-.09-.26-.09-.44-.15ZM14.27,213.69c1.99.51,3.83.9,5.61,1.45,5.79,1.81,11.51,3.82,17.34,5.49,9.78,2.79,18.44-.05,26.42-5.74.51-.36,1-1.37.86-1.9-.71-2.72-2.05-3.19-4.37-1.64-6.38,4.25-13.23,5.56-20.69,3.52-5.2-1.42-10.44-2.7-15.67-4.03-1.12-.29-1.45-.82-.82-1.89,2.88-4.82,5.67-9.69,8.6-14.48,3.07-5.02,7.19-8.81,13.01-10.45,1.62-.46,3.23-.91,4.86-1.31,1.15-.28,1.68-.92,1.21-2.05-.44-1.07.09-3.05-1.99-2.78-7.92,1.03-15.35,3.53-20.03,10.36-3.85,5.63-6.76,11.91-10.09,17.9-1.37,2.47-2.77,4.92-4.26,7.57Zm282.36-116.74c-8.36-2.56-16.48-5.18-24.68-7.49-2.4-.67-5.07-.72-7.59-.59-6.08.32-11.37,2.92-16.43,6.14-1.92,1.22-1.61,2.19-.62,3.85,1.11,1.85,2.06,1.25,3.32.38,7.05-4.87,14.62-5.71,22.76-3.14,4.44,1.4,9.02,2.39,13.54,3.53,1.2.3,1.66.74.93,1.96-2.77,4.63-5.55,9.25-8.23,13.94-3.54,6.19-8.76,10.06-15.68,11.66-.85.2-1.7.43-2.55.62-1.24.28-1.5,1.09-1.08,2.14.44,1.08-.03,3.03,2.06,2.71,8.42-1.29,16.22-4.06,20.88-11.73,4.73-7.78,8.89-15.9,13.37-24Zm-200.04-32.28c.54-.26.88-.39,1.19-.56,2.99-1.66,3.09-1.73,1.25-4.49-4.8-7.21-5.11-14.83-2.58-22.87,1.33-4.24,2.31-8.6,3.47-12.9.12-.45.38-.87.61-1.38.49.2.85.3,1.15.48,3.64,2.16,7.15,4.57,10.92,6.45,8.42,4.19,13.89,10.51,15.42,19.95.07.45.49,1.25.67,1.22,1.21-.14,2.51-.26,3.55-.82.44-.23.53-1.54.42-2.31-1.48-10.42-6.7-18.21-16.22-22.99-5.35-2.69-10.67-5.45-15.99-8.2-1.13-.59-2.2-1.31-3.4-2.03-2.6,8.62-5.54,16.89-7.52,25.37-2.19,9.34,1.38,17.49,7.05,25.07Zm113.84-42.12c1.43,5.12,2.66,10.07,4.21,14.91,2.7,8.39,1.64,16.13-3.53,23.28-.69.95-1.37,1.9.23,2.6,1.27.56,2.33,2.46,3.96.16,6.64-9.36,8.43-19.32,4.6-30.29-2.09-5.98-3.75-12.12-5.63-18.18-.08-.24-.32-.43-.55-.72-2.21,1.28-4.3,2.61-6.49,3.74-4.28,2.22-8.63,4.28-12.91,6.51-9.5,4.94-14.4,13.09-16.19,23.39-.22,1.27.07,2.06,1.46,2.43,2.82.75,2.98.72,3.59-2.22,1.47-7.16,5.09-12.81,11.48-16.57,4.96-2.92,9.91-5.87,14.87-8.8.23-.14.54-.14.9-.23Zm52.88,24.8c-2.51.32-4.87.71-7.26.9-4.73.39-9.47.61-14.2,1.01-10.63.89-18.4,6.33-24.13,15.13-1.1,1.68-.97,2.51.67,3.67,1.65,1.17,2.39.82,3.41-.74,4.21-6.44,10.02-10.51,17.79-11.51,5.35-.69,10.7-1.43,16.05-2.18,1.26-.18,1.75.19,1.55,1.54-.73,4.98-1.41,9.96-2.06,14.95-.76,5.81-2.63,11.11-7.06,15.17-1.66,1.52-3.52,2.84-5.36,4.16-.93.68-1.12,1.44-.32,2.14.9.79,1.07,3.17,2.98,1.99,7.79-4.82,13.8-11.11,15.45-20.52.67-3.8.85-7.68,1.21-11.53.43-4.64.82-9.28,1.26-14.19ZM47.64,262.97c.23.05.44.15.64.14,6.75-.6,13.5-1.26,20.26-1.82,10.12-.85,17.99-5.48,23.68-13.88,2.39-3.52,2.43-3.5-1.39-5.75-.11-.06-.28,0-.58,0-.51.68-1.1,1.42-1.63,2.2-4.03,5.92-9.47,9.64-16.61,10.68-5.63.82-11.26,1.58-16.89,2.35-1.69.23-1.47-.81-1.3-1.94.55-3.53,1.11-7.05,1.5-10.6.71-6.36,1.39-12.74,6.15-17.62,2.03-2.07,4.38-3.83,6.65-5.64.88-.71,1.43-1.34.45-2.27-.91-.87-1.13-3.16-3.23-1.84-8.27,5.2-14.39,12.02-15.6,22.11-.94,7.88-1.41,15.81-2.11,23.91Zm172.72-21.63c-.96.67-1.94,1.13-2.57,1.87-.42.5-.73,1.65-.45,2.11,5.24,8.34,12.17,14.37,22.36,15.55,7.31.85,14.65,1.42,21.98,2.15,1.58.16,1.79-.45,1.64-1.9-.58-5.36-1.28-10.73-1.44-16.11-.35-11.96-5.39-21.11-15.47-27.59-1.76-1.13-2.54-.76-3.67.76-1.24,1.67-.74,2.44.8,3.4,7.6,4.74,11.17,11.77,11.8,20.59.31,4.28,1.06,8.53,1.8,12.76.34,1.98-.4,2.05-1.99,1.8-3.81-.61-7.64-1.2-11.48-1.55-7.25-.67-13.99-2.38-18.91-8.28-1.44-1.73-2.8-3.53-4.39-5.56Zm-119.9,6.7c-.81-.53-1.68-1.06-2.5-1.65-.89-.64-1.52-.55-2.17.4-4.14,6.1-7.42,12.55-6.7,20.16.36,3.81,1.32,7.61,2.35,11.32,1.59,5.76,3.46,11.45,5.23,17.16.08.24.32.44.43.58,6.95-3.64,13.84-7.15,20.63-10.82,8.95-4.83,13.15-12.9,15.05-22.5.47-2.38-1.19-2.35-2.63-2.81-1.68-.53-1.98.4-2.22,1.73-1.62,9.05-6.88,15.2-15.02,19.24-3.78,1.88-7.3,4.27-10.95,6.42-.46.27-.97.47-1.51.74-.24-.47-.41-.71-.48-.98-1.42-5.36-2.85-10.72-4.23-16.09-1.21-4.69-1.54-9.43.33-14,1.21-2.95,2.81-5.74,4.38-8.9Zm196.06-34.57c-.09-.22-.16-.49-.29-.73-2.66-5.03-5.52-9.97-7.96-15.11-4.92-10.37-12.48-17.32-24-19.49-3.57-.67-3.77-.53-4.32,3.07-.04.28,0,.56,0,.84.24.15.41.32.61.37.7.2,1.41.39,2.13.53,7.95,1.59,13.8,5.93,17.64,13.12,2.3,4.3,4.9,8.45,7.44,12.63.75,1.23.57,1.79-.84,2.14-4.81,1.21-9.63,2.39-14.4,3.76-7.02,2.02-13.72,1.58-20.06-2.24-.88-.53-1.76-1.05-2.59-1.64-1.1-.79-1.96-.55-2.46.62-.48,1.09-2.31,2.15-.33,3.47,1.34.89,2.67,1.79,4.08,2.57,5.48,3.01,11.25,5.07,17.6,4.08,3.51-.55,6.98-1.5,10.4-2.51,5.79-1.71,11.52-3.62,17.37-5.47ZM47.55,47.47c-.04.38-.11.67-.08.94.56,6.17,1.34,12.33,1.66,18.51.6,11.6,6.01,20.2,15.73,26.26.59.37,1.62.72,2.12.46,2.2-1.15,2.34-3.43.31-4.77-6.46-4.26-10.4-10.08-11.38-17.84-.67-5.35-1.48-10.68-2.21-16.02-.24-1.73.87-1.45,1.95-1.3,3.97.56,7.93,1.22,11.91,1.6,7.09.69,13.67,2.45,18.53,8.15,1.18,1.39,2.35,2.8,3.36,4.32,1.17,1.75,2.08.49,3.06-.1,1.02-.62,2.02-1.14,1.02-2.69-4.96-7.76-11.37-13.72-20.76-15.09-8.27-1.2-16.66-1.64-25.22-2.43ZM14.34,96.99c.94,1.58,1.9,3.04,2.7,4.58,2.66,5.11,5.17,10.31,7.92,15.37,5.02,9.25,13.15,13.95,23.29,15.66,1.3.22,1.86-.23,2.2-1.42.76-2.64.63-3.09-2.03-3.6-8.16-1.57-14.03-6.07-17.94-13.38-2.27-4.24-4.82-8.33-7.31-12.44-.83-1.37-.51-1.86,1.01-2.2,3.63-.8,7.22-1.78,10.83-2.64,3.19-.76,6.36-1.71,9.6-2.13,6.05-.78,11.32,1.53,16.23,4.81,1.06.71,2.01,1.04,2.67-.38.55-1.17,2.23-2.26.21-3.66-7.81-5.44-16.25-8.48-25.79-5.86-7.86,2.16-15.59,4.81-23.58,7.3Zm240.76,157.81c-.3-2.36-.52-4.23-.77-6.1-.59-4.33-1.02-8.7-1.85-12.98-.63-3.22-2.5-5.89-4.81-8.45q-2.08,4.07-6.52,5.99c.06,5.84-1.99,7.8-7.96,7.5.17,3.82-2.58,5.27-5.71,6.48,3.63,3.42,7.76,5.09,12.34,5.72,3.9.54,7.82.91,11.74,1.37,1.06.12,2.11.27,3.55.46ZM84.01,63.16c-2.73-1.59-4.75-3.36-7.08-4-4.4-1.2-8.97-1.79-13.48-2.53-2.48-.41-4.99-.62-7.68-.94.31,2.42.52,4.59.88,6.72.81,4.87,1.45,9.8,2.68,14.57.57,2.21,2.36,4.11,3.65,6.24,1.16-1.72,1.78-3.13,2.83-4.03,1.1-.94,2.62-1.38,3.99-2.05-.16-5.74,1.44-7.28,7.92-7.47.01-3.66,2.37-5.34,6.3-6.5Zm22.05,196.66c-3.33,1.2-5.89-.07-8.01-3.07-1.58,3.74-2.04,7.33-1.26,10.93.86,3.98,2.11,7.88,3.18,11.81.51,1.86.99,3.73,1.52,5.75,3.13-1.71,6.04-3.19,8.84-4.86,2.99-1.79,6-3.61,8.78-5.71,2.23-1.68,3.76-4.04,4.81-6.6-1.77-.32-3.33-.3-4.56-.92-1.28-.64-2.26-1.9-3.39-2.91-5.27,2.14-7.6,1.14-9.91-4.42ZM204.87,50.65c3.37-1.31,5.92.16,8.05,3.1,1.36-3.67,2-6.99,1.26-10.32-.97-4.41-2.27-8.74-3.43-13.1-.44-1.65-.86-3.3-1.34-5.1-3.65,2.01-7.11,3.72-10.37,5.76-3.06,1.92-6.06,4.02-8.79,6.39-1.47,1.28-2.31,3.28-3.44,4.95,3.85-.18,6.29,1.18,7.83,4.03,5.54-2.29,7.89-1.29,10.21,4.28Zm-88.49-4.34c1.42-3.11,4.14-3.93,7.64-3.88-1.38-2.26-2.61-4.72-4.59-6.2-3.89-2.91-8.18-5.29-12.32-7.85-1.77-1.09-3.6-2.08-5.53-3.18-.85,2.97-1.67,5.69-2.41,8.42-.88,3.23-1.9,6.45-2.47,9.74-.6,3.43-.23,6.87,1.23,9.95,1.4-1.01,2.51-2.22,3.87-2.66,1.35-.44,2.95-.1,4.4-.1,1.71-5.27,4.05-6.26,10.19-4.23Zm116.93,23.36c5.83-.29,7.32,1.16,7.99,7.92,3.47.03,5.18,2.34,6.2,5.65,2.98-3.07,4.77-6.37,5.41-10.18.64-3.81.95-7.67,1.43-11.51.24-1.91.52-3.82.83-6.05-6.69.98-13.07,1.68-19.34,2.93-3.08.62-5.92,2.33-8.24,4.76,4.49,2.17,5.11,2.88,5.72,6.48ZM24.92,101.12c3.57,5.96,6.69,11.55,10.19,16.88,1.74,2.65,4.39,4.58,7.71,5.84-.31-3.51.33-6.36,3.87-7.54-2.67-5.2-1.89-7.26,4.02-10.67-.99-3.13.02-5.73,2.9-7.85-2.31-.67-4.35-1.18-6.42-1.31-7.65-.47-14.34,3.55-22.27,4.65Zm30.66,153.95c9.67-2.33,19.99-.21,27.87-7.95-2.97-.91-5.07-2.24-5.78-5.2-.11-.44-1.11-.72-1.73-.99-1.49-.63-3.5-.79-4.38-1.89-1.25-1.55-1.67-3.76-2.63-6.15-2.65-.17-4.5-2.33-5.63-5.64-2.41,2.54-4.21,5.2-4.79,8.25-1.19,6.28-1.93,12.64-2.94,19.56Zm139.34,9.22c-1.28,1.11-2.22,2.33-3.46,2.91-1.29.61-2.87.6-4.89.96,1.7,2.21,2.87,4.73,4.84,6.1,5.7,3.98,11.72,7.5,17.89,11.37.71-2.61,1.28-4.7,1.84-6.8,1.03-3.8,2.22-7.57,3.02-11.41.74-3.53.21-7.03-1.37-10.64-2.1,3.05-4.68,4.26-8.02,3.06-1.19,4.83-4.94,6.87-9.86,4.45Zm65.15-158.21c2.78.38,4.73,1.61,5.12,3.98.33,1.99-.14,4.12-.27,6.46,2.99,1.05,3.33,3.99,3.19,7.32,3.18-1.24,5.79-3.01,7.46-5.55,3.59-5.46,6.81-11.16,10.34-17.02-6.41-1.65-12.42-3.43-18.53-4.67-3.28-.66-6.76-.4-10.19,1.45,3.03,1.96,3.98,4.53,2.88,8.02Zm4.12,88.14c2.62,4.32,2,8.19-3.99,10.58.98,3.16-.02,5.76-2.91,7.86,2.16.67,4.05,1.18,5.97,1.33,7.89.6,14.75-3.5,22.72-4.7-5.79-8-7.78-18.28-18.03-22.76.31,3.51-.1,6.42-3.76,7.69Zm-221.4-7.58c-3.48,1.4-6.25,3.46-8.09,6.35-3.29,5.16-6.23,10.54-9.3,15.84-.05.09.06.27.11.47,5.68,1.49,11.35,3.16,17.11,4.43,3.62.8,7.33.58,11.2-1.27-3.23-2-4.05-4.69-3.06-7.94-2.67-.53-4.67-1.72-5.07-4.07-.34-1.98.15-4.11.3-6.46-2.85-1.09-3.45-3.89-3.19-7.34Zm98.92,84.7c-.26.12-.52.23-.78.35.77,2.6,1.01,5.53,2.42,7.73,3.63,5.67,7.78,11.01,12.05,16.94,5.33-8.38,13.93-14.16,14.16-25.18-3.14,1.5-5.97,1.93-8.7-.39-1.39,1.9-3.05,3.61-5.43,3.1-1.99-.42-3.82-1.58-6.04-2.55-2.09,1.79-4.85,1.33-7.66.01Zm-.34-232.08c3.17-1.54,6.06-1.82,8.69.36,3.46-4.2,6.51-4.18,10.96-.07,2.61-2.29,5.46-1.62,8.53-.33-.04-4.07-1.05-7.64-3.24-10.68-3.36-4.66-7.02-9.11-10.56-13.64-.06-.08-.27-.04-.72-.1-4.77,7.81-13.51,13.49-13.65,24.46Zm-102.11,101.89c-1.32.11-2.25.11-3.15.27-4.3.76-7.91,2.92-11.25,5.61-3.38,2.72-6.76,5.46-10.2,8.23,3.2,2.57,6.29,5,9.33,7.49,3.54,2.89,7.28,5.41,11.88,6.26,1.01.19,2.06.17,3.45.28-1.61-3.3-1.73-6.14.4-8.7-4.15-3.36-4.15-6.53-.08-10.82-2.11-2.53-1.83-5.32-.38-8.61Zm231.9,8.69c3.9,2.6,4.47,7.52-.02,10.89,2.54,2.5,1.75,5.39.61,8.58,1.26-.11,2.26-.12,3.23-.3,3.75-.69,7.02-2.43,10-4.75,3.63-2.83,7.23-5.68,10.84-8.53.15-.12.21-.35.34-.58-3.78-3.03-7.51-6.05-11.28-9.02-2.97-2.34-6.27-4.02-10.01-4.71-.95-.18-1.93-.13-3.21-.21,1.42,3.17,1.83,5.96-.49,8.62Zm5.45,28.45c.2.08.39.19.59.23,2.43.47,4.89.87,7.3,1.43,1.3.3,2.14.01,3.03-1.02,1.61-1.89,4.13-2.33,6.14-1.33,1.99.99,3.07,3.25,2.64,5.52-.44,2.37-2.17,4-4.42,4.18-2.61.21-4.38-.96-5.41-3.51-.23-.58-.53-1.46-.97-1.57-2.97-.79-5.99-1.41-8.99-2.09-.1.2-.2.4-.3.6,5.48,3.09,8.93,8.02,12.04,13.31,5.83-3.11,11.44-6.11,16.9-9.02-3.76-4.67-7.47-9.34-11.28-13.93-.29-.36-1.43-.52-1.78-.25-4.62,3.58-9.6,6.33-15.5,7.45Zm-223.22,46.17c-1.98,1.33-3.9,2.74-5.95,3.95-1.61.95-2.35,2.05-2.25,4.03.13,2.56-1.8,4.52-4.19,4.78-2.27.25-4.28-.8-5.29-2.75-1-1.93-.66-4.36.82-5.9,1.47-1.53,3.73-1.88,5.88-1.04.74.29,1.82.69,2.36.38,2.66-1.56,5.19-3.34,7.77-5.05-5.9,1.02-11.59.67-17.21-.98-1.37-.4-1.63.43-1.9,1.42-.71,2.61-1.38,5.22-2.17,7.81-.9,2.97-1.92,5.91-2.85,8.77,6.09.7,12.01,1.41,17.95,2,.44.04,1.33-.71,1.4-1.18.81-5.75,2.28-11.24,5.63-16.23Zm-19-94.11c.08-.21.16-.42.24-.63-4.96-3-8.57-7.21-11.35-12.21-.23-.41-1.55-.65-2.09-.39-2.03.99-3.92,2.27-5.91,3.33-3.2,1.71-6.44,3.33-9.56,4.93,3.8,4.75,7.54,9.49,11.39,14.13.27.32,1.53.26,1.98-.08,4.41-3.4,9.14-6.03,14.78-6.72.18-.02.33-.23.79-.56-2.76-.55-5.25-.99-7.7-1.57-1.56-.37-2.73-.27-3.8,1.18-1.34,1.8-3.4,1.94-5.39,1.31-1.91-.6-2.93-2.11-3.2-4.08-.36-2.59,1.13-4.98,3.48-5.66,2.67-.76,5.16.48,6.29,3.04.33.74.77,1.83,1.38,2,2.85.8,5.78,1.34,8.68,1.97Zm223.96-42.73c5.96-.92,11.71-.69,17.42.92.41.12,1.46-.74,1.65-1.33,1.05-3.34,1.88-6.74,2.89-10.09.67-2.21,1.51-4.36,2.32-6.66-.53-.13-.87-.26-1.21-.29-5.15-.47-10.33-.76-15.44-1.46-2.29-.31-2.94.36-3.16,2.46-.54,5.17-2.22,9.95-5.38,14.14-.1.13-.04.36-.07.64.32-.13.53-.19.71-.31,2.01-1.33,3.98-2.71,6.01-4,1.15-.73,1.71-1.52,1.54-3.02-.29-2.66,1.62-4.96,4.11-5.35,2.13-.33,4.3.65,5.25,2.37,1.17,2.12.99,4.51-.46,6.13-1.44,1.6-3.66,2.03-5.83,1.22-.77-.29-1.85-.83-2.37-.53-2.74,1.59-5.34,3.41-7.98,5.15Zm17.97,42.12c.1.19.19.38.29.57,2.62-.55,5.28-1,7.86-1.72.78-.22,1.64-1.07,1.97-1.85,1.06-2.48,2.83-3.76,5.4-3.57,2.3.17,4.07,1.78,4.5,4.09.42,2.28-.63,4.57-2.57,5.57-2.06,1.07-4.57.5-6.35-1.38-.42-.45-1.06-1.12-1.51-1.05-3.03.45-6.03,1.06-9.03,1.63,0,.21-.01.43-.02.64,5.82.67,10.62,3.45,15.16,6.87.39.29,1.68.03,2.06-.41,1.5-1.69,2.74-3.6,4.19-5.34,2.31-2.79,4.71-5.51,7.03-8.21-5.34-2.93-10.62-5.84-15.94-8.67-.37-.19-1.37.07-1.57.42-2.88,4.99-6.41,9.37-11.46,12.4ZM86.53,53.68c-1.78-2.59-3.28-4.65-4.64-6.8-.79-1.24-1.72-1.75-3.23-1.71-2.8.07-4.6-1.33-5.23-3.75-.5-1.92.52-4.44,2.25-5.55,1.93-1.24,4.62-1.05,6.34.45,1.68,1.46,2.02,3.85.94,6.21-.26.56-.69,1.41-.46,1.77,1.62,2.67,3.39,5.26,5.11,7.87.19-.08.38-.16.56-.24-1.56-5.63-1-11.16.58-16.63.42-1.47-.58-1.7-1.61-2.01-5.09-1.56-10.17-3.15-15.26-4.71-.4-.12-.82-.15-1.16-.2-.18.24-.33.34-.34.46-.55,5.81-1.12,11.61-1.54,17.43-.03.47.91,1.31,1.53,1.48,2.74.74,5.62,1.06,8.27,2,2.56.91,4.91,2.41,7.91,3.93Zm1.5,204.81c-.14-.07-.28-.14-.42-.21-1.48,2.21-2.92,4.44-4.45,6.61-.74,1.05-.84,1.89-.3,3.18.52,1.23.69,2.88.34,4.16-.7,2.5-3.42,3.69-6.02,3.02-2.43-.62-4.07-2.94-3.85-5.42.23-2.62,2.24-4.44,4.98-4.57.85-.04,2.08.08,2.47-.41,1.94-2.44,3.66-5.06,5.46-7.62-.13-.13-.27-.26-.4-.38-4.52,3.37-9.6,5.27-15.16,5.75-1.71.15-2,.86-1.85,2.39.55,5.44.97,10.88,1.47,16.33.02.26.21.5.32.74.32,0,.55.05.74,0,5.37-1.65,10.72-3.34,16.1-4.94,1.47-.44,1.37-1.22,1.18-2.47-.55-3.73-1.01-7.49-1.26-11.26-.1-1.61.42-3.26.66-4.89ZM52.42,87.51c.01.22.04.11,0,.09-2.17-1.47-4.39-2.88-6.51-4.41-1.19-.86-2.15-1.04-3.56-.3-2.23,1.17-4.68.51-6.13-1.3-1.39-1.73-1.47-4.23-.21-6.14,1.19-1.79,3.73-2.68,5.81-2.05,2.08.64,3.34,2.53,3.43,5.06.02.71-.08,1.75.33,2.06,2.52,1.95,5.16,3.74,7.76,5.59.15-.16.31-.31.46-.47-3.73-4.54-5.23-9.91-5.92-15.56-.15-1.22-.67-1.58-1.89-1.42-3.69.5-7.38.94-11.08,1.3-2.14.21-4.29.23-6.43.34,1.78,6.04,3.45,11.84,5.24,17.59.11.36,1.15.69,1.7.61,2.09-.32,4.14-1.08,6.22-1.17,3.59-.15,7.19.09,10.76.17Zm78.16,188.13c-3.19,5.22-7.86,8.63-12.91,11.62-1.17.69-.79,1.46-.29,2.39,2.61,4.89,5.16,9.8,7.75,14.7.12.22.38.38.5.49,5-4.08,9.89-8.08,14.99-12.25-4.18-4.9-7.08-10.38-7.9-17.19-.31.59-.41.71-.44.85-.54,2.65-1.01,5.31-1.62,7.93-.3,1.29-.13,2.15,1.01,3,1.81,1.33,2.47,3.23,1.74,5.43-.77,2.32-2.94,3.61-5.52,3.37-2.47-.23-4.24-1.87-4.59-4.26-.34-2.37.88-4.38,3.13-5.46.84-.4,2-.99,2.21-1.73.82-2.92,1.32-5.93,1.94-8.9Zm94.38-18.53c0,.1-.08.27-.02.35,1.3,1.94,2.68,3.83,3.89,5.82.89,1.45,1.93,2.12,3.72,2.04,2.46-.11,4.26,1.39,4.89,3.6.61,2.13-.43,4.55-2.5,5.82-1.72,1.06-4.42.84-5.96-.48-1.61-1.38-2.04-3.8-1.16-6,.28-.71.73-1.73.45-2.22-1.52-2.65-3.24-5.17-4.89-7.74-.18.08-.37.16-.55.24,1.42,5.32,1.05,10.59-.46,15.77-.56,1.91.08,2.51,1.86,3.02,4.98,1.41,9.9,3.04,14.84,4.57.39.12.82.15,1.24.22.61-6.06,1.24-11.97,1.72-17.9.04-.47-.97-1.32-1.62-1.5-2.6-.71-5.34-.98-7.85-1.89-2.63-.95-5.06-2.45-7.58-3.71Zm34.12-33.82c2.15,1.45,4.23,2.8,6.24,4.22,1,.71,1.81.78,2.98.18,2.83-1.46,5.89-.4,7.03,2.25.9,2.09.53,4.07-.96,5.7-1.52,1.66-3.54,2.08-5.62,1.25-2.1-.84-3.09-2.52-3.1-4.82,0-.82-.04-2.01-.55-2.39-2.44-1.87-5.05-3.53-7.6-5.27-.14.13-.28.25-.42.38,3.84,4.58,5.23,10.06,5.98,15.75.19,1.46,1.06,1.46,2.21,1.3,3.18-.45,6.36-.88,9.55-1.2,2.51-.26,5.04-.34,7.58-.51.03-.37.11-.6.05-.79-1.69-5.43-3.42-10.85-5.08-16.29-.37-1.21-1-1.34-2.13-1.1-2.49.53-5,1.09-7.53,1.28-2.78.22-5.59.05-8.63.05Zm-224.52-42.65c-.06-.16-.12-.31-.18-.47-2.46.51-4.9,1.04-7.37,1.51-1.39.26-2.28.8-2.75,2.34-.73,2.4-2.78,3.5-5.31,3.27-2.16-.2-4-1.86-4.39-3.96-.44-2.35.68-4.76,2.67-5.74,2.06-1.01,4.51-.48,6.17,1.31.43.46,1.03,1.21,1.45,1.15,3.09-.43,6.16-1.04,9.23-1.59,0-.23,0-.46,0-.69-5.82-.64-10.7-3.3-15.12-6.88-1.21-.98-1.82-.14-2.47.69-2.06,2.64-4.07,5.33-6.2,7.93-1.54,1.88-3.23,3.63-4.75,5.34,5.21,2.85,10.23,5.52,15.15,8.34,1.5.86,2.11.55,3.1-.8,2.34-3.22,4.91-6.29,7.52-9.3.87-1,2.15-1.63,3.24-2.43ZM240.38,28.43c-5.92,1.75-11.71,3.43-17.47,5.21-.38.12-.83,1.09-.71,1.52,1.51,5.56,2.08,11.15.88,16.94,1.96-2.49,3.71-5.05,5.33-7.69.23-.37-.13-1.21-.39-1.75-1.1-2.25-.8-4.75.82-6.25,1.65-1.53,4.36-1.79,6.32-.61,1.86,1.12,2.87,3.62,2.31,5.7-.65,2.38-2.37,3.6-5.03,3.72-.83.04-2.02.03-2.42.54-1.87,2.4-3.53,4.98-5.02,7.13,3.87-1.48,7.76-3.33,11.85-4.45,5.41-1.47,5.42-1.22,4.78-6.84-.49-4.33-.82-8.68-1.23-13.18Zm-59.57,247.06c-.15.09-.31.18-.46.26.57,2.78,1.04,5.58,1.79,8.31.22.8,1.18,1.43,1.89,2.04.92.79,2.18,1.29,2.86,2.23,1.56,2.17.92,5.06-1.2,6.6-2.24,1.63-5.45,1.36-7.19-.61-1.79-2.03-1.61-4.89.39-6.93.58-.6,1.58-1.37,1.5-1.95-.45-3.26-1.17-6.48-1.8-9.71-1.12,6.52-4.09,11.96-8.29,16.83,5.18,4.22,10.11,8.25,15.15,12.36,1.1-2.33,2.07-4.61,3.23-6.78,1.55-2.9,3.24-5.71,4.87-8.57.49-.87.93-1.71-.31-2.39-5.13-2.82-9.57-6.39-12.42-11.7ZM125.5,5.52c-1,2.11-1.92,4.24-3.01,6.28-1.65,3.09-3.39,6.13-5.15,9.16-.65,1.12-.49,1.86.65,2.5,1.21.68,2.36,1.46,3.52,2.22,3.64,2.39,6.57,5.46,8.82,9.28-.29-2.74-.86-5.35-1.33-7.97-.26-1.41-.81-2.28-2.32-2.77-2.59-.85-3.73-2.89-3.42-5.42.25-1.99,1.98-3.87,3.9-4.24,2.54-.48,4.96.6,5.94,2.66,1.06,2.24.58,4.29-1.38,6.11-.46.43-1.22,1.02-1.16,1.43.46,3.23,1.1,6.44,1.68,9.66l.58-.04c.74-6.37,3.72-11.72,7.78-16.47-5.19-4.26-10.07-8.27-15.09-12.38Zm54.85,29.27c.17.08.34.16.5.24,2.64-5.28,7-8.75,11.96-11.53,1.4-.79,1.29-1.59.61-2.83-2.54-4.68-4.97-9.42-7.46-14.13-.19-.35-.46-.66-.64-.91-5.02,4.08-9.92,8.06-14.82,12.05,1.67,2.64,3.55,5.1,4.84,7.83,1.33,2.79,2.08,5.86,3.07,8.77,0,0,.18-.06.2-.16.54-2.64,1.02-5.3,1.62-7.93.27-1.21.06-2.03-.98-2.82-1.62-1.24-2.38-2.95-1.9-5.02.55-2.41,2.6-3.92,5.16-3.87,2.57.05,4.58,1.65,5.05,4.02.48,2.43-.76,4.6-3.05,5.71-.89.43-2.1,1.08-2.33,1.87-.81,2.86-1.26,5.81-1.85,8.73Zm-24.88,227.91q-4.21,0-4.21,3.75c0,4.02,1.35,5.85,4.3,5.82,2.8-.03,4.08-1.85,4.09-5.79q0-3.77-4.17-3.77Zm-104.53-60.13c2.23,0,6.18-1.87,6.24-2.94.08-1.42-2.73-6.59-3.59-6.61-2.78-.05-6.69,3.05-6.68,5.29.02,2.46,1.73,4.27,4.03,4.26Zm209.04,0c2.29.01,4.02-1.81,4-4.22-.02-2.36-3.51-5.17-6.61-5.3-.92-.04-3.64,4.73-3.65,6.42,0,1.17,3.86,3.09,6.26,3.1Zm6.08-51.87c-.73.4-2.61.86-2.7,1.56-.29,2.17-.68,5.09.47,6.44.91,1.07,4.03.26,6.17.28.07,0,.14-.05.2-.08,1.82-.72,2.49-2.19,2.44-4-.05-1.7-.93-2.92-2.6-3.39-1.11-.32-2.27-.47-3.98-.81ZM46.93,112.1c-.02,2.31,3.75,5.35,6.62,5.36.9,0,3.66-4.99,3.63-6.55-.02-1.07-3.93-2.96-6.18-3-2.31-.04-4.05,1.76-4.07,4.19ZM198.69,46.87c-2.03-.02-3.17,1.02-4.51,4.11q-1.42,3.27,1.76,4.6c4.8,2,5.76,1.46,6.76-3.76.54-2.83-1.15-4.92-4.01-4.95Zm40.77,188.47c.03-2.13-3.72-7-4.91-6.22-2.05,1.33-3.93,3.2-5.22,5.27-.68,1.08,4.18,4.77,6.18,4.84,2.01.07,3.93-1.81,3.96-3.88Zm-40.08,28.25c2.24-.02,3.91-2.13,3.29-5.1-1.08-5.14-1.86-5.58-6.46-3.64-3.36,1.41-3.39,1.43-1.95,4.86.83,1.98,1.72,3.95,5.12,3.88Zm-123.9-24.55c2.04-.04,6.85-3.67,6.15-4.74-1.37-2.08-3.26-4.05-5.39-5.29-1.2-.7-4.82,4.3-4.77,6.34.06,2.16,1.77,3.73,4.02,3.69ZM239.46,75.34c.05-2.9-3.1-4.94-5.76-3.46-1.6.89-2.89,2.4-4.21,3.73-.24.25-.18,1.19.09,1.49,1.32,1.46,2.74,2.84,4.18,4.18.25.23.83.29,1.18.18,1.78-.56,4.49-4.29,4.52-6.12Zm24.55,37.5c.02-2.52-1.11-4.22-2.73-4.74-1.54-.5-6.38.59-6.83,1.97-.37,1.13.43,2.65.72,4,.03.14.1.27.15.41,1.38,3.47,1.51,3.53,4.86,1.99.86-.39,1.77-.81,2.41-1.47.72-.73,1.15-1.74,1.41-2.16ZM107.95,50.95c.59,1.62,1.15,3.25,1.78,4.86.42,1.08,1.2,1.38,2.28.86.59-.29,1.2-.52,1.81-.77,4.31-1.77,4.57-2.55,2.17-6.62-.18-.31-.39-.62-.6-.91-1.23-1.69-2.93-1.78-4.7-1.21-1.72.56-2.56,1.84-2.73,3.8Zm47.5-3.5q4.22,0,4.21-3.22c0-4.23-1.32-6.08-4.29-6.02-2.88.06-4.09,1.82-4.11,5.98q-.01,3.27,4.19,3.26Zm-83.98,27.75c0,2.07,3.61,6.82,4.75,6.09,2.06-1.32,3.96-3.16,5.3-5.2.75-1.15-3.98-4.69-6.13-4.67-2.26.02-3.92,1.62-3.92,3.79Zm40.86,188.4c2.25-.02,5.25-3.79,5.15-6.46-.03-.86-4.79-3.51-6.36-3.54-1.18-.02-3.12,3.95-3.05,6.26.07,2.18,1.87,3.77,4.26,3.74Zm-64.85-108.49c.03-4.28-.24-4.51-4.55-3.97-.14.02-.29.04-.43.06-2.92.41-4.22,1.65-4.24,4.05-.01,2.27,1.24,3.55,4.02,4.08,4.25.81,5.18.06,5.21-4.22Zm214.85,37.41c2.52.06,4.07-1.24,4.16-3.45.1-2.42-2.82-4.63-6.16-4.69-1.12-.02-2.86,3.28-3.03,5.73-.08,1.17,2.37,2.34,5.02,2.4ZM55.58,99.63c-1.86-.01-3.65,1.82-3.62,3.68.03,1.91,3.95,5.78,5.61,4.9,1.68-.9,2.66-3.34,3.6-5.27.5-1.01-3.43-3.3-5.59-3.31Zm-6.69,17.81c-.1.18-.19.35-.29.53-2.64-.08-4.13,1.23-4.14,3.64-.01,2.29,2.91,4.43,6.11,4.48,1.03.02,3.67-4.28,2.86-5.86-.69-1.35-2.97-1.89-4.54-2.79Zm213.76,48c-.19,2.91-.01,3.11,3.02,3.34,3.51.27,5.18-.74,5.39-3.24.24-2.92-1.54-4.3-5.84-4.52-2.15-.11-2.28.13-2.57,4.42Zm-31.23-96.39c.08-1.76-1.78-3.63-3.66-3.68-1.66-.05-6.01,3.6-5.34,4.74,1.07,1.81,2.95,3.27,4.76,4.47.96.64,4.16-3.59,4.24-5.53Zm-20.24,185.84c-.04-1.93-2.2-5.55-3.28-5.49-1.22.06-5.6,2.95-5.56,3.66.12,2.23,3.32,5.61,5.24,5.53,1.97-.08,3.64-1.8,3.61-3.7Zm-155.5-44.04c2.08-.06,5.57-2.09,5.53-3.23-.04-1.34-2.85-5.6-3.65-5.53-2.41.21-5.67,3.22-5.6,5.17.06,1.93,1.83,3.64,3.72,3.59Zm-7.18-18.34c2.56-.02,4.89-1.13,4.93-2.35.06-1.94-1.91-5.77-2.96-5.76-3.18.05-6.12,2.27-6.05,4.57.07,2.3,1.52,3.56,4.08,3.54Zm144.4,69.84c.05-2.27-1.36-5.29-2.47-5.29-2.23,0-5.73,1.79-5.77,2.95-.12,2.89,2.27,6.09,4.53,6.09,2.11,0,3.67-1.57,3.71-3.75Zm52.58-179.47c-.03-.13,0-.52-.17-.68-1.07-.96-2.1-2.49-3.31-2.65-2.39-.33-4.28,1.35-5.52,3.24-.33.51.75,2.03,1.31,3.01.39.68.96,1.28,1.53,1.83.34.33.82.71,1.24.72,1.63.02,4.95-3.64,4.92-5.47Zm-127.43-34.59c0,2.5,1.27,5.07,2.45,5.01,2.58-.13,5.75-1.77,5.77-2.99.05-2.88-2.22-5.9-4.46-5.94-2.21-.04-3.77,1.58-3.76,3.92Zm74.81-.01c.1-2.16-1.4-3.83-3.53-3.91-2.28-.09-4.46,2.61-4.66,5.76-.09,1.47,2.41,2.94,5.48,3.21,1.37.12,2.57-2.11,2.71-5.06Zm69.81,96.32c.11,4.44.39,4.95,2.59,4.88,3.88-.13,5.86-1.54,5.81-4.14-.05-2.64-1.53-3.79-4.78-3.68-3.18.11-3.68.51-3.62,2.94Zm-140.84,121.49c2.19-.06,4.55-3.25,4.45-5.99-.04-1.04-4.21-3.08-6.05-2.96-1.03.07-2.27,3.08-2.19,5.29.09,2.23,1.62,3.72,3.79,3.66Zm47.08-.36c-.04-.35.01-1.34-.3-2.2-.2-.54-.98-1.28-1.46-1.24-1.85.13-4.43-.07-5.29,1.01-.85,1.06-.19,3.59.25,5.36.47,1.89,2.07,2.52,3.97,2.11,2.15-.46,2.85-1.57,2.83-5.03Zm-99.99-34.68c1.85.02,6.34-2.98,5.77-3.9-1.17-1.89-2.64-3.83-4.48-4.97-1.13-.7-4.79,3.59-4.77,5.29.02,1.71,1.82,3.57,3.47,3.58Zm189.95-23.83c.02-2-4.15-5.6-6.01-5.17-.2.05-.45.18-.53.35-.87,1.88-2.32,3.78-2.31,5.67,0,.89,2.83,1.76,4.38,2.64.06.03.14.04.21.05,2.24.4,4.23-1.25,4.25-3.54ZM65.42,83.21c.06,1.62,3.81,5.73,4.84,5.03,1.81-1.22,3.31-3.13,4.41-5.06.54-.94-3.9-3.81-5.67-3.74-1.84.07-3.65,1.97-3.58,3.77Zm180.07,144.49c.19-1.65-3.18-6.01-4.62-5.37-1.9.84-3.38,2.93-4.64,4.75-.6.86,3.32,3.78,5.27,3.96,1.81.17,3.78-1.48,3.99-3.34Zm-34.48-172.07c.06-2.06-1.44-3.68-3.46-3.74-1.87-.05-5.13,3.45-5.21,5.6-.03.81,3.98,3.47,5.4,3.58,1.29.1,3.2-3.09,3.27-5.44ZM48.19,144.66c.1-2.5-.29-2.82-3.58-2.98-3.12-.15-4.63.96-4.76,3.49-.14,2.72,1.67,4.1,5.65,4.29,2.24.11,2.5-.36,2.68-4.8Zm93.82,121.23c0,1.82-.26,3.96,2.03,4.51,1.24.3,3.54.17,3.9-.53.95-1.83,1.24-4.06,1.42-6.16.03-.32-1.92-1.02-3.01-1.19-4-.62-4.26-.37-4.33,3.36Zm124.45-144.27c-.02-2.3-1.5-3.67-3.95-3.66-2.58,0-4.93,1.05-4.97,2.21-.06,2.06,1.92,5.93,3.01,5.88,3.16-.12,5.92-2.2,5.9-4.43Zm-97.54-77.16c.07-3.33-.81-4.55-3.43-4.8-2.22-.22-3.56,1.19-4.03,4.22-.52,3.38-.25,3.49,3.35,4.08,3.4.55,4.02.46,4.11-3.5Zm-69.17,11.04c0,1.94,2.17,5.73,3.12,5.3,2.01-.91,4.56-1.87,5.47-3.57.87-1.63-2.99-5.34-4.88-5.34-1.94,0-3.71,1.73-3.71,3.61Zm159.19,47.05c-.55-.61-1.35-1.93-2.52-2.69-1.22-.8-5.26.49-6.11,2-.39.7.23,2.04.55,3.04.27.82.71,1.61,1.21,2.32.3.44.81.94,1.28,1,1.95.26,5.55-2.95,5.58-5.68ZM44.66,168.8c1.15-.51,3.61.66,3.52-2.31-.16-5.1-.36-5.52-2.45-5.5-3.79.04-5.89,1.51-5.89,4.1,0,2.59,1.43,3.76,4.82,3.71Zm44.35,71.4c-1.19-1.03-1.95-1.71-2.73-2.37-3.04-2.56-3.75-2.43-5.83,1.08-.15.25-.29.51-.42.77-.89,1.73-.63,3.24.88,4.5,1.53,1.28,3.18,1.24,4.58,0,1.28-1.13,2.29-2.56,3.52-3.98Zm14.43,18.39c1.85.02,4.96-3.28,5.11-5.42.05-.79-4.35-3.57-5.62-3.56-1.19.02-3.16,3.36-3.14,5.33.02,1.9,1.74,3.62,3.65,3.64Zm118.33-18.32c1.54,1.55,2.83,3.1,4.38,4.31,1.31,1.02,2.79.55,4-.51,1.23-1.08,1.73-2.43.88-3.91-.75-1.31-1.65-2.57-2.67-3.69-.31-.34-1.4-.42-1.79-.14-1.53,1.09-2.92,2.37-4.8,3.95ZM142,43.91c.03,4.16.15,4.26,4.08,3.98.22-.02.44-.02.66-.03,2.81-.16,3.1-.47,2.77-3.31-.1-.86-.28-1.74-.57-2.55-.7-1.98-2.32-2.76-4.35-2.22-2.36.63-2.7,2.39-2.57,4.14Zm-62.5,24.94c-.03,1.87,2.92,6.1,3.92,5.51,1.86-1.1,3.73-2.57,4.86-4.36.73-1.16-3.33-4.62-5.14-4.59-1.8.02-3.61,1.74-3.64,3.44Zm-35.8,9.45c.01-1.69-1.83-3.53-3.55-3.54-1.75-.01-3.36,1.75-3.32,3.66.03,1.87,1.45,3.28,3.35,3.36,1.82.08,3.51-1.6,3.52-3.48Zm88.18,212.76c.01-1.92-1.5-3.41-3.5-3.43-1.9-.02-3.42,1.55-3.38,3.5.04,1.76,1.58,3.32,3.36,3.38,1.79.07,3.51-1.62,3.52-3.46Zm50.6-3.42c-2.04.05-3.53,1.54-3.46,3.44.07,1.79,1.66,3.43,3.34,3.42,2.04-.01,3.66-1.67,3.55-3.63-.1-1.9-1.57-3.27-3.43-3.22ZM131.85,19.39c-.06-1.86-1.58-3.43-3.3-3.41-2.1.02-3.65,1.6-3.54,3.6.11,1.88,1.56,3.27,3.4,3.24,2.04-.03,3.5-1.49,3.44-3.44Zm100.54,254.44c1.71.03,3.43-1.56,3.51-3.23.09-1.9-1.41-3.55-3.29-3.61-1.99-.07-3.59,1.37-3.63,3.26-.04,1.84,1.59,3.55,3.4,3.58ZM78.5,36.62c-1.8,0-3.53,1.74-3.48,3.51.05,1.81,1.55,3.32,3.34,3.36,1.97.04,3.59-1.45,3.59-3.31,0-1.82-1.68-3.57-3.45-3.56Zm-34.79,195.54c-.02-1.86-1.72-3.53-3.51-3.48-1.99.07-3.43,1.58-3.37,3.53.05,1.92,1.45,3.31,3.31,3.31,1.96,0,3.59-1.54,3.57-3.37Zm34.8,34.84c-1.89-.05-3.47,1.5-3.48,3.41-.01,1.69,1.58,3.33,3.33,3.42,1.79.09,3.53-1.54,3.61-3.37.08-1.85-1.46-3.4-3.45-3.45ZM182.68,22.82c1.82-.04,3.23-1.51,3.24-3.39.01-2-1.56-3.4-3.75-3.33-1.75.05-3.19,1.65-3.14,3.5.05,1.9,1.59,3.27,3.65,3.23Zm49.8,13.86c-1.86,0-3.49,1.6-3.51,3.45-.02,1.84,1.58,3.35,3.56,3.35,1.87,0,3.4-1.6,3.37-3.52-.02-1.71-1.65-3.27-3.42-3.28Zm38.3,198.84c1.87,0,3.26-1.39,3.31-3.29.04-1.8-1.57-3.49-3.4-3.55-1.76-.06-3.46,1.65-3.48,3.49-.02,1.8,1.64,3.36,3.57,3.35Zm3.31-156.9c.16-1.81-1.18-3.5-2.94-3.68-1.92-.2-3.67,1.13-3.91,2.99-.22,1.7,1.41,3.78,3.06,3.9,1.72.13,3.63-1.48,3.79-3.21ZM19.44,124.93c-2.03.05-3.26,1.3-3.26,3.3,0,2.13,1.29,3.38,3.44,3.34,2.06-.04,3.31-1.39,3.26-3.55-.04-1.94-1.38-3.15-3.44-3.1Zm271.98,0c-2.06-.01-3.36,1.2-3.38,3.15-.02,2.16,1.23,3.49,3.29,3.51,2.04.02,3.34-1.19,3.4-3.17.06-2.1-1.25-3.48-3.31-3.49Zm.02,60.61c2.07-.03,3.35-1.4,3.28-3.52-.06-1.96-1.38-3.17-3.42-3.14-2.07.03-3.28,1.35-3.26,3.53.02,1.94,1.33,3.15,3.4,3.12Zm-268.57-3.33c-.03-2.1-1.37-3.38-3.47-3.32-2.05.06-3.27,1.32-3.22,3.31.05,2.12,1.37,3.39,3.47,3.34,2.01-.05,3.26-1.35,3.23-3.33Z"/>
      <path class="cls-1" d="m155.37,54.77c52.58-.24,100.69,42.35,100.63,99.79-.06,56.29-44.12,101.47-101.98,101.05-56.93-.41-98.93-47.63-99.2-99.43-.28-54.12,42.44-101.36,100.55-101.41Zm-.52,14.04c-47.33.01-85.85,38.75-86.07,86.16-.21,45.32,36.91,86.64,85.88,86.68,48.78.04,87.41-38.27,87.41-86.63,0-47.7-38.98-86.23-87.21-86.22Zm-46.88-.38c-2.03,1.23-3.81,2.21-5.47,3.37-.42.29-.8,1.36-.59,1.7,1.49,2.42,2.91,4.94,4.8,7.03,1.59,1.75,2.73-.68,4.02-1.23.84-.36,2.69-.59,1.84-2.32-1.38-2.79-2.94-5.5-4.59-8.55Zm48.23,180.24s.02,0,.03,0c0,1.24,0,2.48,0,3.72,0,1.44,1.01,1.77,2.09,1.53,1.9-.43,4.3,1.15,5.67-1.31.22-.39.05-1.01,0-1.51-.17-1.96-.41-3.92-.55-5.88-.12-1.78-.94-2.34-2.72-2.14-4.52.53-4.53.46-4.53,5.15,0,.15,0,.29,0,.44Zm10.68,4.71c1.49-.2,2.35-.31,3.21-.43q3.82-.55,3.08-4.31c-.13-.64-.26-1.28-.39-1.92-1.16-6.07-.74-4.66-6.12-4.19-1.28.11-1.78.74-1.63,2.02.29,2.45.47,4.92.84,7.36.1.62.77,1.15,1,1.47Zm75.37-50.22c-.6-.55-.99-1.06-1.51-1.37-1.12-.67-2.31-1.23-3.46-1.86-5.35-2.92-3.86-2.95-7.14,2.1-.66,1.01-.52,1.69.5,2.34,2.08,1.34,4.1,2.77,6.19,4.08.48.3,1.56.53,1.72.31,1.28-1.74,2.4-3.6,3.69-5.6Zm.44-2.41c.24-.1.55-.12.62-.27.99-2.01,2.1-4,2.75-6.12.09-.31-2.06-1.33-3.19-1.98-.5-.29-1.06-.47-1.6-.71-4.47-1.93-4.4-1.89-6.61,2.28-.8,1.51-.71,2.3.89,3.05,2.04.95,3.99,2.12,5.98,3.19.38.2.78.38,1.16.56ZM114.65,76.91c.59-.21,1.01-.31,1.4-.49q4.84-2.21,2.84-7.07c-2.31-5.61-2.88-5.78-8.04-2.39-.06.04-.16.06-.18.11-.19.54-.69,1.25-.51,1.61,1.42,2.77,2.97,5.46,4.5,8.23Zm-21.23,1.37c2.13,2.6,4,5.01,6.05,7.25.34.37,1.7.34,2.16-.03,1.33-1.06,2.45-2.38,3.62-3.63.04-.05-.19-.37-.31-.55-1.45-2.19-2.92-4.36-4.34-6.57-.64-1-1.32-.96-2.16-.3-1.55,1.2-3.11,2.38-5.02,3.83Zm156.33,107.32c-.57-.49-1-1.11-1.57-1.3-2.42-.81-4.87-1.56-7.34-2.18-.46-.12-1.39.35-1.61.79-.65,1.3-1.13,2.7-1.49,4.1-.11.44.27,1.33.66,1.51,2.51,1.17,5.08,2.23,7.66,3.23.39.15,1.31-.11,1.45-.42.8-1.79,1.44-3.65,2.24-5.73Zm-183.81-20.71c-2.57.26-4.88.53-7.19.73-1.44.13-1.76.9-1.62,2.22.64,5.92.61,5.93,6.37,4.75.14-.03.28-.07.43-.1,5.47-1.02,4.68-.7,4.1-5.59-.19-1.58-.77-2.27-2.09-2.01Zm57.23-91.57c1.92-.8,3.86-1.19,5.14-2.32.54-.48-.27-2.51-.49-3.83-.05-.29-.15-.56-.25-.84-2.29-6.57-.33-5.85-7.52-3.49-.07.02-.18.03-.2.08-.31.66-1.01,1.47-.84,1.97.83,2.41,1.88,4.74,2.92,7.07.23.51.78.88,1.22,1.36Zm-30.37,19.85c-1.75-1.5-3.44-2.86-5.03-4.34-2.66-2.46-2.56-3.69-5.52.1-.45.57-.95,1.1-1.48,1.6-1,.94-.8,1.71.19,2.5,1.92,1.55,3.76,3.2,5.75,4.66.45.33,1.62.37,1.99.04,1.31-1.22,2.42-2.65,4.1-4.57Zm-30.82,62.96c-6.18.12-5.5-1.1-5.39,5.84,0,.07.01.15,0,.22-.02,1.27.56,1.91,1.87,1.76,2.53-.27,5.07-.46,7.57-.88.54-.09,1.3-.93,1.36-1.49.49-4.82-.14-5.45-4.98-5.45h-.44Zm187.07-.02c-5.78,0-6.01.17-5.59,5.22.05.64.93,1.62,1.57,1.74,2.27.44,4.6.65,6.92.8.61.04,1.75-.38,1.79-.69.24-2.14.51-4.35.14-6.43-.08-.45-2.71-.45-4.17-.65-.21-.03-.44,0-.65,0Zm-187.37-1.78c1.31,0,2.63.12,3.92-.06.54-.07,1.33-.69,1.44-1.19.3-1.33.46-2.75.34-4.1-.06-.59-.87-1.49-1.47-1.6-2.13-.4-4.32-.5-6.49-.75-2.5-.29-2.78-.1-2.83,2.45-.12,6.08-.68,5.19,5.09,5.25Zm83.99,90.87c.69-1.95-.47-2.56-2.57-2.72-4.06-.32-4.06-.41-4.88,3.71-.07.36-.14.72-.21,1.07-1.09,5.84-1.74,5.01,4.36,6.11.21.04.44.04.65.07,1.36.19,2.02-.34,2.1-1.77.1-2.04.34-4.06.55-6.46Zm107.83-77.3c.47-1.48-.13-2.24-1.89-2.34-2.18-.12-4.35-.43-6.52-.66-1.29-.14-2.02.28-2.23,1.71-.85,5.9-1.46,4.81,4.01,5.86.21.04.43.09.64.13q5.49,1.06,5.99-4.71Zm-124.71,72.13c-.27-.28-.56-.77-.99-1-4.42-2.45-5.22-2.18-7.1,2.33-.06.13-.12.27-.17.4q-2.28,5.53,3.5,7.28c.28.08.59.3.83.23.44-.11,1.11-.29,1.22-.61.93-2.75,1.76-5.54,2.72-8.63Zm25.93-177.97c-.02-6.31.44-5.55-5.71-5.47-.29,0-.69-.09-.85.07-.49.46-1.27,1.02-1.25,1.53.07,2.47.27,4.95.66,7.39.1.6,1.04,1.43,1.67,1.51,5.08.67,5.48.27,5.48-4.81,0-.07,0-.15,0-.22Zm-84.3,117.4c-.06-4.99-1.42-6.14-5.71-5.3-.29.06-.57.12-.85.18-6.02,1.22-5.7.1-3.86,7.01.02.07.03.18.07.2.66.36,1.42,1.12,1.97.99,2.48-.57,4.91-1.36,7.32-2.16.5-.17.86-.73,1.06-.92Zm166.78,31.93c-.52-.56-.84-1.02-1.27-1.33-1.12-.81-2.28-1.58-3.44-2.33-5.02-3.24-3.4-3.32-7.19,1.41-.83,1.03-.63,1.82.34,2.59,1.89,1.49,3.74,3.03,5.65,4.49.41.31,1.35.66,1.49.49,1.5-1.66,2.88-3.43,4.43-5.33Zm11.77-57.03c5.95,0,5.99-.09,5.09-5.97-.23-1.5-.86-2.02-2.3-1.84-2.24.29-4.5.44-6.72.84-.59.1-1.43.8-1.53,1.34-.81,4.38.26,5.62,4.59,5.63.29,0,.58,0,.88,0Zm-176.02-52.86c-.2.14-.52.25-.65.47-1.07,1.73-2.15,3.46-3.1,5.25-.13.25.33,1.09.72,1.31,2.27,1.3,4.58,2.54,6.93,3.71.42.21,1.35.21,1.53-.05,1.02-1.41,1.92-2.91,2.74-4.45.15-.28-.11-1.06-.42-1.27-2.32-1.63-4.7-3.18-7.06-4.75-.17-.11-.41-.14-.69-.23Zm72.73-36.69c-.09-.94-.16-1.88-.29-2.82-.76-5.61-.98-5.73-6.61-4.29-1.27.32-1.69.95-1.44,2.17.32,1.57.61,3.14.93,4.7q.77,3.8,4.7,3.36,2.88-.33,2.7-3.12Zm10.52-3.13c.06,5.98-.7,5.27,4.9,5.5,1.6.07,2.25-.66,2.37-2.15.15-1.89.31-3.78.55-5.66.25-1.96-.47-2.78-2.51-2.79-6.1-.05-5.23-.71-5.31,5.1Zm32.11,174.82c-.29.25-.58.5-.87.74-1.68.67-3.6,1.06-4.91,2.17-.52.45.31,2.5.55,3.81.06.35.21.7.32,1.04,1.8,5.71,2.13,5.85,7.61,3.14.07-.03.17-.04.19-.09.25-.63.84-1.4.67-1.89-.86-2.39-1.94-4.7-2.92-7.04-.25-.61-.43-1.26-.64-1.88Zm-117.81-54.56c-1.67.5-3.13.96-4.6,1.38-5.72,1.63-4.88,1.16-3.21,6.39.62,1.96,1.46,2.72,3.43,1.58.94-.54,2.01-.85,3.02-1.26,5.56-2.29,4.62-1.05,2.7-6.71-.07-.21-.13-.45-.28-.59-.35-.31-.74-.56-1.06-.79Zm152.11-83.09c.26-.21.52-.43.77-.64.42-.27.87-.5,1.26-.81,1.49-1.18,2.96-2.38,4.42-3.59q2.28-1.88.32-4.21c-.71-.84-1.47-1.63-2.17-2.47-.79-.94-1.49-.94-2.34-.02-1.34,1.44-2.77,2.81-4.16,4.21-2.22,2.23-2.18,2.2-.02,4.62.77.86,1.29,1.94,1.92,2.92Zm-152.12,32.39c-.29-.29-.64-.95-1.17-1.13-2.34-.8-4.73-1.44-7.09-2.2-2.2-.7-2.43,1.05-2.47,2.28-.06,1.73-2.74,4,.47,5.16,2.37.85,4.96,1.11,7.48,1.47.48.07,1.37-.48,1.55-.95.52-1.35.77-2.8,1.22-4.63Zm-5.19,14.31c2.11.09,2.47-.13,2.65-1.91.46-4.76,1.87-4.61-4.02-5.65-.07-.01-.14-.03-.21-.05q-6.01-1.21-6.53,4.85c0,.07-.05.17-.02.21.45.59.83,1.59,1.38,1.69,2.29.44,4.63.6,6.75.85Zm2.89-35.76c-.26.22-.64.38-.77.66-.92,1.96-1.79,3.94-2.68,5.92,1.53.77,3.06,1.54,4.59,2.31.13.07.27.11.4.17q4.6,1.87,6.63-2.61c.06-.13.21-.29.18-.39-.22-.7-.26-1.72-.75-2.02-2.1-1.3-4.33-2.39-6.51-3.55-.32-.17-.66-.29-1.09-.48Zm.1,90.93c1.57-.81,3.13-1.59,4.66-2.41,4.49-2.43,4.45-2.42,2.1-7.04-.56-1.09-1.18-1.31-2.25-.86-2.28.96-4.6,1.82-6.86,2.82-.49.22-1.21,1.03-1.11,1.28.8,1.94,1.76,3.82,2.7,5.7.11.21.45.31.76.52Zm105.47,41.94c.26,1.27.5,2.48.76,3.69,1.33,6.28-.22,6.03,7.17,4.07.07-.02.18-.02.2-.07.33-.59,1.02-1.28.9-1.77-.58-2.4-1.28-4.78-2.14-7.09-.22-.6-1.3-1.43-1.73-1.3-1.77.52-3.44,1.36-5.14,2.11-.05.02,0,.27,0,.36Zm-36.6-.2c-.32-.29-.74-.95-1.33-1.18-4.98-1.87-5.1-1.79-6.63,3.36-.04.14-.08.28-.12.42-1.61,5.59-1.25,6.09,4.69,6.67.07,0,.17.05.21.02.52-.35,1.37-.63,1.48-1.09.63-2.54,1.09-5.13,1.71-8.22Zm73.26-156.08c.56-.44,1.01-.69,1.33-1.06.77-.87,1.49-1.8,2.22-2.7,3.91-4.83,3.89-4.8-1.49-8.08-1.04-.64-1.67-.55-2.33.48-1.33,2.09-2.75,4.13-4.09,6.22-.25.39-.56,1.21-.42,1.34,1.53,1.32,3.14,2.54,4.77,3.82Zm-123.69,13.68c-2.86-2.34-5.47-4.47-8.18-6.68-.88,1.05-1.59,1.78-2.16,2.61-2.9,4.2-3.14,3.23,1.01,6.07.48.33.94.68,1.42,1.01,4.56,3.13,3.63,2.6,6.34-.88.48-.62.93-1.27,1.57-2.14Zm155.96,73.39c-.32.31-.96.67-1.17,1.2-.42,1.07-.54,2.26-.91,3.36-.48,1.41-.08,2.16,1.38,2.55,2.04.54,4.03,1.25,6.05,1.85.95.28,2.19.91,2.54-.56.5-2.1.68-4.27.97-6.42,0-.07-.36-.22-.56-.27-2.63-.55-5.27-1.09-8.3-1.72Zm-16.48,51.44c.98-1.19,1.62-2.08,2.37-2.87q2.99-3.18-.31-5.9c-.45-.37-.88-.77-1.33-1.14q-4.03-3.38-7.26.87c-.04.06-.14.11-.14.17.02.69-.23,1.62.12,2.02,1.93,2.18,4.01,4.23,6.55,6.85Zm-144.42-21.22c-.19-.19-.37-.37-.56-.56-.04-.14-.04-.3-.12-.42-1.03-1.57-1.82-3.46-3.24-4.54-.56-.42-2.51.98-3.82,1.55-.2.09-.38.22-.57.32q-5.19,2.86-1.73,7.77c.04.06.09.12.12.18.59,1.1,1.34,1.12,2.32.44,1.98-1.37,3.99-2.69,6.01-4,.48-.31,1.05-.51,1.57-.76Zm-11.54-75.16c.32-.15.99-.24,1.13-.56.71-1.66,1.31-3.37,1.89-5.09.06-.18-.16-.63-.35-.71-2.81-1.18-5.58-3.04-8.47-3.25-2.33-.17-1.82,3.28-2.74,5.02-.25.47.22,1.9.67,2.07,2.5.96,5.1,1.66,7.87,2.52Zm171.93-21.19c-1.3-1.96-2.5-3.84-3.81-5.65-.12-.17-.98,0-1.36.24-2.14,1.37-4.27,2.78-6.34,4.26-.39.28-.84,1.1-.7,1.4.76,1.56,1.64,3.08,2.62,4.51.19.28,1.12.34,1.53.14,2.35-1.16,4.65-2.41,6.94-3.68.39-.22.64-.68,1.12-1.21Zm4.18,8.84c-.9-1.92-1.69-3.56-2.45-5.21-.5-1.09-1.25-1.32-2.29-.76-2.18,1.18-4.41,2.27-6.52,3.56-.45.27-.79,1.32-.63,1.85.4,1.31,1,2.6,1.76,3.74.31.46,1.37.86,1.89.68,2.41-.83,4.75-1.85,7.09-2.87.45-.2.79-.66,1.16-.99Zm-17.85-10.79c1.45-.95,2.72-1.78,3.98-2.62q5.1-3.43,1.16-8.13c-.05-.06-.08-.16-.13-.17-.72-.09-1.64-.47-2.14-.18-1.3.78-2.41,1.87-3.6,2.83q-3.53,2.83-.86,6.41c.46.62,1,1.17,1.6,1.87Zm-94.11-46.86c-2.12.6-3.97,1.05-5.74,1.69-.37.13-.76,1.08-.64,1.53.65,2.54,1.4,5.06,2.27,7.53.16.45,1.07.96,1.57.9,1.43-.19,2.87-.55,4.22-1.08.46-.18.97-1.11.9-1.61-.39-2.59-.92-5.16-1.51-7.72-.11-.48-.71-.85-1.06-1.24Zm119.18,85.13c-.29-6.88-.28-6.83-6.4-5.72-5.9,1.07-4.75.89-4.25,5.95.13,1.31.71,1.84,1.97,1.71,2.39-.25,4.8-.43,7.17-.82.67-.11,1.22-.89,1.52-1.12Zm-3.94-18.77c-.74-2.04-1.32-3.85-2.1-5.57-.15-.34-1.16-.61-1.61-.45-2.46.91-4.91,1.87-7.26,3.03-.45.22-.84,1.61-.58,2.05.9,1.51.23,3.93,2.58,4.58.06.02.14-.02.21-.04,2.51-.78,5.03-1.51,7.51-2.37.49-.17.83-.8,1.24-1.22Zm-40.48-51.86c-.23-.35-.39-.81-.71-1.02-1.48-.94-2.95-1.91-4.54-2.63-.44-.2-1.56.25-1.85.72-1.29,2.11-2.38,4.35-3.58,6.52-.52.94-.44,1.56.57,2.14,5.31,3.04,4.22,3.46,7.44-1.36.69-1.03,1.35-2.08,2.01-3.13.23-.37.4-.77.65-1.25Zm8.02,159.21c-.13-.29-.18-.52-.31-.68-1.77-2.22-3.5-4.47-5.37-6.59-.29-.33-1.38-.35-1.85-.08-4.7,2.76-4.69,2.79-1.64,7.35,3.5,5.24,3.62,5.26,8.35.93.31-.28.55-.63.82-.93Zm-96.5,4.65c-.71-.49-1.36-1.09-2.14-1.45-4.77-2.22-3.6-2.24-5.95,1.78-.73,1.26-1.43,2.53-2.1,3.83-.41.81-1.18,1.83.19,2.36,2.06.8,4.2,1.39,6.31,2.07,1.17-2.74,2.34-5.47,3.68-8.59Zm91.53-14.01c2.07,2.56,3.88,4.91,5.85,7.14.31.35,1.48.41,1.91.11,1.3-.91,2.54-1.98,3.58-3.17.38-.44.48-1.71.13-2.1-1.73-1.96-3.6-3.81-5.52-5.58-.37-.34-1.44-.43-1.81-.15-1.42,1.1-2.68,2.41-4.14,3.76Zm-45.52-165.77c-.24.47-.76,1.08-.86,1.74-.32,2.3-.45,4.62-.73,6.93-.14,1.16.21,1.7,1.38,2,5.1,1.3,5.33,1.25,6.26-3.84,1.11-6.04,2.5-5.54-4.82-6.61-.22-.03-.43-.07-1.23-.22Zm-68.15,30.57c-.34-.5-.58-.95-.9-1.33-1.45-1.81-2.98-3.57-4.37-5.43-.93-1.25-1.61-1.23-2.76-.19-4.33,3.92-4.38,3.9-.3,8.06,4.64,4.72,2.84,3.68,7.57-.07.31-.25.5-.66.76-1.03Zm113.67.02c1.45,1.35,2.64,2.63,4.02,3.67.41.31,1.57.2,1.97-.17,1.9-1.71,3.72-3.52,5.4-5.44.35-.4.3-1.67-.07-2.1-1.03-1.21-2.36-2.16-3.52-3.28-.87-.85-1.52-.58-2.17.24-1.81,2.28-3.63,4.56-5.64,7.08Zm-19.79-23.98c-2.28-.83-4.23-1.62-6.23-2.19-.42-.12-1.39.43-1.55.87-.87,2.47-1.64,4.98-2.28,7.52-.12.47.32,1.42.76,1.65,1.22.63,2.54,1.15,3.88,1.41.56.11,1.62-.36,1.85-.84,1.24-2.62,2.29-5.33,3.57-8.41Zm8.48,178.79c-.07-.29-.07-.45-.14-.57-1.34-2.51-2.66-5.03-4.09-7.49-.19-.33-1.07-.57-1.47-.42-1.43.54-2.82,1.21-4.14,1.97-.35.21-.67,1.06-.53,1.43.98,2.59,2.04,5.16,3.19,7.68.15.33,1.04.63,1.4.49,1.76-.71,3.46-1.56,5.15-2.4.28-.14.46-.5.62-.69Zm8.35-4.9c-.1-.26-.12-.41-.2-.52-1.57-2.35-3.09-4.75-4.81-7-.26-.34-1.64-.22-2.21.15-1.36.88-2.54,2.03-3.78,3.09-.03.03.1.26.16.38,1.23,2.3,2.44,4.63,3.74,6.89.24.41,1.06.94,1.3.81,1.86-.97,3.65-2.07,5.44-3.17.2-.12.26-.47.34-.64Zm-7.97-169.81c-1.4-.68-2.55-1.27-3.72-1.8q-3.42-1.53-4.84,1.86c-.25.6-.54,1.19-.81,1.79q-2.17,4.85,2.79,6.72c.14.05.29.19.4.16.57-.15,1.42-.16,1.64-.54,1.54-2.61,2.96-5.29,4.54-8.19Zm-122.81,149.41c2.61-2.12,4.9-3.93,7.09-5.84.38-.33.68-1.29.47-1.63-.83-1.37-1.79-2.68-2.88-3.84-.31-.32-1.39-.3-1.86-.01-2.06,1.25-4.08,2.58-5.98,4.05-.47.36-.82,1.61-.55,2.05,1.03,1.73,2.32,3.31,3.71,5.22Zm174.4-82.38c-.29-.31-.58-.62-.87-.93-.44-1.7-.76-3.43-1.38-5.06-.18-.47-1.28-.98-1.8-.85-2.48.62-4.92,1.4-7.32,2.26-.42.15-.92.96-.86,1.39.2,1.44.53,2.89,1.04,4.24.18.47,1.07,1.05,1.55.98,2.6-.4,5.17-.97,7.74-1.51.64-.13,1.27-.34,1.9-.52Zm-147.49,93.51c-.25-.29-.45-.57-.69-.82-3.75-3.86-4.34-3.84-7.74.31-3.83,4.69-3.77,4.88,1.43,8.12,1.16.72,1.78.51,2.45-.58,1.23-1.97,2.57-3.88,3.86-5.82.24-.36.43-.75.68-1.21Zm74.07-157.88c.31-.31.91-.68,1.15-1.22.47-1.06.77-2.2,1.1-3.32,1.75-5.89,1.75-5.87-4.39-6.89-1.16-.19-1.82.03-2.05,1.25-.45,2.37-1.03,4.71-1.36,7.09-.08.57.43,1.61.93,1.82,1.33.56,2.8.8,4.61,1.26Zm-66.77,162.59c-.26-.32-.47-.7-.78-.96-3.91-3.25-4.87-3.17-7.59,1.14-3.14,4.99-4.41,3.97,2.04,7.85,1.21.72,1.98.52,2.62-.75.98-1.95,2.06-3.85,3.08-5.78.24-.45.39-.93.62-1.5Zm-20.64-16.1c-.12-.29-.16-.53-.3-.68-1.27-1.28-2.38-2.91-3.92-3.65-.65-.31-2.21,1.24-3.34,1.95-.18.11-.34.27-.51.41q-4.81,3.93-.18,8.18c.85.79,1.51.99,2.38.09,1.72-1.77,3.49-3.49,5.22-5.26.29-.3.45-.71.66-1.04Zm62.4,32.02c0-5.49,0-5.43-4.84-5.81-1.44-.11-2.02.43-2.13,1.75-.2,2.24-.36,4.48-.61,6.72-.18,1.71.57,2.28,2.23,2.35,5.35.25,5.35.29,5.35-5.01Zm-55.88-25.97c-.51-.56-.78-.89-1.09-1.19q-3.69-3.62-7.35,0-4.09,4.05.3,7.83c.11.1.22.19.33.29.86.86,1.65.76,2.39-.16,1.77-2.21,3.54-4.42,5.42-6.77Z"/>
      <path class="cls-1" d="m245.52,250.02c-2.98,0-4.83-1.8-4.83-4.7,0-2.9,2.08-5.02,4.91-5.01,2.72,0,4.79,2.09,4.83,4.87.05,3.01-1.82,4.85-4.91,4.85Zm3.38-4.76c-.06-1.85-1.75-3.34-3.67-3.23-1.67.1-3.03,1.52-2.98,3.12.06,1.84,1.81,3.53,3.52,3.43,1.67-.1,3.18-1.71,3.12-3.32Z"/>
      <path class="cls-1" d="m70.22,65.09c.02,2.86-2.05,5.02-4.88,5.08-2.66.05-4.79-2.08-4.84-4.85-.05-2.85,2.1-5.08,4.87-5.08,2.73,0,4.83,2.1,4.85,4.85Zm-1.58.24c-.01-1.73-1.63-3.39-3.35-3.44-1.72-.05-3.36,1.65-3.3,3.4.06,1.63,1.64,3.1,3.36,3.12,1.86.02,3.3-1.33,3.28-3.08Z"/>
      <path class="cls-1" d="m106.69,267.91c2.84.02,5.01,2.2,4.99,5-.02,2.68-2.19,4.74-4.97,4.73-2.88-.01-4.99-2.13-4.95-4.97.04-2.72,2.17-4.78,4.93-4.76Zm3.03,4.89c0-1.9-1.09-3.11-2.84-3.16-1.92-.05-3.47,1.52-3.41,3.45.05,1.67,1.59,3.1,3.32,3.09,1.72-.01,2.93-1.41,2.93-3.38Z"/>
      <path class="cls-1" d="m204.28,42.56c-2.82.03-5.08-2.17-5.07-4.92.02-2.7,2.15-4.78,4.91-4.81,2.89-.02,5.04,2.07,5.03,4.88-.01,2.69-2.16,4.82-4.88,4.85Zm3.17-5.07c0-1.71-1.45-3.15-3.24-3.19-1.76-.04-3.2,1.53-3.19,3.48,0,1.67,1.39,3.03,3.08,3.04,1.84.02,3.34-1.48,3.34-3.33Z"/>
      <path class="cls-1" d="m106.56,42.56c-2.76-.04-4.82-2.15-4.79-4.9.03-2.84,2.17-4.86,5.09-4.82,2.75.04,4.84,2.16,4.84,4.87,0,2.72-2.31,4.89-5.14,4.84Zm3.36-4.78c.05-1.83-1.44-3.48-3.15-3.49-1.72-.01-3.26,1.42-3.31,3.09-.06,1.81,1.39,3.38,3.19,3.46,1.74.08,3.23-1.31,3.28-3.05Z"/>
      <path class="cls-1" d="m245.59,70.18c-2.91,0-4.9-2.02-4.9-5,0-2.77,2.11-4.94,4.8-4.91,2.89.03,4.94,2.12,4.94,5.03,0,2.76-2.11,4.88-4.83,4.88Zm3.31-5.08c-.02-1.66-1.55-3.2-3.22-3.22-1.71-.03-3.43,1.75-3.45,3.55-.02,1.69,1.51,3.08,3.31,3.02,1.82-.06,3.38-1.61,3.36-3.34Z"/>
      <path class="cls-1" d="m37.65,111.43c-2.89-.05-4.86-2.15-4.76-5.09.09-2.79,2.1-4.66,5-4.65,2.92.01,4.78,2.01,4.73,5.08-.05,2.75-2.13,4.71-4.96,4.66Zm3.44-4.82c.02-1.71-1.77-3.4-3.59-3.4-1.66,0-3.1,1.5-3.13,3.27-.04,1.75,1.48,3.16,3.43,3.18,1.78.02,3.28-1.37,3.29-3.05Z"/>
      <path class="cls-1" d="m70.24,245.35c-.02,2.74-2.1,4.84-4.83,4.87-2.73.04-4.91-2.21-4.91-5.06,0-2.74,2.15-4.9,4.83-4.85,2.83.05,4.93,2.21,4.91,5.04Zm-1.6-.23c0-1.78-1.42-3.15-3.2-3.1-1.89.05-3.5,1.69-3.44,3.5.05,1.51,1.6,3.02,3.14,3.06,1.8.04,3.51-1.64,3.5-3.45Z"/>
      <path class="cls-1" d="m209.14,272.82c-.05,2.8-2.07,4.82-4.85,4.81-2.94,0-5.08-2.06-5.07-4.86,0-2.75,2.32-4.94,5.12-4.84,2.81.1,4.84,2.17,4.79,4.9Zm-1.68.09c-.03-1.82-1.53-3.29-3.37-3.27-1.72.01-3.17,1.52-3.11,3.23.06,1.78,1.49,3.29,3.13,3.31,1.83.02,3.37-1.49,3.35-3.27Z"/>
      <path class="cls-1" d="m278.05,106.6c-.02,2.73-2.15,4.85-4.87,4.84-2.93,0-4.92-2.05-4.88-4.99.04-2.93,1.9-4.77,4.81-4.78,2.95,0,4.96,2,4.94,4.93Zm-4.86,3.06c1.98-.04,3.33-1.41,3.27-3.31-.04-1.68-1.66-3.2-3.29-3.11-1.75.1-3.38,1.77-3.34,3.42.04,1.69,1.55,3.04,3.36,3Z"/>
      <path class="cls-1" d="m268.3,204c-.04-2.86,1.89-4.92,4.67-4.96,2.91-.05,5.01,1.97,5.07,4.86.05,2.75-2,4.93-4.72,5.01-2.85.09-4.97-1.99-5.01-4.91Zm4.8-3.19c-1.81,0-3.29,1.42-3.26,3.12.03,1.66,1.76,3.31,3.47,3.32,1.65,0,3.33-1.79,3.26-3.48-.07-1.63-1.62-2.96-3.47-2.96Z"/>
      <path class="cls-1" d="m42.61,203.92c-.05,3.02-2.04,5.04-4.92,5-2.84-.04-4.9-2.23-4.81-5.13.08-2.75,2.23-4.81,4.97-4.75,2.86.06,4.81,2.05,4.77,4.88Zm-1.55-.16c-.03-1.68-1.55-3-3.38-2.94-1.88.06-3.24,1.38-3.23,3.12.01,1.71,1.53,3.32,3.12,3.32,1.81,0,3.52-1.71,3.49-3.49Z"/>
      <path class="cls-1" d="m150.46,282.36c.1-2.74,2.47-4.92,5.21-4.79,2.65.13,4.86,2.44,4.79,5.01-.06,2.65-2.54,5.05-5.12,4.97-2.64-.08-4.98-2.57-4.88-5.19Zm8.23.13c-.06-1.98-1.46-3.31-3.38-3.21-1.73.09-3.08,1.56-3.08,3.34,0,1.85,1.55,3.31,3.41,3.22,1.75-.08,3.1-1.57,3.05-3.35Z"/>
      <path class="cls-1" d="m155.45,22.96c2.57-.05,5.01,2.41,5.01,5.06,0,2.61-2.21,4.82-4.89,4.88-2.74.06-5.06-2.15-5.12-4.89-.06-2.63,2.29-5,5-5.05Zm-.08,8.32c1.72.05,3.31-1.57,3.31-3.39,0-1.77-1.42-3.24-3.16-3.26-1.83-.03-3.29,1.46-3.31,3.36-.01,1.7,1.47,3.24,3.16,3.3Z"/>
      <path class="cls-1" d="m32.96,155.27c-.01,2.75-2.09,4.81-4.86,4.84-2.86.02-5.02-2.06-5.07-4.9-.05-2.72,2.23-4.88,5.11-4.83,2.72.04,4.83,2.19,4.82,4.9Zm-1.59.03c.04-1.76-1.32-3.12-3.19-3.18-2.01-.07-3.44,1.17-3.53,3.07-.08,1.74,1.28,3.09,3.18,3.16,2.01.07,3.5-1.21,3.54-3.05Z"/>
      <path class="cls-1" d="m282.82,160.11c-2.91-.05-4.94-2.15-4.85-5.03.09-2.89,2.19-4.8,5.17-4.7,2.76.09,4.65,2.17,4.59,5.02-.06,2.8-2.1,4.76-4.91,4.71Zm.13-7.99c-1.85-.01-3.37,1.29-3.45,2.94-.08,1.82,1.39,3.28,3.31,3.29,1.97.02,3.44-1.35,3.4-3.18-.04-1.83-1.34-3.05-3.27-3.06Z"/>
    </g>
  </g>
</svg>