<?xml version="1.0" encoding="UTF-8"?>
<svg id="Layer_2" data-name="Layer 2" xmlns="http://www.w3.org/2000/svg" viewBox="0 0 1187.2 319.91">
  <defs>
    <style>
      .cls-1 {
        stroke-width: 0px;
      }
    </style>
  </defs>
  <g id="Layer_1-2" data-name="Layer 1">
    <g>
      <path class="cls-1" d="m235.88,198.01c-3.03-2.98-7.31-6.34-10.54-10.52-13.69-17.68-14.47-37.09-6.71-57.33,2.85-7.43,7.47-13.78,13.47-19.03,1.5-1.31,3.38-2.61,5.27-2.98,24.47-4.71,46.82.09,66.49,15.62,9.04,7.14,14.76,16.57,17.43,27.81.28,1.16.59,2.31.75,2.93,5.78-12.63,12-25.36,17.46-38.41,5.36-12.81,6.2-26.19,2.81-39.76-.28-1.12-.04-2.36-.03-3.55,1.13.29,2.37.37,3.38.89,12.33,6.29,25.48,10.19,38.83,13.51,17.13,4.27,34.42,7.98,50.83,14.75,2.1.87,4.17,1.82,6.17,2.87,1.79.95,2.62.72,3.32-1.38,4.95-14.93,12.81-28.07,24.17-39.08,12.22-11.85,26.85-18.57,43.59-21.08,10.11-1.51,20.21-3.11,30.25-4.99,4.54-.85,8.95-2.45,13.4-3.79,4.96-1.49,9.2-4.23,12.67-8.02,7.51-8.21,14.99-16.46,22.28-24.87,1.82-2.1,2.72-2.24,4.34.02,7.44,10.36,16.09,19.68,25.9,27.78,3.61,2.98,8.35,5.15,12.92,6.27,10.5,2.58,21.18,4.53,31.86,6.29,13.4,2.22,26.73,4.45,38.41,12.04,18.42,11.96,30.42,28.75,37.32,49.39.16.49.3.99.49,1.47.07.18.25.32.51.63.49-.1,1.12-.11,1.63-.37,15.87-7.88,32.98-11.89,50.04-16.05,15.06-3.67,30.09-7.44,44.12-14.28,1.87-.91,3.76-1.81,6.36-3.06-.24,1.95-.26,3.05-.53,4.08-4.38,17.04-1.37,33.14,6.16,48.66,3.06,6.31,6.39,12.5,9.3,18.88,1.7,3.72,2.82,7.71,4.29,11.81.26-.56.58-1.03.69-1.55,3.82-18.45,15.17-30.82,31.82-38.6,17.22-8.05,35.24-10.83,54.01-6.56,1.99.45,4.06,1.6,5.56,2.99,18.34,17.11,24.1,43.26,14.56,65.76-3.51,8.27-9.29,14.79-16.29,20.31-.95.75-1.89,1.51-2.17,1.74,15.31-1.96,31.27-3.7,47.12-6.14,14.65-2.26,27.86-8.22,39.44-17.61,1.06-.86,2.3-1.48,3.78-2.41.28,1.2.58,1.87.57,2.53-.22,14.54,3.71,28.32,7.48,42.18,3.51,12.92,6.53,25.98,9.52,39.03.82,3.56.77,7.32,1.15,11.26,3-.59,5.68-1.24,8.4-1.64,22.13-3.26,44.01-3.02,64.6,6.89,6.58,3.17,12.68,7.78,18.18,12.65,6.86,6.07,12.74,13.23,19.3,19.64,4.41,4.32,9.28,8.17,13.95,12.22.37.32.82.54,1.24.8-.2.36-.4.71-.59,1.07-1.73-.58-3.8-.73-5.13-1.8-5.87-4.7-11.62-9.56-17.23-14.57-6.69-5.97-12.84-12.61-19.86-18.14-11.97-9.43-26.26-12.98-41.15-14.8-13.79-1.68-27.12,1.63-40.62,3.18-1.54.18-3.09,3.48-2.23,5.28.31.65,2.18,1.04,3.16.82,29.69-6.9,56.57.03,81.15,16.94,7.01,4.82,13.15,10.92,19.46,16.69,3.11,2.84,5.54,6.54,10.55,5.91h-12.85c1.2-.49,1.89-.77,3.19-1.29-2.67-2.23-4.99-4.17-7.25-6.06-2.93,1.79.13,7.74-6.08,7.42.37-2.11.58-4,1.03-5.83.59-2.4-.41-3.03-2.58-2.64-1.88.34-3.77.67-6.04,1.07,1.84,2.49,3.38,4.58,4.93,6.67-.2.36-.4.71-.6,1.07-1.58-.51-3.76-.53-4.66-1.61-13.34-15.86-31.06-23.01-50.93-26.05-9.07-1.39-18.12-1.53-27.05.79-3.41.89-6.65,2.44-9.73,4.33,2.59.23,5.22.23,7.75.73,8.46,1.67,15.41,9.89,15.52,18.2.02,1.36.43,3.34-1.78,3.13-.8-.08-1.94-1.63-2.09-2.64-.7-4.72-2.06-9.01-5.87-12.25-6.23-5.32-15.89-5.17-20.89.71,7.86,4.54,15.67,9.04,23.49,13.55l-.17.76c-3.29,0-6.48.58-9.82-1.16-11.07-5.76-22.11-11.6-33.45-16.79-9.47-4.34-19.67-5.55-30.02-3.82-12.64,2.1-22.28,9.35-30.68,18.52-1.88,2.05-3.57,4.37-7.65,2.64,4.69-4.79,9.11-9.31,13.54-13.83-3.86-4.42-12.78-5.66-17.37-2.12-1.01.78-1.77,2.51-1.79,3.81-.05,3.39.4,6.78.62,10.17.1,1.52-.39,2.93-2.16,2.52-.84-.2-2-1.49-2.04-2.34-1.32-23.13-8.38-44.91-15.3-66.76-2.47-7.8-4.38-15.78-6.75-24.39-.62,4.18-1.36,7.79-1.64,11.44-.73,9.59.9,18.89,3.67,28.06,4.91,16.24,8.65,32.7,8.7,49.79,0,.72.22,1.58-.09,2.13-.46.83-1.3,1.46-1.97,2.17-.76-.73-2.11-1.41-2.19-2.21-.41-4.2-.14-8.49-.78-12.64-1.38-8.95-3.16-17.84-4.79-26.75-.07-.37-.35-.7-.31-.63-5.95,1.17-11.65,2.29-17.52,3.44.04-.2-.1.06-.02.18,4.86,8.01,3.61,16.28.76,24.46-1.38,3.97-3.51,7.68-5.32,11.5-1.06,2.26-2.7,3.3-5.74,2.27.66-1.09,1.27-2.05,1.84-3.05,4.53-7.93,8.83-15.92,8.25-25.5-.35-5.78-4.22-10.71-9.4-11.46.1,1.75.11,3.45.3,5.12,1.42,12.55-2.44,23.62-9.64,33.69-.75,1.04-2.53,1.35-3.83,1.99l-.69-.94c.71-1.28,1.42-2.56,2.5-4.5-9.42,2.83-18.07,6.61-28.49,4.61,9.5-2.81,18.19-5.63,27.03-7.87,3.09-.78,5-1.99,5.89-4.97.64-2.13,1.4-4.21,2.3-6.89-1.53.22-2.42.26-3.26.47-14.22,3.57-28.45,7.12-42.63,10.84-1.36.36-2.63,1.64-3.61,2.78-1.2,1.39-1.8,3.34-3.12,4.56-1.06.99-2.79,1.25-4.23,1.84l-.43-.88c.2-.33.34-.72.61-.98,6.4-6,6.74-13.11,3.69-20.73-1.22-3.05-2.64-6.07-4.32-8.89-1.39-2.34-1.11-3.59,1.35-4.84,5.43-2.75,10.86-5.53,16.1-8.64,8.44-5.01,10.59-10.9,7.53-20.17-2.88-8.73-1.96-7.29-10-5.84-1.82.33-3.65.77-5.4,1.37-8.25,2.83-11.82,7.65-12.07,16.36-.14,4.85-.13,9.7-.09,14.54.02,2.5-.9,3.72-3.56,3.95-4.62.41-9.29.78-13.79,1.81-13.43,3.07-18.83,11.58-16.35,25.18.42,2.3.89,4.58,1.34,6.88-2.32,1.07-3.42.29-3.87-1.72-2.11-9.36-2.59-18.43,4.4-26.31.54-.6.65-1.96.41-2.81-3.7-13.21-7.49-26.39-11.27-39.58-.11-.38-.34-.72-.72-1.51-3.44,2.21-6.1,4.93-8.22,8.17-.3.46-.01,1.39.15,2.07,4.57,19.37,9.17,38.73,13.76,58.09.05.2.1.41.1.61.04,1.28,1.31,2.99-1.05,3.49-2.18.46-3.24-.65-3.61-2.74-.82-4.67-1.54-9.37-2.6-13.99-2.77-12.05-5.71-24.06-8.56-36.1-.5-2.09-.87-4.21-2.05-6.67-1.31,2.32-2.58,4.66-3.93,6.95-2.52,4.26-2.52,8.26-.82,13.13,4.08,11.66,7.31,23.63,10.74,35.51.33,1.13-.29,2.53-.46,3.8-.9-.92-2.27-1.68-2.63-2.78-3.48-10.79-6.79-21.64-10.14-32.47-.27-.87-.49-1.76-.73-2.64-.28-.03-.56-.05-.84-.08-.61,4.14-1.48,8.26-1.76,12.43-.29,4.26-.82,8.53,1.2,12.75,1.84,3.85,2.9,8.07,4.34,12.21-4.6,2.05-4.24-2.22-6-4.03,0,1.09.24,1.98-.06,2.6-.4.83-1.21,2.06-1.87,2.08-5.01.17-10.02.1-15.06-.29,1.22-.29,2.44-.59,3.65-.88-15.82-.93-31.56-4.72-48.2-.44,1.67.63,2.56.96,3.45,1.29.01.13.02.26.04.39-4.53,0-9.07.06-13.6-.08-.54-.02-1.54-1.19-1.49-1.76,2.01-22.13-7.98-39.73-21.23-56.05-11-13.55-24.45-24.51-37.86-35.53-10.29-8.45-20.7-16.77-30.63-25.62-4.89-4.36-8.81-9.79-13.15-14.75-.72-.83-1.31-1.76-2.14-2.89-2.78,3.48-4.99,7.04-7.95,9.8-8.95,8.38-17.99,16.69-27.37,24.58-14.21,11.96-29.1,23.13-41.9,36.68-9.41,9.96-17.65,20.76-23.04,33.48-3.97,9.36-5.94,19.1-5.07,29.28.19,2.19-.39,2.99-2.62,2.93-4.11-.11-8.23-.03-12.43-.46.91-.3,1.83-.6,2.74-.89-15.78-4.74-31.52-.92-47.33-.02.65.19,1.29.42,1.95.57.57.13,1.16.16,1.68.73-5.04,0-10.08.15-15.11-.13-.99-.06-1.88-1.79-3.01-2.96.44-.16.17-.15.1-.02-.85,1.43-1.24,3.9-3.56,2.91-2.43-1.03-.42-2.99-.18-4.5.18-1.11.51-2.25,1.06-3.22,5.18-9.18,3.39-18.75,1.68-28.32-.11-.59-.27-1.18-1.04-1.91-.25.88-.47,1.76-.74,2.63-3.35,10.84-6.66,21.68-10.07,32.5-.89,2.83-1.02,2.78-3.85,2.66.22-1.31.31-2.63.67-3.86,3.44-11.67,6.58-23.44,10.56-34.92,1.66-4.8,1.98-8.87-.52-13.2-1.36-2.36-2.65-4.77-4.27-7.69-2.03,7.7-4.08,14.57-5.64,21.56-2.47,11.06-4.61,22.19-6.91,33.29-.25,1.21-.26,2.66-.96,3.53-.68.84-2.11,1.08-3.2,1.58-.39-.9-1.26-1.9-1.09-2.69.99-4.85,2.25-9.64,3.36-14.46,2.91-12.66,5.8-25.33,8.69-38,.3-1.31.33-2.77.96-3.89,2.39-4.25.51-7.17-2.71-9.83-1.41-1.16-2.73-2.42-4.43-3.93-2.32,7.74-4.53,14.98-6.65,22.25-1.79,6.14-3.56,12.29-5.1,18.49-.31,1.26-.02,3.16.78,4.14,6.51,8.05,5.87,17.01,3.57,26.18-.18.73-1.56,1.16-2.38,1.73-.3-.83-.91-1.68-.84-2.47.36-4.09,1.29-8.17,1.28-12.25-.01-7.26-3.64-12.51-10.21-15.66-6.69-3.21-13.97-3.45-21.17-4.01-.66-.05-1.7.46-2.03,1.02-3.3,5.61-6.5,11.25-6.92,18-.33,5.36,1.52,9.68,5.51,13.17.61.53,1.27,1.02,2.24,1.79-2.69.94-4.48.53-5.97-1.2-.67-.78-1.61-1.5-1.9-2.41-1.58-4.88-5.58-5.81-9.93-6.86-13.15-3.15-26.23-6.64-39.33-9.98-.39-.1-.8-.12-2.22-.33,1.58,3.85,2.81,7.25,4.41,10.46.37.74,1.94.95,3,1.27,9.49,2.85,19,5.66,28.5,8.5.36.11.69.35,1.49.77-10.87,1.63-20.17-2.71-30.31-5.53,1.24,2.07,2.17,3.61,3.18,5.3-2.35,1.07-3.83.35-5.11-1.49-7.68-11-11.42-23.02-9.54-36.51.11-.78.01-1.59.01-3.2-1.8.88-3.39,1.3-4.51,2.26-4.16,3.6-5.5,8.36-4.88,13.68.96,8.3,4.77,15.5,8.98,22.53.51.85,1.07,1.67,1.6,2.5-.18.33-.35.66-.53.99-1.43-.55-3.51-.67-4.19-1.71-5.08-7.78-9-16.15-9.05-25.61-.02-4.27,1.42-8.54,2.18-12.67-4.98-1.06-10.57-2.24-16.54-3.51-.22.63-.64,1.64-.92,2.69-3.27,12.11-5.03,24.42-4.85,36.99.02,1.16-.76,3.07-1.6,3.35-2.47.83-3.32-.83-3.1-3.08.87-8.81,1.23-17.72,2.82-26.4,1.76-9.61,4.55-19.04,7.1-28.5,2.92-10.81,4.14-21.66,1.76-32.72-.2-.96-.54-1.88-1.02-3.54-1.08,4.85-1.77,9-2.94,13.02-4.48,15.34-9.62,30.51-13.51,46-2.68,10.65-3.73,21.7-5.42,32.59-.24,1.56-.31,2.89-2.39,2.79-1.97-.09-2.05-1.46-1.94-2.84.25-3.29.41-6.6.97-9.84.5-2.87-.62-4.54-3.05-5.69-6.1-2.88-11.38-.68-17.47,2.99,5.5,4.8,10.67,9.32,15.84,13.84-3.1,2.1-4.8,1.46-6.49-.25-3.69-3.74-7.26-7.66-11.32-10.96-14.94-12.13-31.62-13.47-49.34-7.28-12.65,4.42-24.31,10.87-35.73,17.73-3.72,2.24-7.44,2.68-11.85,1.48,8.36-4.85,16.72-9.69,25.7-14.91-1.69-1.18-2.87-2.29-4.27-2.94-9.73-4.52-20.79,1.77-22.56,12.73-.31,1.93-.54,5.29-1.35,5.47-2.7.59-5.68.23-8.5-.16-3.02-.41-5.97-1.58-8.99-1.8-1.42-.1-2.9,1.7-4.42,1.81-2.61.19-5.54.37-7.84-.61-2.43-1.03-4.27-3.43-6.58-5.41-.22,1.52-.15,3.02-.72,4.23-.44.95-1.67,1.54-2.55,2.29-.36-.92-1.03-1.84-1.01-2.76.08-3.9.34-7.79.61-11.68.04-.63.49-1.24.75-1.86.73.42,1.62.68,2.15,1.28,2.95,3.28,5.78,6.68,8.73,9.97,1.69,1.88,3.55,2.14,6.1,1.19,5.11-1.92,10.33-1.71,15.33.74,1.08.53,2.16,1.04,3.55,1.72,1.61-14.35,8.78-22.28,23.8-21.56,0-.3-.02-.6-.03-.9-2.58-1.08-5.09-2.39-7.75-3.19-11.7-3.49-23.5-2.64-35.24-.29-18.06,3.63-33.74,11.44-45.54,26.08-.87,1.08-2.94,1.2-4.45,1.76-.23-.3-.45-.61-.68-.91.83-1.32,1.61-2.67,2.49-3.94.87-1.25,1.85-2.43,3.33-4.34-3.26-.45-5.87-.81-9.11-1.27.6,3.54,1.11,6.52,1.62,9.57-2.55,1.1-3.84.34-4.26-2.2-.34-1.99-.79-3.97-1.33-6.66-2.87,2.42-5.24,4.42-8.01,6.76,2.68.74,4.78,1.31,6.88,1.89-.04.18-.07.36-.11.55H7.06l-.08-.52c3.11-.42,6.2-.97,9.33-1.2,2.52-.19,4.33-1.07,6.11-3,19.91-21.52,43.91-35.43,73.53-38.29,9.91-.96,19.81-.06,29.51,2.42,1.05.27,2.13.42,3.57.7-.25-2.06-.23-3.74-.72-5.25-.24-.73-1.38-1.53-2.21-1.65-8.89-1.22-17.78-2.96-26.71-3.31-22.7-.88-43.73,4.11-61.04,19.91-8,7.3-15.65,14.98-23.66,22.28-2.95,2.69-6.38,4.91-9.77,7.05-1.33.84-3.17.88-4.91.67,4.03-3.29,8.28-6.36,12.05-9.93,5.24-4.95,10.47-10,15.12-15.49,16.99-20.02,38.78-29.47,64.74-30.01,11.49-.24,22.92.24,34.12,3.22.38.1.8.06,1.61.1.18-2.5.3-4.91.55-7.31,1.49-14.24,5.54-27.89,9.64-41.53,3.45-11.47,6.7-22.98,7.73-34.98.21-2.46.2-4.94.33-7.41.05-1.08.18-2.16.33-3.92,1.46.9,2.45,1.36,3.25,2.03,15.65,13.21,34.3,18.41,54.19,20.47,11.05,1.14,22.07,2.53,32.23,3.7Zm482.85,29.66c2.68-8.12,5.41-16.21,8-24.36,1.09-3.43,2.03-6.93,2.74-10.46,2.33-11.6-.09-21.82-9.61-29.49-3.99-3.22-8.35-6.11-12.9-8.48-6.94-3.63-14.22-6.62-21.29-10.01-4.9-2.36-9.7-4.94-14.8-7.55-4.19,8.73-11.09,14.83-20.25,19.53,2.04.43,3.37.55,4.59,1,5.02,1.84,10.16,3.44,14.96,5.75,6.94,3.36,11.92,9.07,16.47,15.16,5.55,7.43,10.68,15.24,18.79,20.33.58.36.84,1.21,1.33,1.95-.69.38-1.02.64-1.39.74-.69.19-1.41.39-2.12.42-11.88.55-22.81,4.42-33.49,9.33-8.92,4.1-18.15,7.1-28.17,4.99-3.66-.77-7.23-2.01-11.6-3.25,7.73,6.35,14.85,12.26,22.09,18.01.44.35,1.96-.3,2.77-.82,2.76-1.78,5.19-4.26,8.15-5.5,13.84-5.76,28.17-7.14,42.69-2.99,4.48,1.28,8.63,3.73,13.05,5.7Zm-250.84.41c3.12-1.68,5.72-3.37,8.55-4.55,12.87-5.37,26.05-4.55,39.25-1.47,6.32,1.48,12.18,4.01,16.66,8.96,1.41,1.56,2.32.41,3.36-.43,5.43-4.45,10.87-8.88,16.29-13.34,1.42-1.17,2.8-2.4,4.2-3.6-12.98,5.7-25.44,4.2-37.71-1.48-11.32-5.24-22.89-9.48-35.53-10.08-.94-.04-1.85-.55-3.66-1.13,2.52-2.03,4.64-3.32,6.21-5.09,5.25-5.94,10.56-11.86,15.37-18.16,7.07-9.27,15.87-15.84,27.12-19.02,2.45-.69,4.96-1.15,8.19-1.89-9.26-4.51-16.06-10.73-20.33-19.51-.62.21-1.02.3-1.37.48-6.92,3.46-13.85,6.89-20.73,10.42-7.61,3.91-15.55,7.34-22.67,12.02-13.15,8.65-17.21,19.24-13.34,34.46,2.84,11.17,6.68,22.08,10.16,33.4Zm427.86-4.57c.65,0,.88.07,1.03,0,11.36-6.05,23.42-10.29,35.72-13.93.93-.28,1.81-.95,2.55-1.62,4.05-3.64,8.07-7.32,12.08-11.01,4.99-4.6,10.95-8.53,14.75-13.96,11.89-16.99,10.96-34.82,1.06-52.46-3.12-5.57-6.93-10.75-10.31-16.17-1.13-1.82-2.57-2.4-4.62-2.37-6.09.09-12.19-.02-18.28.03-8.85.07-17.51,1.38-25.76,4.64-17.71,7.01-30.17,18.59-33.81,38.2-1.12,6.02-3.51,11.81-5.2,17.73-.32,1.11-.26,2.42-.07,3.58,1.04,6.2,2.35,12.35,3.23,18.57.69,4.83.89,9.73,1.34,15.07.48-.71.78-.99.9-1.33,2.74-8.31,5.86-16.53,8.06-24.98,2.35-9.06,3.48-18.45,5.77-27.53,3.27-12.96,10.31-23.32,22.71-29.37,8.15-3.97,16.84-5.45,25.85-5.31,14.18.22,12.04-1.18,19.96,11.46,10.02,15.99,8.33,31.03-4.02,45.18-6.52,7.48-14.57,13.08-22.58,18.71-11.02,7.74-21.07,16.55-30.35,26.87Zm-602.51-.98c-1.14-1.27-1.82-2.02-2.5-2.78-9.19-10.15-19.83-18.6-31-26.46-8.97-6.3-17.72-12.89-23.69-22.37-4.88-7.75-7.43-16.06-5.81-25.3,1.62-9.21,6.08-17.03,12.22-23.93.83-.93,2.5-1.49,3.81-1.54,4.74-.18,9.53-.44,14.24-.01,13.9,1.27,25.61,6.74,33.97,18.38,4.98,6.94,7.82,14.72,9.52,22.97,2.64,12.81,4.15,25.88,8.9,38.19,1.27,3.3,2.6,6.57,4.04,10.21.44-.71.63-.87.63-1.03.07-11.4,1.97-22.56,4.44-33.65.22-1-.13-2.2-.46-3.23-1.28-4.12-2.76-8.17-3.98-12.31-1.62-5.53-2.43-11.39-4.72-16.61-6.15-14.05-17.91-21.93-31.84-27.07-13.54-4.99-27.65-4-41.67-3.89-.85,0-2.02.72-2.48,1.46-4.72,7.61-10.28,14.89-13.78,23.04-7.13,16.63-5.89,33.05,5.84,47.42,4.36,5.34,10.43,9.28,15.69,13.9,3.99,3.52,7.48,7.86,11.99,10.45,4.55,2.61,10.17,3.3,15.18,5.22,7,2.69,13.87,5.74,21.48,8.92Zm-132.6-21.47c-1.74,8.04-3.55,15.66-5.01,23.34-2.45,12.95-4.91,25.9-6.87,38.92-.7,4.64.05,9.5.13,14.26.32.08.64.16.96.24,7.64-16.11,20.04-27.72,35.25-36.88-5.05-6.54-12.18-9.77-17.97-14.69,6.83.87,11.84,4.89,17.02,10.09-2.6-7.85-6.42-14.42-5.22-22.15,1.04,1.01,1.6,2.17,2.02,3.37,1.99,5.72,3.83,11.5,5.94,17.18,1.72,4.64,1.21,4.53,6.31,2.21,16.37-7.44,33.44-11.07,51.49-9.29,2.91.29,5.82.58,9.46.94-.78-1.64-1.07-2.75-1.73-3.54-3.41-4.08-7.24-7.98-12.39-9.47-6.19-1.79-12.6-3.3-19-3.75-8.84-.62-17.76.04-26.63-.18-12.13-.3-23.88-2.1-33.75-10.6Zm227.96-64.06c18.11-7.9,35.84-11.07,54.48-9.29-24.37-16.11-53.16-20.05-80.27-30.39,3.17,10.71.13,19.71-4.49,28.31-2.43,4.53-5.52,8.7-8.25,13.08-3.33,5.33-6.92,10.53-9.82,16.08-4.26,8.16-4.5,16.61-.2,24.94.52,1.01,1.53,1.78,2.32,2.65.75-.88,1.66-1.67,2.21-2.66,1.2-2.16,2.09-4.49,3.32-6.63,8.11-14.19,19.86-24.62,33.99-32.56,1.2-.67,2.37-1.4,4.31-2.55-6.96-6.79-13.45-13.13-19.95-19.46,8.11,2.02,12.33,9.05,18.73,14.22-1.63-6.06-3.72-11.59-.42-17.29,1.31,6.97,2.61,13.93,4.04,21.55Zm413.13-4.22c3.28-3.13,6.07-5.8,8.88-8.45,2.75-2.61,5.54-5.17,9.58-5.74-6.42,6.49-13.81,11.94-18.8,19.6.27.34.36.55.52.65.88.53,1.78,1.03,2.68,1.54,16.62,9.36,29.93,21.84,37.7,39.61.4.91,1.38,1.57,2.09,2.34.75-.79,1.57-1.52,2.23-2.38.42-.56.61-1.3.89-1.96,4.32-10.24,1.74-19.63-3.75-28.52-3.46-5.61-7.35-10.96-10.94-16.5-6.9-10.64-12.63-21.62-9.09-35.26-.92.21-1.49.31-2.05.48-9.85,3.09-19.67,6.25-29.54,9.27-13.33,4.07-26.7,8.02-39.17,14.41-3.23,1.66-6.3,3.62-9.45,5.44.09.25.18.51.28.76,18.61-2.17,36.36,1.11,54.3,8.89,1.43-7.51,2.76-14.49,4.09-21.47,3.28,5.76,1.17,11.23-.46,17.29Zm220.68,94.58c-6.37,4.67-12.5,9.15-19.22,14.08,15.9,9.51,28.17,21.19,36.39,36.98.47-6.67,1.27-13.24.3-19.53-1.99-12.92-4.93-25.7-7.48-38.53-1.18-5.93-2.39-11.86-3.56-17.66-3.86,2.09-7.47,4.5-11.42,6.08-7.66,3.07-15.81,3.89-24,4.09-11.35.28-22.73-.02-34.03.8-9.19.67-16.94,5.07-22.68,12.48-.55.71-.55,1.84-.81,2.77.86.1,1.75.39,2.59.28,20.66-2.85,40.31.52,59.09,9.43.89.42,1.83.74,3.45,1.4,3.04-8.53,5.96-16.71,8.88-24.89.27.08.55.16.82.24.9,3.7-.51,7.18-1.57,10.63-1.06,3.44-2.44,6.78-3.85,10.64,10.13-8.15,12.9-9.68,17.11-9.29Zm-349.99-137.92c-4.75,1.41-8.98,3.25-13.38,3.84-7.96,1.07-16.01,1.44-24.03,2-7.77.55-15.12,2.08-21.06,7.69-1.64,1.55-1.92,2.83-.54,4.74,4.65,6.44,9.16,12.98,13.74,19.46.32.46.87.75,1.45,1.23,7.6-6.77,12.25-16.09,20.26-22.21.36.25.71.5,1.07.75-2.78,4.17-5.57,8.35-8.48,12.72,4.9-1.6,9.36-3.06,13.83-4.52.15.38.29.76.44,1.15-1.21.68-2.41,1.38-3.62,2.05-6.6,3.61-13.19,7.25-19.82,10.81-2.15,1.15-2.07,2.3-1.02,4.43,3.45,7,6.66,14.12,9.71,21.31.83,1.95,1.56,2.43,3.35,1.42,3.78-2.12,7.68-4.04,11.34-6.35,9.08-5.74,13.45-14.22,13.97-24.82.59-11.84-1.93-23.89,2.78-35.7Zm-158.04.48c3.95,8.59,2.66,17.84,2.81,26.95.05,2.99-.15,5.99.03,8.97.42,6.86,2.45,13.16,7.12,18.4,5.07,5.69,11.83,8.88,18.41,12.33,1.44.76,2.4.32,2.79-1.23,2-8.12,5.73-15.45,10.24-22.42,1.05-1.62.75-2.57-.85-3.45-6.43-3.5-12.83-7.05-19.24-10.57-1.65-.91-3.32-1.78-4.98-2.66l.49-1.17c4.58,1.51,9.15,3.02,14.4,4.75-3.09-4.66-6.86-8.3-8.53-13.11.41-.3.82-.61,1.23-.91,6.58,7.6,13.15,15.2,20.03,23.15,5.17-7.31,9.75-14.04,14.62-20.55,1.99-2.66,1.39-4.26-.88-6.16-5.84-4.9-12.76-6.52-20.12-6.93-6.08-.34-12.22-.22-18.22-1.08-6.38-.92-12.63-2.77-19.35-4.3Zm203.62,169.19c-.58.83-.86,1.26-1.17,1.67-7.17,9.61-12.14,20.35-16.09,31.58-.38,1.08-.17,2.41-.04,3.61.59,5.62,1.24,11.23,1.87,16.85.12,1.05.24,2.1.33,2.86,7.28-1.27,14.15-2.47,21.23-3.7-.16-10,2.81-19.56,6-29.02,1.27-3.77,3.35-7.28,5.21-10.83.32-.62,1.41-.83,2.15-1.23.05.84.35,1.75.11,2.5-.58,1.87-1.28,3.72-2.15,5.47-4.97,10.01-7.22,20.8-9.32,31.65-.11.55.03,1.15.06,1.72,10.37.32,20.53.64,30.66.95-2.66-23.07-2.28-26.39,4.55-38.98-15.21-2.51-30.63-4.27-43.41-15.09Zm-292.44,15.07c7.35,12.7,7.3,25.82,4.35,39.01,10.28-.32,20.51-.65,31.59-1-2.54-9.12-4.81-17.86-7.44-26.5-1.2-3.93-3.13-7.63-4.64-11.47-.39-1.01-.41-2.16-.6-3.24.26-.12.51-.25.77-.37.6.46,1.42.79,1.77,1.4,7.35,12.41,10.33,26.09,11.53,40.05,7.08,1.23,14.02,2.43,21.04,3.65.1-.42.24-.81.28-1.21.71-6.53,1.42-13.06,2.11-19.6.06-.6.13-1.27-.06-1.82-3.95-11.35-9.01-22.15-16.05-31.96-1.14-1.59-2.13-1.44-3.57-.39-2.17,1.57-4.42,3.05-6.76,4.33-9.43,5.13-19.86,6.76-30.26,8.48-1.37.23-2.73.44-4.05.64Zm272.27-75.72c-2.77-3.13-5.74-6.26-8.46-9.61-3.32-4.08-6.19-8.54-9.66-12.47-9.23-10.47-21.68-14.2-34.96-16-2.08-.28-2.29,1-2.35,2.67-.15,5.02-.33,10.04-.72,15.05-.14,1.74.44,2.38,1.98,2.82,3.18.89,6.26,2.17,9.48,2.89,9.56,2.14,19.17,4.08,28.75,6.13,1.08.23,2.1.67,3.16,1.02-.09.27-.18.54-.26.82-11.88.03-23.43-2.14-34.79-5.82,3.02,3.59,7.23,6.07,8.55,10.93-6.3-4.12-11.03-10.3-18.31-13.52-3.48,9.3-9.97,15.85-18.21,21.01,13.63,10.64,27.74,12.61,43.15,5.85,10.79-4.73,20.94-11.37,32.65-11.77Zm-210.53-.05c10.68.34,18.98,4.79,27.5,8.66,4.41,2,8.87,3.95,13.47,5.45,13.52,4.39,25.28.34,36.06-7.78-3.63-3.22-7.5-6.04-10.57-9.56-3.05-3.5-5.3-7.71-8.23-12.1-5.73,4.69-11.43,9.36-17.13,14.03,1.01-5.23,5.33-7.61,8.37-11.16-11.41,3.68-22.94,5.96-34.94,5.25,1.76-.95,3.6-1.54,5.48-1.86,12-2.08,23.98-4.2,35.52-8.29,2.02-.71,2.42-1.52,2.13-3.55-.55-3.86-1.04-7.78-.97-11.66.11-5.83.32-5.85-5.57-4.89-12.2,2-23.36,6.15-31.76,15.76-6.19,7.08-10.46,15.79-19.36,21.7Zm.71,90.33c2.22-4.39,4.2-8.11,5.95-11.93.41-.9.34-2.3-.05-3.24-2.27-5.51-4.22-11.24-7.18-16.38-10.24-17.73-25.76-29.82-43.63-39.13-18.91-9.85-39.32-15.44-59.87-20.6-15-3.77-29.98-7.61-44.98-11.4-.21-.05-.47.12-.99.26.66.57,1.1.98,1.57,1.35,8.96,7.1,19.22,11.56,30.13,14.7,12.99,3.73,26.15,6.93,38.92,11.31,23.57,8.08,44.55,20.56,61.53,39.11,7.68,8.39,13.68,17.82,16.86,28.85.62,2.14,1.07,4.34,1.74,7.11Zm361.77-102.62c-9.37,2.44-18.07,4.98-26.9,6.95-20.26,4.52-40.46,9.22-59.95,16.52-20.17,7.55-38.55,17.86-53.15,34.07-7.71,8.56-13.39,18.27-16.82,29.27-.33,1.05-.75,2.41-.36,3.29,1.79,4.06,3.86,7.99,5.8,11.94,1.89-5.35,3.31-10.65,5.57-15.56,6.97-15.11,18.48-26.42,31.57-36.25,18.87-14.17,40.33-22.77,62.89-28.99,10.14-2.8,20.33-5.49,30.29-8.83,7.63-2.56,14.48-6.83,21.05-12.4Zm-168.18-104.47c-.98,1.82-1.56,2.73-1.99,3.71-1.64,3.76-3.31,7.51-4.82,11.32-.72,1.82-.2,3.16,1.71,4.3,4.75,2.84,7.32,7.14,7.42,12.77.02,1.09,0,2.18,0,3.47,12.95-5.59,24.61-6.1,33.59,7,.28-1.3.54-2.48.24-3.47-1.56-5.09-2.32-10.74-5.08-15.09-15.38-24.19-37.24-37.65-66.39-38.3-2.53-.06-4.13.59-5.46,2.97-1.44,2.57-3.58,4.76-5.52,7.02-1.35,1.57-2.88,2.98-4.46,4.6,8.18-.66,14.98,1.23,20.16,7.67.67.83,2.58,1.11,3.83.95,8.31-1.03,15.96-4.02,23.23-8.1.75-.42,1.75-.42,3.56-.82Zm-178.58,35.62c-.92-7.67,1.78-13.31,8.26-17.17.66-.39.96-2.36.61-3.29-1.51-4.03-3.34-7.93-5-11.9-.36-.86-.54-1.8-.8-2.7,1.02.19,2.17.13,3.04.59,7.35,3.9,15.03,6.86,23.34,7.83,1.16.14,2.57-.72,3.66-1.44,2.97-1.96,5.58-4.67,8.79-5.98,3.19-1.3,6.94-1.27,10.45-1.82-2.44-2.62-5.86-5.05-7.53-8.37-2.7-5.35-6.63-6.38-11.83-5.58-1.12.17-2.26.2-3.39.32-16.81,1.77-31.32,8.67-43.79,19.88-8.38,7.53-15.57,16.01-18.7,27.14-.85,3.02-.97,6.24-1.43,9.36l.9.13c8.66-13.3,20.41-12.56,33.43-7.02Zm90.68-98.94c1.15,1.08,2.57,2.36,3.95,3.69,5.48,5.29,11.04,10.51,16.4,15.92,2.74,2.76,5.51,5.64,7.58,8.89,3.07,4.83,4.29,10.53,1.34,15.6-2.49,4.28-2.9,7.08.71,10.92,1.73,1.83,1.56,5.46,2.28,8.4.04-.01.47-.07.74-.31,2.4-2.1,4.89-4.13,7.14-6.39,9.51-9.59,9.56-19.28-.02-28.89-4.43-4.45-9.25-8.52-13.82-12.84-7.26-6.86-14.54-13.7-21.62-20.74-2.03-2.02-3.37-4.72-5.25-7.43-5.11,9.93-13.22,16.51-21.02,23.42-7.24,6.43-14.52,12.86-21.18,19.86-6.98,7.33-7,15.93-.52,23.74,3.13,3.77,6.97,6.95,10.48,10.39.27-.19.54-.39.8-.58-1.44-5.8,1.3-9.98,4.58-13.03-1.4-4.36-3.41-8.14-3.7-12.06-.63-8.55,4.79-14.26,10.68-19.58,6.72-6.07,13.27-12.32,20.44-19Zm129.15,207.95c3.28-2.15,6.91-4.48,10.48-6.91.91-.62,1.93-1.42,2.32-2.37,3.79-9.12,8.07-18.1,10.97-27.5,2.91-9.42,1.37-18.78-4.1-27.28-4.7-7.31-11.16-12.9-18.71-16.78-15.96-8.2-32.24-15.76-48.4-23.57-.33-.16-.77-.06-1.47-.1-.44,3.12-.61,6.21-1.37,9.15-.74,2.84.11,3.94,2.83,4.89,15.27,5.35,29.58,12.71,43.06,21.6,6.75,4.45,12.1,10.27,14.52,18.29,1.92,6.34,1.56,12.72-.25,18.92-3.11,10.65-6.6,21.2-9.89,31.67Zm-259.14-.13c.2-.15.4-.3.59-.45-.39-1.03-.83-2.05-1.18-3.09-3-8.99-6.14-17.94-8.92-26.99-1.74-5.66-2.28-11.58-1.1-17.44,1.9-9.4,7.88-16.03,15.6-21.08,13.43-8.79,27.68-16.01,42.81-21.47,1.11-.4,2.92-1.49,2.86-2.13-.35-3.94-1.14-7.83-1.83-12.08-1.37.57-2.3.93-3.22,1.34-5.46,2.45-10.93,4.89-16.38,7.36-13.26,6.02-26.64,11.86-38.24,20.87-12.46,9.67-18.28,22.12-14.91,38.01,2.16,10.2,6.94,19.38,11.59,28.59.22.44.59.88,1,1.15,3.76,2.49,7.55,4.95,11.33,7.42Zm257.65,28.39c.23.29.46.59.69.88,1.73-.16,3.45-.36,5.18-.47,12.42-.78,23.52,3.49,34.3,8.96,1.39.71,2.82,1.33,4.58,2.15.04-11.59,6.82-19.13,13.62-26.47,6.93-7.49,15.31-12.67,25.39-13.34-1.44-4.82-2.7-9.34-4.22-13.77-.19-.56-1.83-1.13-2.59-.93-24.1,6.43-46.49,16.36-65.77,32.49-3.91,3.27-7.46,6.98-11.18,10.48Zm-339.8-28.71c21.55,4.76,34.11,18.71,40.06,39.86,13.28-7.04,27.27-12.88,44.12-10.03-1.3-1.48-1.98-2.32-2.72-3.11-13.57-14.53-30.18-24.58-48.37-32.07-8.37-3.45-17.14-5.94-25.75-8.79-1.14-.38-2.57-1.2-3.21.95-1.32,4.5-2.8,8.95-4.13,13.18Zm201.59-37.9c2.01-2.34,3.75-4.5,5.65-6.5,1.23-1.29,1.13-2.24.23-3.75-1.85-3.08-3.75-6.22-4.93-9.59-4.11-11.73-1.78-22.1,7.22-30.85,1.13-1.09,2.05-1.93,3.6-.46,5.76,5.49,9.43,11.96,9.64,20.07.2,7.5-2.34,14.13-6.41,20.31-.6.91-1.29,2.6-.87,3.19,1.85,2.65,4.08,5.03,6.32,7.68,5.3-5.59,8.79-11.55,10.24-18.59,2.37-11.52-1.01-21.83-7.04-31.47-3.17-5.07-6.63-9.96-9.92-14.95-1.11-1.68-2.09-3.44-3.17-5.22-.59.39-.92.5-1.06.73-4.94,7.61-10.16,15.05-14.71,22.88-5.18,8.92-7.2,18.65-4.88,28.9,1.53,6.75,4.94,12.53,10.1,17.63Zm48.33-150.1c-.1.16-.2.32-.3.48,2.35,2.66,4.57,5.46,7.12,7.92,1.23,1.19,3,2.28,4.65,2.5,16.97,2.21,33.16,6.89,48.12,15.25,19.15,10.71,33.63,25.48,39.76,47.2.15.53.53,1,.92,1.71,1.65-1.1,3.2-1.95,4.51-3.08.53-.46.95-1.72.7-2.28-3.59-7.99-6.6-16.34-11.12-23.78-12.49-20.54-31.04-32.49-54.73-36.81-11.76-2.14-23.4-4.98-35.08-7.56-1.55-.34-3.03-1.03-4.55-1.56Zm-176.41,74.94c.48-1.15.86-1.86,1.08-2.62,5.14-17.39,15.91-30.55,30.67-40.68,16.96-11.64,35.95-17.82,56.18-20.63,1.4-.19,3.15-.34,4.05-1.21,3.18-3.1,6.07-6.52,9.56-10.35-3.35,1.16-5.9,2.33-8.58,2.92-10.78,2.38-21.56,4.82-32.42,6.78-21.2,3.84-38.29,14.07-51.29,31.32-6.71,8.9-9.78,19.5-14.55,29.3-.25.51.07,1.71.53,2.08,1.41,1.12,3.01,1.98,4.77,3.09Zm433,84.82c6.73-20.36,15.55-38.87,37.98-46.83.26,1.09.84,2.18.73,3.2-.55,4.98-.52,10.2-2.11,14.85-4.52,13.19-14.08,22.86-24.12,32.04-.55.5-1.44.62-2.17.91.36.41.73.82,1.09,1.23,8.67-3.98,17.59-7.49,25.18-13.51,3.16-2.5,5.47-5.66,5.88-9.83.29-2.97.33-5.97.61-8.94.86-9.22,1.72-18.44,2.72-27.64.25-2.27,1.01-4.48,1.65-7.21-5.45,3.93-10.19,7.76-15.32,10.95-7.7,4.79-15.68,9.16-23.55,13.68-4.41,2.53-7.71,6-8.64,11.12-1.56,8.59-.9,17.22.06,25.97Zm-589.71.01c.29-.02.58-.05.87-.07.12-6.22.27-12.43.35-18.65.11-8.79-3.14-15.65-11.43-19.55-1.12-.53-2.25-1.06-3.28-1.74-8.1-5.29-16.21-10.57-24.24-15.98-2.06-1.39-3.82-3.22-5.83-4.95-.19.56-.34.77-.3.94,2.94,11.99,3.79,24.19,3.72,36.5-.05,8.1,3.72,13.99,10.86,17.7,6.13,3.19,12.32,6.26,18.5,9.35.78.39,1.65.6,2.49.9-.27.22-.54.43-.81.65-3.47-4.05-6.87-8.17-10.44-12.12-7.37-8.15-13.78-16.82-14.85-28.21-.3-3.15.18-6.38.32-10.03,7.52,2.34,13.22,5.85,17.91,10.98,5.97,6.54,9.54,14.4,12.41,22.62,1.34,3.85,2.51,7.77,3.76,11.65ZM603.86,62.97c4.73,1.27,9.33,2.51,13.97,3.76,4.76-7.21,3.82-16.22-3.06-23.29-4.3-4.42-9.16-8.3-13.79-12.4-2.66-2.35-5.37-4.65-7.74-6.7-3.91,3.43-8.32,7.14-12.54,11.05-3.84,3.56-7.84,7.06-11.11,11.11-4.46,5.54-4.59,11.96-1.8,18.39.34.78,1.67,1.85,2.26,1.7,4.23-1.07,8.4-2.43,12.74-3.74-.02.18.07-.04,0-.21-.14-.38-.32-.76-.53-1.1-2.95-4.67-3.31-9.56-.73-14.4,1.88-3.52,4-6.97,6.45-10.12,4.64-5.97,6.19-6.09,10.89-.16,6.11,7.7,11.41,15.83,4.97,26.04-.03.05.06.19.01.06ZM234.11,240.84c-.01-.09-.02-.19-.03-.28-5.51.68-11.03,1.37-16.54,2.03-2.4.28-3.05,1.46-2.52,3.82,3.56,15.78,6.29,31.68,6.57,47.92.01.82.33,2,.92,2.39,2.64,1.78,6.44-.15,7.07-3.33,3.14-15.95,6.29-31.9,9.53-47.83.9-4.41.84-4.63-3.76-4.72-.41,0-.82,0-1.24,0Zm527.31-48.03c2.55,5.73,2.53,5.69,7.96,3.92,17.66-5.74,35.34-11.45,53-17.19.63-.2,1.19-.6,2.67-1.36-4.42-5.41-8.6-10.44-12.68-15.56-1.84-2.32-3.34-2.02-5.62-.33-9.37,6.92-18.83,13.74-28.45,20.31-5.43,3.7-11.25,6.83-16.89,10.21Zm195.14,48.79c-.02.13-.03.25-.05.38-1.44,0-2.89.05-4.33-.01-2.27-.09-3.09.58-2.57,3.1,3.3,16.04,6.45,32.1,9.63,48.16.89,4.52.87,4.4,5.52,4.63,2.03.1,2.46-.69,2.54-2.44.17-3.91.23-7.85.82-11.7,1.89-12.3,3.94-24.59,6.1-36.85.4-2.28-.35-3.01-2.34-3.26-5.1-.65-10.2-1.33-15.3-2Zm-594.43-62.86c5.5,1.76,10.39,3.31,15.27,4.9,14.21,4.65,28.41,9.34,42.64,13.94.78.25,2.15.13,2.63-.39,1.08-1.18,1.77-2.71,2.77-4.36-1.12-.69-2.05-1.28-3-1.83-3.83-2.24-7.82-4.24-11.46-6.75-10.61-7.31-21.06-14.85-31.63-22.21-.9-.63-2.82-1.21-3.34-.76-5.53,4.85-9.99,10.58-13.88,17.45Zm676.78,105.7c-.37-1.05-.48-1.66-.77-2.15-6.83-11.52-14.77-22.14-25.33-30.55-20.92-16.67-45.02-22.11-71.22-19.82-5.69.5-5.61.66-4.11,6.14.57,2.1,1.5,2.74,3.74,2.4,14.2-2.14,28.22-1.1,41.95,3.08,18.86,5.74,34.79,15.75,45.48,32.69,2.5,3.96,5.53,6.4,10.26,8.21Zm-299.71-153.82c-.05.32-.1.65-.15.97,3.27,1.81,6.37,3.62,10.53,3.39,4.82-.26,9.76-.16,14.5.62,29,4.76,51.21,19.32,64.89,45.79,2.61,5.05,2.5,5.1,7.91,3.55,3.43-.99,3.65-1.37,2.1-4.45-9.82-19.47-24.69-33.57-44.88-42.01-11.87-4.96-24.33-7.17-37.09-7.81-5.93-.29-11.88-.05-17.82-.05ZM150.27,282.47c.23.31.47.62.7.93,2.4-1.57,5.75-2.58,7.05-4.8,11.81-19.99,29.76-31.28,51.66-37.06,12.4-3.27,25-4.14,37.76-2.18,1.19.18,3.25-.18,3.63-.94.97-1.94,1.22-4.24,1.87-6.85-23.01-3.08-44.49-.19-64.52,10.92-16.89,9.37-28.85,23.46-38.15,39.97Zm297.38-151.32c-23.28-1.6-45.78.84-66.35,12.97-15.9,9.37-27.41,22.62-35.08,39.75,1.94.58,3.31,1,4.68,1.39,4.49,1.28,4.47,1.27,6.35-3.02,3.75-8.51,9.14-15.97,15.81-22.33,18.01-17.15,39.44-25.94,64.5-24.97,4.07.16,6.96-1.8,10.08-3.8Zm438.49,33.35c4.48-5.93,10.07-8.77,15.57-11.9,7.69-4.37,15.26-8.99,22.53-14.01,5.37-3.71,10.18-8.25,15.51-12.64-23.63-4.55-47.39,5.61-53.61,38.55Zm47.04,21.54c.38.27.77.54,1.15.8,4.05-4.16,8.45-8.05,12.09-12.55,6.62-8.19,10.05-17.52,7.65-28.22-1.63-7.29-5.67-13.27-10.55-18.79-.45.36-.71.47-.75.62-2.22,9.83-4.78,19.6-6.51,29.52-1.65,9.44,1.47,19.39-3.08,28.61Zm-676.93.09c-2.66-6-3.49-12.33-2.95-18.68.83-9.79-1.25-19.02-4.19-28.19-1.34-4.17-2.57-8.36-4.05-13.18-7.56,9.05-12.04,18.4-10.2,29.86,2.17,13.51,11.29,22.17,21.39,30.18Zm43.61-23.51c-2.64-13.41-8.28-24.8-20.32-32.11-9.13-5.55-19-7.05-29.67-5.31,1.31,1.96,2.85,3.52,4.42,5.05,6.88,6.67,13.65,13.46,22.19,18.1,8,4.35,16.82,7.37,23.38,14.27Zm673.94,137.07c-.17-5.13,1.33-9.59,5.31-12.45,3.05-2.19,4.68-4.97,6.09-8.23,3.81-8.76,7.79-17.44,12-26.82-5.58-2.18-10.98-4.4-16.46-6.4-3.32-1.21-3.78-.63-4.26,2.88-2.13,15.39-4.32,30.77-6.59,46.14-.57,3.87-.65,3.98,3.92,4.87ZM378.85,158.75c2.22,1.45,3.95,2.53,5.64,3.68,13.39,9.09,26.83,18.1,40.08,27.38,2.67,1.87,4.05,1.34,5.72-.83q-7.23-5.27-9.97-14.16c-.26-.83-.92-1.58-1.52-2.26-6.93-7.89-13.87-15.78-20.87-23.61-.57-.63-1.9-1.35-2.45-1.1-5.93,2.66-11.39,6.08-16.63,10.89Zm429.14,0c-5.35-4.69-10.78-8.31-16.84-10.94-.52-.22-1.71.44-2.23,1.01-4.43,4.88-8.93,9.7-13.11,14.79-4.16,5.06-9.75,9.18-10.84,16.41-.26,1.74-1.85,3.45-3.19,4.81-1.55,1.57-3.51,2.74-5.38,4.15,1.67,2.18,3.19,2.65,5.68.89,11.27-7.98,22.66-15.78,34.07-23.57,3.72-2.54,7.6-4.85,11.86-7.55ZM211.96,243.16c-6.68,2.76-12.57,5.12-18.37,7.69-.54.24-.98,1.94-.69,2.62,3.58,8.21,7.4,16.32,10.96,24.53,1.46,3.36,3.15,6.25,6.32,8.42,3.07,2.11,4.46,5.58,5.03,9.27.14.89.25,1.79.37,2.67,3.89-.28,4.12-.66,3.6-4.01-1.79-11.49-3.55-22.98-5.22-34.49-.75-5.16-1.25-10.36-2-16.7Zm646.12-59.84c-7.05,7.61-14.74,12.95-23.52,16.45-8.76,3.49-17.76,6.4-26.57,9.55,2.61,4.48,5.22,8.94,7.82,13.39,12.92-10.96,28.2-14.07,45.07-13.15-2.7-8.47-4.36-16.77-2.79-26.23Zm69.06,37.03c-8.63,3.35-17.33,6.72-25.89,10.04,9.12,11.95,13.59,25.2,9.57,40.03,5,0,10.11,0,15.22,0,1.82,0,1.96-.99,1.61-2.46-.81-3.41-1.57-6.83-2.29-10.25-2.62-12.5-3.28-24.91,1.78-37.05.1-.24-.02-.56,0-.31Zm-648.75,49.63c-4.3-15.35.58-28.53,9.37-40.47-8.6-3.37-17.13-6.7-25.66-10.04.11.41.36,1.15.49,1.91,1.01,5.54,2.43,11.04,2.88,16.62.78,9.56-1.62,18.81-3.81,28.04-.26,1.12-.35,2.28-.48,3.11,5.93.28,11.45.55,17.19.82Zm47.42-60.42c17.03-.91,32.29,2.22,45.09,13.13,2.62-4.53,5.2-8.99,7.94-13.73-18.1-5.41-36.12-10.47-49.77-24.62,1.25,8.73-.67,16.8-3.25,25.22Zm22.78,74.05c0-5.81.07-10.7-.01-15.59-.19-11.18-4.1-16.46-14.93-18.78-9.08-1.94-7.73-3.05-10.81,6.21-2.52,7.58-.4,12.81,6.22,17.31.94.64,1.85,1.32,2.85,1.86,5.3,2.88,10.62,5.72,16.69,8.99Zm542.42-79.54c15.54-13.07,28.96-26.66,31.98-47.81-19.05,10.51-27.12,27.65-31.98,47.81Zm-83.48,34.6c-3.34,1.89-6.23,3.4-8.94,5.19-.52.34-.61,1.85-.4,2.69,3.4,13.16,6.88,26.31,10.36,39.45.17.65.53,1.24.86,2,2.06-.94,3.86-1.97,5.79-2.6,2.19-.71,2.41-1.81,1.9-3.94-2.9-12.23-5.62-24.49-8.39-36.75-.4-1.77-.71-3.55-1.2-6.03Zm-430.15,49.39c.33-.71.62-1.14.74-1.62,3.53-13.44,7.07-26.89,10.53-40.35.17-.66.01-1.86-.42-2.14-2.8-1.78-5.72-3.38-9.12-5.33-.67,3.65-1.08,6.48-1.71,9.27-2.53,11.15-5.16,22.28-7.67,33.43-.23,1.04-.21,2.86.37,3.23,2.23,1.39,4.74,2.33,7.27,3.51Zm-38.45,19.95c0-1.86-.26-3.25.05-4.5.77-3.1-.39-4.29-3.41-5.16-13.09-3.76-26.13-7.71-39.13-11.8-7.19-2.26-7.55-2.05-6.38,5.63.28,1.82.8,2.91,2.81,3.41,9.21,2.31,18.38,4.77,27.54,7.25,6.06,1.63,12.08,3.37,18.52,5.17Zm511.37.58c1.05-.17,1.76-.21,2.42-.39,14.65-3.94,29.3-7.88,43.93-11.91.83-.23,2.03-1.16,2.09-1.84.24-2.82.1-5.68.1-8.92-1.38.36-2.36.55-3.31.86-3.23,1.07-6.42,2.29-9.69,3.26-11.08,3.31-22.19,6.51-33.26,9.84-1.03.31-2.57,1.21-2.64,1.94-.21,2.29.18,4.63.35,7.16Zm-498.25-78.24c-.34,6.2-.63,11.74-.96,17.27-.18,2.98-.68,5.96-.58,8.93.23,6.87.68,13.73,1.16,20.59.1,1.39.4,2.97,1.2,4.02.59.78,2.12,1.01,3.26,1.08.31.02.93-1.42,1.03-2.23,1-8.07,1.82-16.16,2.88-24.23.96-7.33,2.15-14.63,3.31-22.45-3.45-.91-7.17-1.89-11.3-2.99Zm482.33.09c-2.83.74-5.57,1.62-8.38,2.15-2.51.48-3,1.51-2.48,4.04,1.23,5.94,2.14,11.95,2.97,17.96,1.26,9.16,2.34,18.34,3.5,27.49,3.6.39,5.05-.83,5.13-4.64.1-4.63-.13-9.28.05-13.91.1-2.75,1.15-5.5,1.02-8.22-.39-8.1-1.14-16.19-1.8-24.88Zm59.02,30.05c-3.45,1.57-6.8,3.12-10.17,4.63-5.27,2.36-10.68,4.43-15.79,7.08-6.46,3.36-12.69,7.17-18.99,10.84-1.15.67-2.46,1.35-3.15,2.39-.62.92-.48,2.35-.68,3.55,1.07.06,2.27.47,3.17.12,13.46-5.19,26.9-10.46,40.32-15.75,2.75-1.08,7.01-1.7,7.75-3.62.9-2.32-1.21-5.8-2.02-8.77-.02-.09-.14-.15-.44-.47Zm-598.06-.83c-.77,2.67-1.46,5.23-2.24,7.76-.59,1.9.13,2.69,1.95,3.37,15.52,5.85,30.99,11.83,46.51,17.7.79.3,2.43.24,2.61-.14.41-.89.46-2.19.09-3.1-.34-.86-1.3-1.61-2.16-2.12-7.01-4.09-13.88-8.45-21.13-12.07-8.19-4.08-16.72-7.48-25.62-11.4Zm-8.03,14.38c3.92-14.75,7.7-29,11.5-43.29-5.51-1.07-9.69.91-12.31,5.92-4.23,8.08-6.35,16.77-6.04,25.91.16,4.66,2.29,8.45,6.86,11.46Zm577-55.4c-2.4-4.37-5.47-6.35-10.26-6.32-10.63.06-20.56,3.11-29.76,8.19-2.73,1.51-4.74,4.42-6.83,6.9-.7.83-.61,2.32-1.03,4.12,16.46-4.43,32.11-8.64,47.88-12.88Zm37.45,56.16c3.77-2.26,5.89-5.15,6.45-8.82,1.61-10.51-1.14-20.24-6.34-29.24-2.29-3.96-6.22-5.86-11.58-5.09,3.8,14.31,7.56,28.46,11.46,43.15Zm-532.12-43.47c.3-.29.6-.58.9-.87-.94-1.85-1.58-3.97-2.91-5.49-1.65-1.91-3.65-3.76-5.88-4.88-9.1-4.57-18.65-7.76-28.98-7.77-4.45,0-8.06,1.73-10.46,6.3,16.01,4.3,31.67,8.51,47.33,12.72Zm-10.72,51.1c1.88.31,3.59.56,5.29.89,1.97.38,2.86-.35,2.98-2.39.14-2.46.28-4.97.84-7.36,2.63-11.11,5.43-22.18,8.08-33.28.21-.87,0-2.57-.47-2.77-3.18-1.31-6.48-2.31-9.47-3.32-2.44,16.27-4.81,32.01-7.25,48.23Zm461.84-48.29c-2.65.86-5.15,1.79-7.71,2.46-2.71.7-3.12,1.88-2.3,4.64,2.58,8.78,4.92,17.64,6.96,26.55,1.16,5.08,1.53,10.33,2.3,15.79,1.89-.27,3.59-.6,5.31-.72,2.11-.14,2.53-1.21,2.22-3.11-1.45-8.84-2.9-17.67-4.22-26.53-.93-6.18-1.65-12.39-2.54-19.09Zm-528.73,37.79c-.53,2.66-1.04,5.23-1.56,7.8-.38,1.91.39,2.82,2.32,3.17,15.4,2.77,30.18,7.59,44.53,13.71,3.87,1.65,3.31-1.72,4.28-3.33,1.17-1.92.29-2.82-1.68-3.56-15.43-5.77-30.83-11.65-46.24-17.49-.37-.14-.78-.15-1.66-.31Zm554.48,19.68c.43,1.2.73,2.16,1.11,3.1,1.49,3.73,1.46,3.64,5.26,2.22,6.95-2.61,13.85-5.41,20.95-7.57,7.29-2.22,14.79-3.73,22.18-5.64.96-.25,2.57-1.1,2.53-1.55-.28-3.18-.91-6.33-1.39-9.2-8.84,3.25-17.05,6.27-25.26,9.29-8.31,3.06-16.63,6.12-25.38,9.35Zm-58.8-145.82c-5.17-1.5-10.18-2.92-15.18-4.42-2.43-.73-3.7.11-4.77,2.44-2.59,5.6-5.53,11.04-8.25,16.58-.33.68-.53,1.91-.15,2.38,2.16,2.68,4.5,5.2,6.74,7.72,6.97-7.97,14.06-16.08,21.6-24.71Zm-388.89-.09c7.73,8.79,14.82,16.86,21.74,24.72,2.22-2.46,4.5-4.91,6.65-7.46.39-.46.55-1.53.29-2.07-3.01-6.18-6.09-12.33-9.25-18.43-.34-.66-1.46-1.52-1.99-1.39-5.72,1.4-11.4,2.99-17.43,4.62Zm-223.74,118.33c.56.92.74,1.29.99,1.6,4.48,5.49,8.95,10.98,13.46,16.44.41.5,1.14,1.14,1.66,1.09,3.72-.39,7.41-.94,11.22-1.45-4.3-9.51-8.55-18.9-13.09-28.93-4.85,3.83-9.54,7.54-14.24,11.25Zm811.51,18.73c3.66.48,7.29.99,10.93,1.38.58.06,1.43-.31,1.8-.76,4.45-5.4,8.86-10.83,13.17-16.34.47-.6.65-2.23.26-2.57-4.24-3.66-8.63-7.15-12.97-10.69-4.66,10.25-8.98,19.74-13.19,28.99Zm-573.5-12.9c.28-.03.56-.06.83-.09.35-.92.78-1.82,1.04-2.76,1.41-5.19.62-10.23-2.47-14.46-3.87-5.3-8.08-10.43-12.67-15.11-4.08-4.17-9.25-6.99-15.25-7.57-3.46-.34-6.95-.19-10.12,3.28,18.89,6.28,31.41,18.76,38.63,36.71Zm360.19-.23c7.57-17.82,20.15-30.23,38.94-36.48-3.17-3.49-6.66-3.64-10.14-3.26-6.09.66-11.16,3.66-15.52,7.76-5.42,5.1-10.55,10.52-13.71,17.38-2.17,4.73-2.52,9.58.42,14.6Zm-179.81-128.42c-1.83,2.64-3.22,4.79-4.76,6.85-4.08,5.47-4.44,11.37-1.98,17.53,1.41,3.53,3,7,4.61,10.45.35.76,1.25,1.91,1.71,1.83.83-.15,1.85-.94,2.21-1.72,1.93-4.21,3.84-8.43,5.43-12.77,1.48-4.02,1.26-8.2-.77-11.99-1.83-3.4-4.13-6.55-6.45-10.17Zm110.35,83.2c-6.41-1.37-12.54-2.74-18.64-1.91,2.19,13.64,4.3,26.78,6.43,40.03,4.04-12.63,8.04-25.13,12.21-38.12Zm-208.8,38.57c2.21-13.78,4.33-27.03,6.59-41.16-5.48.69-10.83,1.42-16.2,2.03-2.5.29-2.7,1.38-1.91,3.55,2.29,6.29,4.43,12.63,6.5,19,1.73,5.35,3.26,10.76,5.02,16.58Zm-80.92,9.72c5.11,14.59,5.37,28.92,5.31,43.66,4.87-1.93,7.41-4.98,8.31-9.08.66-2.98.88-6.14.69-9.19-.4-6.34-.41-12.83-3.74-18.61-2.14-3.71-5.35-5.78-10.58-6.78Zm358.19.48c-6.42.42-11.08,4.52-12.35,11.78-1.13,6.45-1.51,13.1-1.49,19.66.02,5.67,3.88,10.17,8.67,11.27-.23-14.37.71-28.58,5.17-42.7Zm-52.93-135.98c9.82,5.66,18.85,11.86,25.97,20.94,2.91-4.06,4.11-7.9,3.29-12.15-2.21-11.48-19.52-16.96-29.26-8.79Zm322.96,164.69c1.79-8.14-4.38-16.46-13.2-18.56-7.78-1.85-17.8,2.82-19.54,9.27,11.47.82,22.12,4.57,32.74,9.29Zm-863.22-11.4c-2.89-7.04-13.9-10.8-22.28-7.2-7.29,3.13-12.52,11.96-10.36,16.68,10.87-3.16,21.68-6.3,32.63-9.48Zm288.78-153.59c-.98-.49-1.36-.65-1.71-.87-6.39-3.88-17.29-3.19-23.09,1.47-6.23,5-7.08,14.7-1.44,20.17,7.04-8.58,15.89-14.97,26.24-20.77Zm396.74,105.13c.21.34.47,1.31.91,1.4.69.14,1.66-.12,2.23-.56,3.74-2.9,7.43-5.88,11.08-8.88,2.4-1.97,5.98-3.66,6.72-6.16.77-2.63-1.27-6.06-1.95-9.17-.34-1.55-1.01-2.07-2.58-1.61-3.36.97-6.79,1.72-10.12,2.8-.87.28-1.89,1.34-2.1,2.22-1.35,5.69-2.5,11.44-3.7,17.16-.17.8-.28,1.62-.48,2.8Zm-596.57-82.98c2.27,18.21,13.53,29.59,26.14,40.1-4.8-15.58-10.33-30.68-26.14-40.1Zm399.03,67.15c6.97,12.87,13.51,24.97,20.06,37.07.29-.09.59-.17.88-.26-2.17-12.87-4.33-25.75-6.59-38.6-.1-.56-1.39-1.43-1.93-1.31-4.18.92-8.32,2.05-12.41,3.11Zm-168.63,38.13c.18.03.37.07.55.1,6.74-12.54,13.49-25.09,20.47-38.08-2.73-.84-5.69-1.91-8.74-2.66-5.39-1.32-5.41-1.24-6.04,4.19-.08.71-.24,1.42-.36,2.13-1.96,11.44-3.93,22.88-5.89,34.31Zm-263.38,35.23c1.14-5.31,2.01-10.48,3.38-15.52,3.48-12.81,7.16-25.57,10.82-38.34.63-2.19.8-3.61-2.22-3.96-4.56-.53-4.59-.54-5.21,2.72-3.2,16.77-6.42,33.54-9.88,50.26-.58,2.82.08,4.05,3.11,4.84Zm718.78.8c3.05-.6,3.84-1.79,3.23-4.78-3.42-16.95-6.56-33.96-9.82-50.94-.13-.67-.47-1.87-.7-1.86-2.12.02-4.3.05-6.32.59-.39.1-.5,2.55-.18,3.77,4.14,15.74,8.39,31.46,12.58,47.19.52,1.95.8,3.96,1.21,6.04Zm-532.79-96.16c1.04-2.5.57-3.63-1.83-4.41-18.62-6.07-37.19-12.28-55.8-18.38-.82-.27-2.18-.26-2.71.23-3.16,2.95-2.51,5.52,1.59,6.6,15.76,4.14,31.54,8.2,47.29,12.38,3.85,1.02,7.61,2.37,11.47,3.59Zm345.36-.18c3.8-1.21,7.29-2.5,10.88-3.45,16.14-4.29,32.3-8.48,48.45-12.71,1.45-.38,3.15-.78,1.94-2.79-.99-1.65-.54-5.03-4.26-3.79-18.67,6.22-37.35,12.39-56.02,18.58-.58.19-1.42.31-1.63.72-.39.75-.53,1.71-.48,2.56.02.34.81.64,1.13.87Zm-189.02-103.16c5.16-8.95,9.18-18.85,11.44-29.38-8.57,7.26-17.03,14.41-25.01,21.17,4.15,2.51,8.65,5.23,13.57,8.21Zm20.42-29.28c2.42,10.39,6.17,20.36,11.53,29.19,4.89-2.91,9.48-5.65,13.57-8.09-8.04-6.76-16.47-13.86-25.09-21.11Zm-262.67,154.06c.79,6.86,1.48,13.08,2.26,19.29.09.74.45,1.73,1.01,2.07,3.01,1.82,6.12,3.47,10.05,5.64,0-7.39.05-14.25-.06-21.11-.01-.82-.74-2.11-1.42-2.35-3.76-1.29-7.61-2.31-11.84-3.54Zm516.31,0c-4.14,1.2-7.91,2.22-11.62,3.45-.67.22-1.49,1.32-1.49,2.01,0,7.04.18,14.09.3,21.29,3.53-1.95,6.5-3.52,9.39-5.24.6-.36,1.16-1.23,1.24-1.92.77-6.33,1.42-12.67,2.18-19.59Zm38.43,19.39c-6.45,4.09-12.45,7.86-18.39,11.71-.5.33-.91,1.18-.93,1.81-.1,2.95-.04,5.91-.04,8.93.14,0,.49.1.73-.01,6.7-3.21,13.4-6.4,20.05-9.72.59-.3,1.18-1.52,1.05-2.17-.64-3.32-1.52-6.6-2.47-10.54Zm-416.43-111.16c9.28-4.18,18.43-8.29,27.74-12.49-6.81-5.83-18.6-5.83-24.9-.3-3.08,2.7-5.57,8.68-2.84,12.79Zm239.71-.03c2.03-3.99,1.25-8.39-1.92-11.91-5.67-6.32-19.26-6.7-25.65-.46,9.28,4.16,18.43,8.27,27.57,12.37Zm-393.95,133.75c-.36-2.01-.88-3.09-.67-4,1.68-7.26-3.67-9.64-8.45-12.52-3.58-2.16-7.07-4.48-10.88-6.91-.46,1.8-.83,3.18-1.16,4.57-1.66,7.16-1.71,7.26,4.74,10.7,5.15,2.75,10.45,5.21,16.41,8.16Zm447.1,3.18c.16-.5.31-1.01.47-1.51-6.76-2.73-13.38-5.97-20.34-8.05-6.35-1.89-13.07-2.6-19.66-3.66-1.23-.2-2.59.43-3.89.68,0,.38,0,.75,0,1.13,12.88,9.84,28.33,9.9,43.4,11.41Zm-346.11-.9c8.37,1.36,30.5-2.52,37.45-6.38,2.17-1.2,4.04-2.93,6.05-4.42-.19-.44-.38-.88-.57-1.32-15.74-1.4-29.33,5.4-42.93,12.11Zm-99.26-28.1c.35-.17.71-.35,1.06-.52-.97-3.94-2.62-7.86-2.76-11.83-.27-7.39-3.77-11.13-10.9-11.93-.2-.02-.39-.13-.58-.22-1.53-.71-2.26-.14-2.6,1.44-.5,2.31-1.03,4.63-1.75,6.88-.57,1.78-.08,2.77,1.45,3.82,3.22,2.21,6.28,4.65,9.38,7.04,2.26,1.74,4.47,3.54,6.7,5.32Zm419.95-27.04c6.33-2.79,11.86-5.24,17.41-7.65,3.3-1.44,4.2-3.3,3.32-6.8-1.11-4.45-4.51-6.61-8.22-8.62-2.02-1.09-2.73-.63-3.54,1.44-2.4,6.21-5.07,12.32-7.63,18.47-.34.82-.69,1.63-1.34,3.17Zm-295.6-.27c-3.35-8.04-6.57-15.76-9.92-23.81-1.81.98-3.69,1.81-5.37,2.93-3.27,2.17-5.45,5.14-5.11,9.23.1,1.25.92,3.03,1.91,3.51,6.02,2.86,12.18,5.41,18.49,8.15Zm-25.35-74.36c3.53,7.01,6.59,13.16,9.76,19.25.27.52,1.37,1.02,1.93.89,2.07-.48,4.08-1.23,6.44-1.97-4.01-6.69-3.71-13.26.34-20.47-6.34.79-11.87,1.48-18.46,2.3Zm328.88,18.23c1.86.59,3.56.98,5.14,1.66,1.84.8,2.78.26,3.61-1.48,1.94-4.09,4.09-8.08,6.07-12.15.92-1.89,1.63-3.89,2.65-6.34-6.13-.74-11.65-1.4-17.39-2.09q3.21,11.95-.08,20.41Zm251.97,127c2.43,1.77,4.39,3.19,6.53,4.75,4.67-6.97,11.37-9.58,20.05-9.98-4.07-4.57-7.62-8.56-11.52-12.94-5.25,6.34-10.03,12.11-15.05,18.18Zm-812.58-1.15c-4.78-5.66-9.38-11.14-14.05-16.55-.31-.36-1.57-.51-1.84-.23-3.41,3.59-6.71,7.27-10.67,11.61,9,.33,15.44,3.48,20.18,10.02,2.14-1.63,3.99-3.04,6.38-4.85Zm403.2-206.55c-.15.03-.29.07-.44.1-3.07,6.81-6.04,13.66-9.25,20.4-2.47,5.18-2.62,5.14,1.81,8.7,2.58,2.07,5.25,4.03,7.87,6.03v-35.24Zm3.9,35.34c3.59-2.82,6.78-5.55,10.2-7.94,1.95-1.36,1.7-2.44.83-4.31-3.29-7.07-6.35-14.25-9.5-21.38-.33-.74-.64-1.48-.96-2.22-.19.07-.38.14-.57.21v35.65Zm-383.82,188.55c1.73-6.87-.99-12.69-6.49-15.1-6.35-2.79-15.22-.53-19.18,5.27,9.41,1.03,17.76,4.45,25.66,9.84Zm223.72-114.52c-1.21-8.47-.45-16.67,3.44-24.57-8.56.84-14.69,6.22-14.95,12.71-.21,5.18,5.13,10.87,11.51,11.86Zm312.77-24.57c3.85,8.03,4.81,16.14,3.46,24.61,6.99-1.26,11.52-6.48,11.24-12.38-.3-6.36-6.1-11.37-14.69-12.23Zm255,129.8c-4.67-6-13.74-7.81-20.35-4.12-4.63,2.59-6.84,8.7-4.97,13.85,4.03-2.01,7.93-4.32,12.11-5.93,4.2-1.62,8.66-2.53,13.21-3.81Zm-437.11-118.1c-6.2-2.36-11.97-4.56-18.23-6.95-.32,7.87.68,14.64,4.8,21.35,4.68-5.01,8.91-9.56,13.43-14.4Zm73.19-7.02c-6.46,2.51-12.15,4.72-18.16,7.05,4.56,4.95,8.78,9.53,13.31,14.44,4.05-6.7,5.16-13.57,4.85-21.5Zm-320.31,86.38c3.91-5.98,3.79-6.74-1.21-10.44-.83-.61-1.62-1.27-2.44-1.9-4.2-3.23-8.41-6.45-12.97-9.95-.69,2.9-1.41,5.36-1.78,7.88-.12.81.45,2.1,1.13,2.58,5.63,3.98,11.35,7.81,17.27,11.84Zm15.78-7.65c-1.05-7.35-1.97-13.82-2.94-20.29-.07-.44-.48-1.05-.86-1.18-2.94-1-5.91-1.91-8.81-2.82-.32.82-.48,1.03-.45,1.2,1.34,6.65,2.67,13.29,4.1,19.92.14.65.86,1.5,1.47,1.67,2.15.58,4.36.9,7.49,1.5Zm552.55-13.49c-.84.31-1.17.35-1.4.52-5.84,4.36-11.68,8.71-17.46,13.14-.5.39-.99,1.42-.83,1.94.64,2.01,1.54,3.95,2.34,5.89.57-.11.91-.08,1.15-.23,5.67-3.71,11.35-7.41,16.95-11.23.59-.4,1.07-1.59.95-2.31-.39-2.51-1.07-4.97-1.71-7.73Zm-34.58,13.23c2.31-.35,4.09-.71,5.89-.88,2-.18,2.67-1.2,2.99-3.14.75-4.56,1.82-9.06,2.75-13.59.4-1.96.77-3.93,1.26-6.47-2.73.75-4.85,1.42-7.02,1.9-2.29.51-3.49,1.63-3.64,4.15-.15,2.55-.96,5.04-1.28,7.59-.41,3.31-.62,6.65-.96,10.44Zm30.27-64.18c-3.25,11.92-6.51,23.76-12.49,34.92,4.64-1.06,9.01-2.42,13.3-4.01.48-.18.69-1.74.61-2.62-.4-4.4-1.15-8.78-1.36-13.19-.25-5.02-.06-10.06-.06-15.09Zm32.3,19.04c-6.54,2.99-14,6.73-21.72,9.82-7.83,3.13-7.2,1.32-5.54,9.81.39,1.97.88,3.93,1.24,5.51,9.17-8.86,18.01-17.4,26.02-25.13Zm-317.07-84.24c-.19.31-.39.63-.58.94,3.5,5.69,6.99,11.38,10.71,17.43,3.95-4.66,7.44-8.77,11.37-13.39-7.61-1.76-14.56-3.37-21.5-4.98Zm-8.73.84c-.21-.28-.41-.56-.62-.84-6.94,1.61-13.89,3.23-21.5,5,4.01,4.7,7.54,8.84,11.4,13.36,3.8-6.21,7.26-11.87,10.72-17.52Zm91.65,140.71c-.24.24-.47.48-.71.72.02-.19.13-.42.05-.56-5.19-9.49-10.37-18.98-15.65-28.43-.25-.45-1.57-.85-1.97-.6-2.44,1.56-4.76,3.31-6.13,4.3,8.39,8.44,16.4,16.5,24.41,24.56Zm-380.86-33.01c.41-1.81.66-4.09,1.45-6.16,1.57-4.13-1.08-6.81-4.51-8.51-7.09-3.53-14.32-6.78-21.5-10.13-.75-.35-1.52-.64-1.64-.68,8.44,8.22,17.25,16.79,26.2,25.49Zm230.16,8.52c-1.35-1-3.53-2.66-5.77-4.23-1.4-.98-2.18-.2-2.89,1.08-3.64,6.58-7.38,13.1-11.02,19.68-1.54,2.78-2.91,5.65-4.36,8.49-.17-.25-.33-.51-.5-.76,8.1-8.01,16.2-16.02,24.53-24.25Zm46.31-95.42c-7.81,1.57-14.91,2.96-21.95,4.6.06.31.13.62.19.94,4.91,3.76,9.82,7.53,14.78,11.34,2.27-5.5,4.46-10.78,6.97-16.88Zm55.36,5.57c.02-.34.04-.69.06-1.03-7.07-1.46-14.13-2.93-21.82-4.52,2.57,6.17,4.78,11.5,7.01,16.85,5.05-3.87,9.9-7.58,14.75-11.29Zm-327.7,39.59c-.3,6.79-.7,15.19-1.02,23.6-.03.75.33,1.57.68,2.27,2.54,5.11,7.76,5.68,11.81,7.45-4-11.62-7.99-23.21-11.47-33.32Zm277.86,8.1c-.41-.34-.82-.69-1.22-1.03l-25.32,2.46c-.15.27-.31.53-.46.8,4.28,3.39,8.57,6.78,12.69,10.04,5.02-4.31,9.67-8.29,14.31-12.27Zm23.04-1.1c4.6,4.71,8.89,9.1,13.23,13.54,4.68-3.73,9.98-5.99,12.93-11-8.7-.84-17.02-1.65-26.16-2.54Zm-2.17-121.71c4.93,6.59,10.73,11.64,17.87,15.65.54-2.85,1.21-5.72.41-8.1-1.98-5.87-11.49-9.82-18.28-7.55Zm-36.46,15.89c6.43-4.36,12.39-9.12,16.93-15.62-4.59-2.45-11.71-.42-16.14,4.3-2.93,3.11-3.32,7.3-.78,11.33Zm63.02,105.53c.11-.34.22-.69.33-1.03-3.62-4.2-7.19-8.43-10.91-12.54-.36-.4-2.08-.31-2.38.11-2.53,3.56-4.87,7.25-7.6,11.42,6.95.69,13.76,1.37,20.56,2.05Zm-72.62-1.02l.4,1.06c6.73-.7,13.46-1.4,20.37-2.11-2.84-4.34-5.13-7.96-7.58-11.46-.29-.42-1.88-.58-2.18-.25-3.74,4.19-7.36,8.49-11.01,12.76Zm-211.81-112.93c1.05,4.13,1.99,7.9,2.96,11.65.12.47.32,1.15.67,1.31,3.68,1.67,7.39,3.26,12.07,5.29-.7-4.1-1.16-7.2-1.8-10.27-.15-.7-.77-1.53-1.41-1.86-4.1-2.1-8.26-4.07-12.49-6.12Zm686.12,122.77c3.67-2.67,6.64-4.78,9.53-6.99.41-.31.68-1.09.66-1.64-.14-4.23-.37-8.46-.56-12.43-3.19,2.65-6.42,5.32-9.61,8.04-.5.43-1.12,1.15-1.08,1.69.23,3.44.62,6.86,1.06,11.33Zm-873.13-.99c.35-4.1.63-7.06.84-10.03.06-.78.24-1.95-.18-2.32-3.39-2.99-6.91-5.84-10.34-8.69-.2,3.61-.48,7.09-.56,10.58-.03,1.16.04,2.81.75,3.42,2.78,2.36,5.84,4.4,9.47,7.04Zm683.4-121.75c-3.51,1.72-6.71,3.34-9.95,4.88-4.16,1.98-6.26,7.81-4.21,12.69,3.37-1.45,6.77-2.86,10.1-4.4.54-.25,1.01-1.05,1.18-1.68.98-3.65,1.85-7.33,2.88-11.49Zm-372.46,153.97c6.09,6.55,11.71,12.6,17.27,18.58-2.03-6.91-4.05-13.9-6.19-20.85-.2-.66-1.36-1.66-1.72-1.53-3.12,1.12-6.17,2.47-9.35,3.8Zm231.31,18.71c5.74-6.19,11.36-12.24,17.34-18.69-3.56-1.52-6.88-2.93-10.34-4.4-2.46,8.12-4.72,15.58-6.99,23.09Zm-125.41-113.2c-3.18-4.24-5.86-7.81-9.01-12-3.24,5.23-6.11,9.88-8.99,14.53.21.33.43.65.64.98,5.56-1.12,11.12-2.24,17.36-3.5Zm54.19,3.49c.24-.31.47-.62.71-.93-2.93-4.67-5.85-9.35-9.11-14.55-3.17,4.26-5.83,7.83-8.9,11.96,6.22,1.26,11.76,2.39,17.3,3.51Zm-63.59,16.93c-4.41-3.45-8.18-6.39-12.61-9.85-1.69,5.62-3.18,10.61-4.68,15.6.29.16.58.33.87.49,5.24-1.99,10.48-3.98,16.42-6.24Zm55.71.04c5.89,2.22,11.05,4.17,16.21,6.11.32-.19.64-.37.96-.56-1.49-4.95-2.97-9.89-4.66-15.5-4.49,3.57-8.18,6.5-12.51,9.94Zm-70.17,8.82c.08.31.17.63.25.94,5.6,1.85,11.19,3.7,17.2,5.68v-13.4c-5.95,2.31-11.7,4.55-17.45,6.78Zm67.19,6.65c6.22-2.08,11.79-3.94,17.36-5.8.03-.28.06-.57.09-.85-5.8-2.23-11.61-4.47-17.82-6.86.15,2.88.3,4.91.36,6.94.05,2.03.01,4.05.01,6.57Zm155.62-61.68c3.77-1.26,6.43-2.04,8.97-3.08.65-.27,1.32-1.35,1.37-2.09.16-2.85.06-5.72.06-9.03-3.15.86-6.03,1.55-8.82,2.5-.67.23-1.47,1.27-1.51,1.98-.17,2.93-.07,5.88-.07,9.72ZM138.45,230.19c-.73,2.75-1.5,5.38-2.09,8.04-.12.53.24,1.54.68,1.77,3.15,1.63,6.37,3.12,10.01,4.87.62-3.08,1.22-5.64,1.58-8.24.08-.59-.51-1.58-1.07-1.89-2.86-1.55-5.82-2.94-9.1-4.56Zm911.92,1.28c-3.01,1.48-5.97,2.87-8.85,4.4-.51.27-1.09,1.14-1.02,1.66.36,2.68.91,5.33,1.41,8.02,10.63-2.87,12.1-5.27,8.88-13.6-.03-.09-.13-.15-.41-.47Zm-10.44,3.03c3.32-2.09,6.12-3.78,8.82-5.62.46-.31.82-1.31.69-1.86-.63-2.67-1.44-5.29-2.3-8.32-2.99,1.67-5.6,3.04-8.1,4.6-.53.33-1,1.39-.9,2.02.43,2.83,1.08,5.62,1.81,9.17ZM402.4,95.43c0,3.36-.06,6.32.05,9.27.02.57.53,1.45,1.03,1.63,2.75,1.04,5.57,1.9,9.07,3.06,0-4.03.76-7.73-.33-10.76-.53-1.48-4.49-1.75-6.91-2.53-.77-.25-1.57-.37-2.91-.67Zm-260.38,122.18c-.9,3.12-1.67,5.65-2.34,8.22-.13.52-.07,1.46.25,1.67,2.93,1.94,5.94,3.77,9.33,5.88.68-3.45,1.31-6.15,1.69-8.88.1-.72-.34-1.9-.92-2.28-2.4-1.55-4.95-2.88-8.01-4.6Zm246.4-125.82c.2,3.25.29,5.89.57,8.5.06.58.65,1.4,1.19,1.6,3.04,1.13,6.14,2.1,10.05,3.4-.39-3.81-.67-6.83-1.05-9.82-.05-.41-.56-.97-.96-1.09-3.12-.88-6.26-1.67-9.8-2.59Zm409.8.04c-3.4.87-6.38,1.59-9.33,2.42-.51.14-1.19.74-1.25,1.2-.42,3-.69,6.02-1.1,9.92,4.16-1.48,7.86-2.05,10.49-4.04,1.34-1.02.76-4.57,1.04-6.98.07-.61.08-1.22.16-2.52Zm-27.02,7.14c-3.29,1.1-5.88,1.93-8.44,2.86-.39.14-.88.72-.89,1.1-.07,3.24-.04,6.48-.04,10.43,3.32-1.05,5.83-1.79,8.29-2.68.46-.17,1.01-.89,1.02-1.37.09-3.23.05-6.46.05-10.35Zm56.46,15.65c.79,0,1.11.07,1.39-.01,2.36-.73,4.73-1.42,7.05-2.26,4.87-1.75,4.8-1.77,3.39-6.92-.44-1.61-1.12-1.88-2.65-1.45-2.66.75-5.42,1.19-8.07,1.97-.8.23-1.99,1.18-1.97,1.77.06,2.3.54,4.59.86,6.89Zm-468.56.5c.29-2.86.58-5.25.71-7.65.02-.45-.54-1.25-.95-1.35-3.66-.83-7.34-1.54-11.22-2.33-.42,1.97-.91,3.75-1.12,5.56-.07.61.43,1.7.92,1.88,3.65,1.33,7.36,2.48,11.67,3.89Zm-179.5,91.64c.71-3.85,1.34-7.15,1.88-10.46.09-.53-.1-1.52-.4-1.62-2.12-.75-4.27-1.58-6.47-1.74-.5-.04-1.24,2.44-1.77,3.8-.6,1.53-1.23,3.07-1.58,4.67-.15.71.13,2.03.61,2.26,2.37,1.13,4.87,1.99,7.73,3.1Zm811.67,3.55c1.14,0,2.27.26,3.16-.08.69-.27,1.58-1.33,1.53-1.98-.18-2.55-.55-5.12-1.19-7.6-.2-.78-1.46-1.78-2.29-1.82-7.05-.42-7.65.35-6.01,7.11.07.3.2.6.22.9.14,3.07,1.75,4.18,4.58,3.48Zm18.4-2.5c2.77-1.09,5.24-1.99,7.63-3.06.47-.21,1.01-1.21.88-1.66-.92-3.19-2-6.33-3.08-9.65-2.13.62-4.07.99-5.8,1.8-.74.35-1.57,1.67-1.48,2.45.4,3.22,1.14,6.4,1.85,10.13Zm-156.62-41.25c2.35-.71,4.64-1.26,6.8-2.14.76-.31,1.78-1.47,1.7-2.12-.4-3.07-1.14-6.1-1.84-9.53-3.1,1.36-5.56,2.35-7.92,3.54-.53.27-1.13,1.29-1.01,1.82.62,2.77,1.45,5.49,2.27,8.43Zm104.17,41.11c0-.91.01-1.43,0-1.94-.11-3.4-.33-3.6-3.61-2.66-2.07.59-4.09,1.35-6.14,2-1.92.61-2.45,1.77-1.96,3.76,1.48,6.03.68,5.68,6.35,3.9.49-.15.98-.36,1.48-.4,3.14-.29,5.15-1.42,3.87-4.66Zm96.62,35.61c-3.61,1.7-6.6,3.03-9.5,4.55-.68.36-1.49,1.43-1.41,2.08.26,2.36.87,4.67,1.36,7.08,3.57-1.69,6.65-3.08,9.65-4.64.57-.3,1.19-1.27,1.13-1.87-.22-2.21-.72-4.4-1.23-7.21Zm-205.78-113.37c-1.21-2.49-2.05-4.47-3.12-6.32-.31-.54-1.39-1.16-1.87-1.01-3.56,1.17-7.05,2.53-10.95,3.98,1.27,2.12,2.23,3.93,3.41,5.57.37.51,1.43.97,2.02.82,3.36-.86,6.66-1.91,10.52-3.05ZM193.02,208.76c8.02,1.57,8.54,1.25,10.3-6.14.12-.5.18-1.02.34-1.51.54-1.65-.06-2.92-1.73-2.74-2.51.26-5.35-2.35-7.53.78-.05.08-.05.2-.06.3-.43,3.04-.86,6.08-1.32,9.31Zm-48.17,47.07c.53-2.37,1.09-4.43,1.39-6.53.1-.67-.26-1.82-.77-2.09-3.19-1.72-6.49-3.26-10.2-5.08-.52,2.93-.98,5.21-1.29,7.51-.06.47.3,1.29.69,1.48,3.2,1.56,6.46,3.01,10.18,4.71Zm182.7-102.81c-4.24,8.19-3.21,11.33,4.03,12.86.77.16,2.52-.64,2.51-.92-.17-2.97,3.65-5.96.55-8.67-1.83-1.6-4.58-2.16-7.08-3.26Zm27.08-26.45c-3.97-1.45-7.5-2.79-11.08-3.98-.44-.15-1.44.33-1.68.78-1.06,1.97-1.93,4.04-3.11,6.57,3.81,1.12,7.31,2.19,10.84,3.13.41.11,1.19-.37,1.48-.8,1.19-1.76,2.26-3.6,3.54-5.7Zm60.92-27.6c0,3.8-.06,6.94.05,10.07.02.58.58,1.46,1.09,1.65,2.45.91,4.97,1.64,7.56,2.46.22-3.73.45-6.95.57-10.18.01-.38-.44-1-.81-1.14-2.56-.93-5.16-1.77-8.46-2.87Zm-183.25,102.1c-.2,3.32-.41,5.75-.45,8.19,0,.46.54,1.22.97,1.35,3.12.89,6.28,1.65,9.7,2.52.46-2.26.99-4.14,1.17-6.06.07-.76-.41-2.08-.98-2.31-3.27-1.32-6.64-2.39-10.41-3.7Zm-80.39,19.15c.81-3.15,1.53-5.79,2.14-8.46.09-.39-.17-1.09-.5-1.32-2.56-1.81-5.17-3.53-8.29-5.63-.83,3.38-1.55,6.03-2.1,8.72-.11.54.25,1.49.7,1.78,2.47,1.62,5.03,3.09,8.05,4.91Zm885.38,1.02c3.15-1.87,5.71-3.35,8.22-4.91.35-.22.69-.91.61-1.28-.63-2.85-1.37-5.68-2.24-9.18-3.13,2.17-5.67,3.87-8.13,5.68-.38.28-.64,1.12-.53,1.6.55,2.48,1.24,4.93,2.07,8.1Zm-236.46-120.86c9.6-1.45,12.42-4.65,10.8-12.27-3.04.85-6.08,1.63-9.06,2.61-.59.19-1.24,1.15-1.31,1.8-.26,2.52-.3,5.07-.43,7.85Zm-414.96-.22c-.17-2.89-.27-5.53-.52-8.16-.05-.48-.62-1.16-1.08-1.3-3.01-.93-6.06-1.73-9.09-2.58-1.74,7.66,1.45,11.29,10.7,12.04Zm598.18,110.14c-.4-2.73-.85-5.03-1.06-7.36-.2-2.29-1.19-3.13-3.56-3.1-6.76.09-6.76,0-5.7,6.59.11.71.01,1.53.34,2.11.4.69,1.12,1.63,1.76,1.68,2.63.19,5.28.08,8.22.08Zm-125.34-59.76c-1.24-2.7-2.18-5.07-3.42-7.27-.34-.6-1.77-1.2-2.36-.96-2.63,1.06-5.13,2.42-7.94,3.8,1.26,2.41,2.28,4.63,3.56,6.68.34.54,1.59.98,2.21.79,2.52-.8,4.95-1.86,7.95-3.03Zm-510.13-14.47c-3.56-1.38-6.67-2.65-9.84-3.76-.47-.17-1.49.23-1.77.67-1.29,2.05-2.41,4.2-3.71,6.53,3.27,1.3,6.09,2.49,8.97,3.51.52.19,1.56-.04,1.86-.45,1.52-2.01,2.88-4.15,4.47-6.5Zm621.84,64.38c-3.38.44-6.86.17-9.63,1.45-2.85,1.31.04,4.35-.32,6.63-.1.67.87,1.52,1.39,2.26.06.09.39,0,.59,0q8-.02,7.96-7.83c0-.51,0-1.02,0-2.51Zm-751.93,3.49c-.04,6.02-.98,4.88,7.35,5.79,2.88.31,4.21-1.37,3.46-6.87-.62-4.59-5.28-2.31-8.1-2.93-3.92-.87-2.23,2.53-2.72,4.01Zm619.62-67.84c1.6,2.33,2.82,4.33,4.29,6.14.43.52,1.67.85,2.34.64,2.8-.91,5.53-2.06,8.63-3.26-1.22-2.32-2.27-4.51-3.54-6.56-.29-.47-1.46-.85-2.01-.66-3.08,1.06-6.1,2.3-9.7,3.7Zm-510.08,14.4c3.01,1.19,5.53,2.28,8.13,3.14.54.18,1.69-.23,1.99-.72,1.31-2.14,2.4-4.41,3.66-6.8-2.94-1.42-5.48-2.73-8.1-3.84-.51-.22-1.75.14-1.99.58-1.3,2.39-2.39,4.89-3.68,7.63Zm99.48-47.48c-.3,3.56-.64,6.3-.7,9.05-.02.75.57,1.91,1.2,2.21,2.1,1,4.35,1.7,6.95,2.66.76-2.97,1.51-5.51,2-8.09.11-.59-.44-1.69-.98-1.97-2.53-1.3-5.16-2.39-8.47-3.87Zm628.04,151.22c-2.44,1.1-4.51,1.99-6.54,2.95-4.55,2.14-4.94,2.95-3.18,7.7.25.69,1.69,1.55,2.34,1.38,9.45-2.4,8.8-.98,7.71-10.13-.06-.5-.17-.99-.33-1.9Zm-296.35-151.19c-3.27,1.46-5.91,2.55-8.45,3.83-.55.28-1.16,1.32-1.05,1.86.56,2.65,1.36,5.25,2.15,8.11,2.47-.87,4.54-1.48,6.49-2.35.7-.31,1.6-1.27,1.59-1.91-.06-2.93-.41-5.85-.73-9.54ZM133.71,253.22c-.32,1.41-.65,2.38-.75,3.37-.67,6.32-.64,6.34,5.5,8.05,4.6,1.28,4.62,1.28,5.4-3.51.24-1.46.93-3.07-1.17-3.94-2.84-1.18-5.64-2.49-8.98-3.97Zm71.43-44.02c2.68,0,4.82.14,6.93-.06,1.06-.1,2.82-.67,2.95-1.3.56-2.64.64-5.39.85-8.1,0-.11-.5-.34-.78-.37-2.24-.22-4.49-.54-6.74-.53-.61,0-1.6.96-1.75,1.63-.6,2.68-.93,5.41-1.46,8.72Zm420.88-121.42c6.65,6.05,14.01,3.2,21.59,3.14-4.67-6.09-14.39-7.35-21.59-3.14Zm-65.27-.16c-8.59-4.08-18.77-2.46-21.03,3.34,7.15-.06,14.6,2.9,21.03-3.34Zm185.39,21.44c-2.54,1.6-5.16,3.16-7.66,4.9-.48.33-.84,1.5-.63,2.05.82,2.15,1.9,4.2,2.87,6.26q9.39-4.3,6.17-12.52c-.03-.09-.15-.14-.75-.7Zm-300.12,13.37c.99-2.25,1.99-4.24,2.73-6.32.21-.58-.06-1.76-.52-2.08-2.55-1.77-5.23-3.36-8.14-5.19-.96,2.83-1.82,5.02-2.39,7.28-.17.67.22,1.92.76,2.25,2.33,1.43,4.81,2.62,7.57,4.07Zm-86.19-19.23c.49-2.73,1.28-5.46-1.03-6.88-2.98-1.84-6.44-2.91-9.99-4.44-.26,2.82-.61,5.05-.57,7.28.01.74.88,1.95,1.57,2.12,3.17.78,6.42,1.26,10.03,1.92Zm667.31,85.11c-1.21.42-1.79.57-2.33.81-6.86,3.08-6.91,3.11-4.34,10.1.4,1.08,2.07,2.78,2.35,2.64,1.94-1,5.08-.97,5.11-4.04.03-3.03-.48-6.06-.8-9.51Zm-189.08-96.45c-2.87,1.2-5.22,2.19-7.57,3.18-4.35,1.82-4.85,2.97-3.29,8.16,3.26-.63,6.58-1.2,9.86-1.98.57-.14,1.34-1.09,1.35-1.68.04-2.34-.18-4.69-.34-7.68Zm-222.53,25.55l.59-.64c-2.25-3.49-4.5-6.97-6.94-10.76-3.59,2.53-6.9,4.88-11.02,7.78,6.44,1.34,11.91,2.48,17.38,3.62Zm-252.93-33.58c.24,3.85.38,7.01.68,10.16.05.54.71,1.34,1.21,1.46,2.54.6,5.13,1.02,7.99,1.55-.41-3.36-.72-6.2-1.15-9.02-.08-.51-.6-1.16-1.07-1.35-2.45-.98-4.95-1.83-7.66-2.8Zm-219.83,193.17c0-2.71.08-5.05-.05-7.39-.04-.68-.59-1.77-1.11-1.91-2.73-.71-5.53-1.17-8.29-1.72-1.63,7.73-.08,9.98,7.09,10.78.7.08,1.41.14,2.35.23Zm19.64-89.73c-2.11,12-1.91,11.32,5.27,13.94,1.05-2.86,2.17-5.7,3.08-8.61.16-.52-.37-1.65-.88-1.92-2.35-1.21-4.8-2.22-7.46-3.41Zm883.83,90.8c2.43-.28,4.74-.48,7.02-.86.73-.12,1.88-.61,1.98-1.1.57-2.89.89-5.84,1.36-9.21-3.62.71-6.34,1.18-9.01,1.82-.53.13-1.26.87-1.29,1.36-.13,2.52-.06,5.05-.06,8Zm-4.34-83.29c-3.78,2.31-7.08,4.33-10.68,6.54.88,2.41,1.8,4.94,2.82,7.73,3.09-2.02,5.77-3.71,8.35-5.53.44-.31.73-1.23.66-1.81-.27-2.21-.71-4.4-1.15-6.93Zm-886.76,13.2c.91-2.42,1.8-4.56,2.48-6.77.15-.49-.21-1.49-.64-1.76-3.1-1.91-6.29-3.7-9.61-5.62-.43,2.21-.92,4.3-1.19,6.42-.09.69.15,1.78.64,2.14,2.55,1.86,5.23,3.55,8.31,5.59Zm433.44-94.17c-4.12-2.89-7.5-5.26-11.13-7.8-2.4,3.79-4.59,7.28-7.31,11.58,6.51-1.33,11.99-2.46,18.44-3.78Zm225.65-16.85c2.94-.52,5.44-.92,7.92-1.46.48-.1,1.19-.7,1.23-1.13.32-3.38.5-6.78.74-10.5-2.58.9-4.93,1.61-7.17,2.58-.69.3-1.39,1.24-1.53,1.99-.5,2.6-.75,5.25-1.18,8.51Zm-213.91-51.99c-1.39,1.24-2.73,2.33-3.95,3.55-1.82,1.82-3.51,2.16-5.51.18-1.41-1.39-3.09-2.51-4.62-3.71-1.94,1.86-2.03,3.27-.16,4.88,1.94,1.67,3.72,3.55,5.47,5.42,1.18,1.25,2.12,1.29,3.32.02,1.76-1.86,3.51-3.79,5.53-5.35,2.08-1.61,2.25-2.97-.08-4.96Zm406.33,163.91c-.83-4.45-1.53-8.21-2.34-12.56-2.39.83-4.62,1.61-6.86,2.38.75,3.48,1.07,7.17,2.55,10.31.39.82,4.37-.04,6.64-.13Zm-823.95-1.3c1.59.31,3.27.87,4.95.85.8,0,2.08-.96,2.3-1.73.86-3.03,1.38-6.15,2.09-9.54-1.97-.47-3.73-1.09-5.52-1.2-.67-.04-1.88.97-2.05,1.69-.72,3.07-1.14,6.2-1.77,9.94Zm645.74-89.72c.51,1.42.82,2.96,1.62,4.18.45.69,1.84,1.33,2.6,1.14,2.99-.72,5.93-1.68,8.8-2.79.65-.25,1.4-1.52,1.3-2.2-.24-1.56-.98-3.04-1.51-4.55-4.29,1.41-8.25,2.72-12.79,4.22Zm-482.97-4.2c-.36.97-.6,1.84-.99,2.65-1.31,2.71-.46,4.12,2.47,4.75,2.29.49,4.53,1.32,6.73,2.16,1.58.61,2.6.27,3.15-1.3.5-1.41.92-2.84,1.33-4.15-4.33-1.4-8.3-2.69-12.7-4.12Zm167.36-10.5c-5.61,1.79-8.35,9.75-5.61,15.35,2.12-.98,5.2-.95,5.52-3.98.39-3.64.09-7.35.09-11.37Zm160.89-.07c0,3.38-.18,6.34.04,9.26.32,4.23,1.27,5.06,5.85,5.89,2.23-6.21-.09-13.02-5.89-15.15Zm-221.35,26.92c2.2-2.48,4.19-4.74,6.49-7.34-2.28-2.01-4.37-3.84-6.46-5.68-4.48,5.22-4.49,7.07-.04,13.02Zm589.87,156.51c8.28,3.01,12.66.7,11.78-6.2-7.01-.65-9.08.44-11.78,6.2Zm-307.99-169.58c-2.04,1.87-4.09,3.73-6.35,5.8,2.35,2.6,4.39,4.87,6.56,7.27,4.06-6.32,4.02-8.4-.2-13.07ZM147.05,285.79c-1.78-3.74-3.56-6.62-8.11-6.67-4.11-.04-4.75.3-3.41,4.18.46,1.34,1.68,3.36,2.63,3.4,2.9.13,5.83-.54,8.89-.92Zm717.29-74.9c.35-.03.7-.06,1.05-.1-.83-9.65-1.67-19.31-2.5-28.96-.33.03-.66.06-1,.09-2.56,9.98-.27,19.49,2.44,28.97Zm33.02,15.97c.14.31.28.62.42.93,10.24-2.74,20.51-5.42,28.97-12.33-.14-.33-.28-.65-.42-.98-9.66,4.13-19.32,8.25-28.97,12.38Zm-633.89-13.02c-.17.41-.34.81-.52,1.22,8.35,6.37,18.19,9.22,28.16,11.77.13-.31.26-.62.39-.93-9.35-4.02-18.69-8.03-28.04-12.05Zm57.85-3.2c.32.05.64.09.96.14,3.05-9.25,4.54-18.65,2.68-28.34-.41-.04-.82-.07-1.22-.11-.81,9.44-1.61,18.88-2.42,28.32ZM593.33,35.9c-1,1.12-1.62,1.79-2.2,2.48-4,4.75-4.08,3.42.94,8.17.49.46,1.91.47,2.57.1,1.68-.95,3.17-2.24,4.91-3.52-2.53-2.94-4.24-4.93-6.22-7.23Zm-121.62,51.68c.16.29.32.58.48.86,2.95,0,5.91,0,8.86,0,1.72,0,2.19-.91,1.6-2.41-.95-2.45-1.95-4.89-3.16-7.88-2.8,3.39-5.29,6.41-7.79,9.43ZM97.13,279.24c-5.09.47-9.21.84-13.31,1.22,2.56,2.79,4.83,5.26,7.23,7.88,1.97-2.95,3.76-5.63,6.08-9.1ZM707.22,78.27c-1.28,3.16-2.35,5.47-3.1,7.88-.18.58.68,2.11,1.13,2.14,3.12.19,6.25.1,10.39.1-3.06-3.67-5.53-6.64-8.43-10.12Zm390.57,211.03c2.59-2.58,4.98-4.96,7.69-7.66-4.48-.44-8.67-.85-13.59-1.33,2.29,3.49,4.07,6.2,5.89,8.99ZM253.67,221.55c1.12-4.47-2.63-12.55-7.01-14.31-.36,1.91-.9,3.78-1,5.68-.05.9.48,2.09,1.15,2.72,2.22,2.1,4.63,4.01,6.87,5.91Zm607.97-55.29c-3.37,1.4-6.82,1.78-8.15,3.66-1.8,2.54-1.97,6.23-3,10,5.26-3.45,9.73-6.69,11.15-13.66Zm73.38,56.39c2.87-2.31,5.33-4.27,7.76-6.28.44-.36,1.07-.97,1.02-1.38-.32-2.35-.83-4.68-1.38-7.56-5.19,4.16-6.87,9.26-7.4,15.22Zm-599.21-43.66c-.79-3.16-.75-6.64-2.44-8.74-1.6-1.99-5-2.52-7.83-3.79.03,4.95,5.05,10.86,10.26,12.54Zm148.42-105.08c.05.42.1.84.15,1.26,3.29.36,6.59.72,9.88,1.09-.1-2.59-.2-5.18-.33-7.76,0-.13-.29-.24-.83-.66-2.88,1.97-5.87,4.03-8.87,6.08Zm628.13,209.26c-.21.26-.42.51-.64.77,1.09,2.82,2.18,5.65,3.5,9.05,2.94-1.91,5.42-3.52,7.89-5.13-.06-.34-.13-.68-.19-1.02-3.52-1.22-7.04-2.45-10.57-3.67Zm-410-208.18c.04-.35.09-.71.13-1.06-3.05-2.08-6.1-4.16-9.87-6.74-.29,3.67-.5,6.32-.75,9.55,3.97-.66,7.23-1.2,10.49-1.74ZM77.15,283.1c-.27-.33-.54-.66-.8-1-3.47,1.21-6.95,2.41-10.42,3.62l-.08.97c2.53,1.56,5.06,3.11,8.01,4.93,1.27-3.28,2.28-5.9,3.29-8.53Zm185.44-10.05c6.31,3.4,12.95,3.51,19.73,2.16-6.37-2.56-12.93-3.48-19.73-2.16Zm542.16-61.17c.06,6.9,3.33,12.23,8.49,17.39-1.27-7.04-3.68-12.77-8.49-17.39Zm-422.69-.58c-5.09,5.34-7.32,11.06-8.21,17.4,4.46-4.66,8.35-9.58,8.21-17.4Zm545.19,62.65c-6.82-1.48-17.63-.05-20.81,2.47,6.88.88,13.67,1.1,20.81-2.47ZM531.2,56.31c-1.18,2.94-2.11,5.23-3.18,7.89,4.19-.27,7.77-.49,11.35-.72.08-.25.16-.5.24-.75-2.64-2.02-5.28-4.03-8.41-6.43Zm127.59,7.85c-.99-2.32-1.69-4.23-2.64-6-.25-.46-1.54-.92-1.88-.69-2.55,1.75-4.97,3.68-8.07,6.04,4.64.24,8.28.43,12.59.66Zm-5.93-10.27c-3.98-1.03-7.23-1.87-10.81-2.8.91,3.18,1.65,5.77,2.55,8.91,2.8-2.08,5.2-3.86,8.25-6.12Zm-108.16-2.81c-3.63.95-6.85,1.78-10.88,2.83,3.13,2.29,5.55,4.06,8.21,6.01.94-3.11,1.7-5.64,2.67-8.84Zm144.73,16.81c-3.58,1.09-6.49,1.97-10.26,3.12,3.65,2.07,6.36,3.61,9.51,5.4.26-2.94.47-5.39.75-8.52Zm435.64,222.31c-3.01,1.78-5.39,3.18-8.18,4.83,3.56,1.55,6.54,2.85,10.23,4.46-.75-3.39-1.33-6.03-2.05-9.29ZM506.05,71.76c.09-.34.17-.69.26-1.03-2.77-.88-5.55-1.76-9.01-2.85.26,3.29.45,5.81.67,8.65,3.01-1.77,5.54-3.27,8.08-4.77ZM63.94,288.9c-.71,3.38-1.26,5.98-1.96,9.35,3.74-1.66,6.6-2.92,10.07-4.46-2.87-1.73-5.18-3.13-8.11-4.89Zm-4,.77c-.22-.17-.44-.35-.66-.52-2.78,1.76-5.56,3.53-8.82,5.6,2.72,1.44,4.83,2.56,7.32,3.89.8-3.29,1.48-6.13,2.17-8.96Zm1069.94.74c-.25.22-.5.44-.75.66.66,2.83,1.32,5.66,2.07,8.85,2.49-1.43,4.54-2.6,7.12-4.08-3.2-2.05-5.82-3.74-8.45-5.43ZM603.73,52.34c-7,5.18-7.64,7.57-3.11,11.23,2.3-3.28,3.62-6.71,3.11-11.23Zm116.99,70.97c2.73-2.86,5-5.25,7.64-8.02-3.15-.65-5.65-1.16-8.41-1.73.28,3.53.5,6.34.77,9.75Zm-254-9.75c-2.88.62-5.36,1.15-8.35,1.79,3.15,2.65,5.67,4.77,7.81,6.57.13-2.04.32-4.89.54-8.37Zm42.72-52.98c-3.48,1.38-6.5,2.58-9.51,3.78l.11.88c3.07.84,6.14,1.68,9.39,2.57v-7.23Zm577.75,220.88c-.11-.28-.21-.56-.32-.84-3.27.2-6.55.39-10.67.64,2.32,2.54,3.99,4.38,5.89,6.47,1.92-2.36,3.51-4.32,5.11-6.27ZM677.26,60.57v7.33c3.28-.94,6.41-1.83,9.54-2.73-.03-.3-.05-.6-.08-.89-3-1.17-5.99-2.35-9.46-3.71Zm-91.7,3.28c4.61-5.08,3.36-8.85-3.48-11.31,1.29,4.2,2.39,7.75,3.48,11.31Zm469.9,230.04c3.59-1.54,6.56-2.81,9.95-4.27-2.2-1.89-4.09-3.51-6.21-5.32-1.28,3.28-2.39,6.12-3.74,9.59Zm-921.86-1.07c-1.47-3.7-2.61-6.55-3.87-9.72-2.18,1.98-3.96,3.6-5.99,5.44,3.31,1.44,6.12,2.65,9.86,4.27ZM718.07,92.51l-1.09-.05c-1.06,2.2-2.12,4.4-3.44,7.14,3.16.46,5.64.82,9.13,1.33-1.84-3.36-3.22-5.89-4.6-8.42Zm-253.96,8.34c3.46-.48,5.97-.84,9.18-1.28-1.49-2.9-2.64-5.14-4.15-8.08-1.83,3.41-3.21,5.97-5.03,9.37ZM107.06,286.7c1.94-2.26,3.48-4.06,5.66-6.59h-11.07c1.96,2.38,3.47,4.22,5.41,6.59Zm1045.05,20.19c-3.12-2.59-5.66-4.69-8.78-7.28.31,3.66.54,6.36.8,9.42,2.57-.69,4.86-1.3,7.98-2.14Zm-105.2-7.7c1.64-3.19,2.94-5.73,4.46-8.7-2.99-.45-5.36-.81-8.05-1.21,1.2,3.31,2.24,6.2,3.59,9.92ZM525.32,62.72c.62-2.57,1.09-4.49,1.74-7.16-3.93,1.05-7.15,1.91-10.37,2.77.02.25.04.51.06.76,2.69,1.14,5.39,2.28,8.58,3.63Zm144.4-3.55c-.02-.32-.04-.64-.07-.95-3.11-.82-6.21-1.65-9.96-2.64.66,2.77,1.14,4.79,1.71,7.19,2.95-1.28,5.63-2.44,8.31-3.6Zm61.53,70.89c-1.43-1.51-2.51-2.91-3.86-3.94-.55-.42-2.09-.42-2.5.02-1.72,1.83-3.19,3.9-5.12,6.34,4.12-.87,7.51-1.58,11.48-2.42ZM137.62,289.33c1.67,3.2,3.01,5.77,4.59,8.8,1.2-3.61,2.14-6.46,3.27-9.85-2.65.36-4.82.65-7.85,1.05Zm-100.67,16.36c3.16.84,5.38,1.42,7.92,2.09.23-3.17.42-5.64.6-8.1-.28-.14-.57-.28-.85-.42-2.33,1.95-4.65,3.89-7.67,6.42Zm428.71-173.55c.16-.22.32-.44.48-.66-1.78-2.23-3.56-4.46-5.5-6.91-1.92,2.06-3.44,3.69-5.14,5.53,3.83.77,7,1.41,10.17,2.04Zm26.84-51.66c-3.42-.84-6.1-1.51-9.45-2.33.82,2.95,1.45,5.25,2.27,8.21,2.58-2.12,4.59-3.76,7.18-5.88ZM49.66,297.75v8.64c2.76-1.96,4.96-3.52,7.69-5.46-2.79-1.15-5-2.07-7.69-3.18ZM694.35,80.45c2.58,2.25,4.59,4,7.06,6.15.79-3.14,1.39-5.55,2.12-8.43-3.23.8-5.79,1.44-9.18,2.28ZM78.66,291.59c3.31-.84,5.96-1.52,8.61-2.2.04-.33.08-.66.12-.99-1.98-1.56-3.96-3.12-6.28-4.94-.88,2.92-1.55,5.14-2.45,8.12Zm1022.2-1.18c3.58.86,6.2,1.49,9.42,2.26-.85-2.92-1.51-5.21-2.37-8.18-2.38,2-4.35,3.65-7.05,5.92ZM520.68,65.98c.08-.29.16-.58.24-.87-2.46-1.23-4.92-2.46-7.84-3.93-.31,2.77-.54,4.89-.84,7.58,3.28-1.08,5.86-1.93,8.44-2.78Zm152.97-4.92c-3.05,1.64-5.44,2.93-8.57,4.62,3.64,1.17,6.28,2.01,9.34,2.99-.27-2.68-.48-4.75-.76-7.61Zm465.64,237.95c-2.68,1.08-4.95,1.99-7.73,3.11,2.79,1.93,5.06,3.51,7.73,5.36v-8.47Zm-427.68-201.1c1.11-2.47,1.98-4.42,3.18-7.12-3.21.37-5.53.63-8.42.96,1.96,2.3,3.39,3.98,5.24,6.15Zm-231.12-6.28c-3.12-.24-5.45-.42-8.45-.64,1.18,2.65,2.01,4.54,3.06,6.92,1.89-2.21,3.34-3.89,5.39-6.27Zm-21.5,20.48c.23.29.45.58.68.87,1.91-.94,4.32-1.5,5.51-3.01.52-.67-1.42-3.27-2.25-5-.31.07-.61.13-.92.2-1.01,2.31-2.01,4.62-3.02,6.93ZM118.31,280.84c-.22.35-.43.7-.65,1.05,1.32,1.43,2.54,3.89,3.97,4.01,1.51.13,3.2-1.97,4.82-3.1-.08-.32-.15-.63-.23-.95-2.64-.34-5.27-.67-7.91-1.01ZM724.17,104.21c-1.38,2.62-2.3,4.38-3.43,6.53,2.43.77,4.48,1.43,7.4,2.35-1.44-3.24-2.5-5.61-3.96-8.89ZM104.39,287.09c-1.99-2.24-3.37-3.8-5.16-5.82-1.28,2.38-2.24,4.15-3.62,6.71,3.32-.34,5.62-.57,8.78-.9Zm967.63-5.29c-3.7.48-6.51.84-9.33,1.2-.03.27-.06.54-.09.82,1.58,1.24,3.16,2.47,5.02,3.93,1.4-1.9,2.63-3.56,4.39-5.95Zm12.87,5.67c.08.28.16.55.25.83,2.46.21,4.91.42,8.21.7-1.39-2.58-2.32-4.29-3.3-6.12-1.99,1.77-3.57,3.18-5.16,4.59ZM471.73,102.83c-2.32.32-3.96.55-6.21.87.97,2.08,1.73,3.7,2.84,6.08,1.3-2.69,2.2-4.53,3.36-6.95Zm246.33,6.12c.28-.02.57-.05.85-.07.65-1.63,1.31-3.27,2.1-5.25-2.13-.27-3.79-.49-6.09-.78,1.24,2.42,2.19,4.26,3.14,6.11Zm360.26,179.15c-1.72-1.6-3.21-3.73-3.9-3.5-1.58.53-2.77,2.22-4.12,3.44.17.26.35.53.52.79,2.16-.21,4.33-.42,7.5-.74Zm-960.04-.29c.16-.33.31-.66.47-.98-1.4-1.21-2.66-2.73-4.28-3.43-.49-.21-1.96,1.86-3.58,3.47,3.09.39,5.24.67,7.39.94Z"/>
      <path class="cls-1" d="m664.66,310.01c0,2.57.2,4.74-.09,6.85-.12.89-1.27,1.64-1.95,2.45-.55-.82-1.53-1.61-1.59-2.47-.28-3.69,0-7.44-.44-11.11-1.58-13.16-8.03-24.15-16-34.35-12.07-15.45-26.03-29.01-41.69-40.82-.61-.46-1.3-.81-2.36-.84.49.84,1.06,1.64,1.47,2.52,3.21,6.9,6.71,13.7,9.5,20.77,3.35,8.5,1.45,16.88-2.07,24.93-2.56,5.86-5.34,11.62-8.01,17.43-.76,1.66-1.48,3.34-2.31,5.22,3.77-1.44,7.09-3.14,10.63-3.94,3.15-.71,6.63-1,9.79-.47,9.72,1.62,15.58,12.22,12.15,21.57-.27.74-1.65,1.08-2.51,1.6-.45-.83-1.23-1.64-1.29-2.51-.12-1.62.28-3.28.27-4.92-.07-9.72-7.77-15.34-16.81-11.69-5.11,2.06-9.81,5.24-14.48,8.25-2.56,1.65-4.47,1.64-6.99-.03-4.29-2.85-8.65-5.71-13.31-7.84-8.09-3.69-15.24-.74-17.35,7.06-.76,2.79-.18,5.92-.41,8.88-.07.96-.77,1.87-1.18,2.81-.91-.72-2.45-1.31-2.64-2.19-2.46-11.4,3.28-23.77,20.2-20.93,4.17.7,8.12,2.69,12.42,4.17-2.72-5.85-5.44-11.69-8.14-17.55-.9-1.97-1.68-3.99-2.58-5.96-4.62-10.06-4.08-20.05.49-29.92,2.81-6.06,5.86-12.01,8.92-18.27-1.65,1.26-3.28,2.49-4.89,3.74-16.99,13.17-32.08,28.19-44.27,45.95-5.53,8.07-9.76,16.8-10.89,26.68-.43,3.77-.37,7.61-.36,11.42,0,2.56-1.02,3.35-3.85,2.45v-8.94c-4.6,1.02-8.71,1.95-12.83,2.82-1.69.35-2.6,1.04-2.09,2.96.26.97.2,2.02.28,3.08-3.31,1.44-3.84-.6-4.23-2.93-3.23-19.34,1.09-36.68,14.89-50.82,10.28-10.54,21.22-20.47,32.22-30.29,13-11.61,26.41-22.76,39.56-34.22,2.5-2.18,4.48-2.28,6.99-.11,11.7,10.13,23.57,20.06,35.19,30.27,10.15,8.92,20.22,17.95,30.04,27.23,10.34,9.77,18.93,20.75,21.56,35.3,1.43,7.91,1.35,15.81-.3,23.66-.2.93-1.53,2.19-2.45,2.3-2.03.24-1.52-1.52-1.27-2.63.55-2.44-.33-3.57-2.8-4.01-3.84-.68-7.64-1.63-12.09-2.61Zm-71.42-7c.62-.99,1.06-1.54,1.34-2.16,3.83-8.68,7.84-17.28,11.35-26.09,1.38-3.47,2.1-7.36,2.32-11.11.81-13.97-8.45-23.78-14.85-35.57-3.58,5.95-6.89,11.25-10,16.66-6,10.45-6.7,21.26-1.85,32.35,3.18,7.27,6.42,14.52,9.65,21.77.57,1.28,1.23,2.52,2.04,4.16Zm82.16-22.56c-3.11-4.33-5.68-7.97-8.35-11.54-.26-.35-1.19-.55-1.62-.36-4.42,1.9-8.8,3.89-13.52,6,1.72,2.82,3.39,5.62,5.16,8.36.26.41,1.07.78,1.54.7,5.24-.93,10.46-1.95,16.79-3.15Zm-140.66-5.96c-4.69-2.06-9.09-4.02-13.51-5.9-.38-.16-1.15-.08-1.4.19-3.08,3.4-5.94,6.96-7.77,11.84,5.68,1.07,10.9,2.07,16.14,2.98.46.08,1.24-.34,1.51-.76,1.73-2.75,3.37-5.57,5.03-8.36Zm-7.23,12.32c-5.53-1.26-10.7-2.49-15.91-3.53-.51-.1-1.61.89-1.85,1.58-.98,2.8-1.74,5.68-2.55,8.54-.56,1.99.44,2.55,2.26,2.51,4.21-.09,8.43-.04,12.64-.18.79-.03,1.99-.47,2.27-1.06,1.16-2.47,2.05-5.07,3.13-7.86Zm131.73.02c1.04,2.74,1.84,5.18,2.9,7.49.3.66,1.34,1.36,2.07,1.39,4.42.17,8.85.11,13.27.2,1.84.04,2.48-.79,2.02-2.46-.82-2.97-1.64-5.94-2.67-8.84-.23-.64-1.4-1.5-1.95-1.38-5.1,1.06-10.16,2.31-15.64,3.59Zm-153.18,17.57c0,.82-.03,1.65,0,2.47.15,4.35.5,4.6,4.74,3.53,1.4-.35,2.8-.71,4.21-1.03,2.26-.5,5.38-.24,6.56-1.63,1.38-1.62,1.06-4.67,1.48-7.1.04-.2.08-.4.12-.61.27-1.6-.27-2.22-2.02-2.1-3.7.26-7.42.52-11.11.36-3.07-.13-4.16,1.11-3.99,3.95.04.72,0,1.44,0,2.16Zm157.26-6.05c.41,2.61.8,5.66,1.44,8.66.14.66,1.07,1.48,1.77,1.64,3.61.81,7.28,1.34,10.89,2.16,1.79.41,2.85.17,2.93-1.83.1-2.56.22-5.13.19-7.7-.02-2.12-1.08-3.05-3.35-2.97-4.51.15-9.03.04-13.88.04Zm-19.73-34.54c1.71,2.18,3.42,4.49,5.28,6.68.46.55,1.51,1.16,2.05.99,4.66-1.43,9.27-3.02,14.87-4.9-3.75-3.59-6.67-6.49-9.74-9.2-.51-.45-1.94-.44-2.58-.05-3.24,1.97-6.36,4.14-9.88,6.48Zm-100.47.01c-3.51-2.36-6.76-4.66-10.15-6.73-.56-.34-1.99.02-2.56.55-2.58,2.37-5.02,4.89-7.46,7.41-.4.41-.52,1.09-.9,1.92,4.37,1.5,8.33,2.97,12.37,4.17.98.29,2.63.06,3.27-.61,2.04-2.13,3.75-4.58,5.43-6.71Zm91.18-10.63c2.66,3.01,4.94,5.6,7.27,8.23,3.89-2.19,7.5-4.21,11.72-6.58-3.28-2.9-5.98-5.36-8.79-7.69-.39-.32-1.46-.32-1.9-.01-2.69,1.85-5.28,3.83-8.3,6.05Zm-100.82,1.64c4.31,2.46,7.91,4.5,11.69,6.66,2.42-2.81,4.72-5.47,7.18-8.31-2.92-2.17-5.43-4.12-8.05-5.9-.51-.35-1.7-.39-2.13-.04-2.75,2.26-5.38,4.67-8.69,7.6Zm29.11-11.02c-.5-.16-1-.32-1.49-.48-1.49-1.85-2.89-3.78-4.5-5.52-.5-.54-1.92-1.06-2.29-.78-2.98,2.27-5.8,4.74-9.05,7.47,3.09,2.06,5.51,3.8,8.07,5.3.57.33,1.82.15,2.39-.28,2.37-1.8,4.6-3.79,6.88-5.71Zm61.41-.28c2.53,2.18,4.75,4.16,7.07,6.03.47.38,1.48.68,1.89.43,2.75-1.68,5.4-3.51,8.44-5.54-3.18-2.7-5.77-5.02-8.52-7.15-.48-.37-1.83-.25-2.34.18-1.97,1.62-3.77,3.45-6.53,6.05Zm-28.65-38.61c0,4.38.32,7.89-.09,11.31-.41,3.5,1.45,5,4.06,6.37,1.4.74,2.31.56,2.97-.87.95-2.05,1.99-4.06,2.79-6.17.22-.59,0-1.7-.45-2.13-2.79-2.69-5.71-5.26-9.29-8.51Zm34.28,29.56c-2.69-2.23-5.32-4.51-8.1-6.6-.51-.38-1.84-.28-2.42.13-1.9,1.35-3.64,2.93-5.33,4.34,6.88,8.9,8.49,9.13,15.43,2.95.07-.06.1-.18.43-.82Zm-56.71-1.54c-1.99-1.81-3.66-3.46-5.49-4.91-.49-.39-1.73-.53-2.17-.2-2.83,2.14-5.53,4.45-8.54,6.93,2.48,1.96,4.44,3.6,6.51,5.1.45.32,1.53.43,1.88.13,2.56-2.18,5.01-4.5,7.81-7.05Zm18.32-26.59c-.35-.11-.7-.21-1.06-.32-1.42,1.3-2.82,2.61-4.25,3.9-6.16,5.53-5.21,3.21-2.12,10.45.45,1.05,2.14,2.66,2.42,2.5,1.8-.99,4.55-2.22,4.78-3.72.65-4.18.23-8.53.23-12.81Zm26.78,18.53c-3.37-2.82-6.51-5.46-9.93-8.33-1.19,2.35-2.05,4.21-3.06,5.98-1.18,2.08-.76,3.43,1.28,4.82,4.99,3.4,4.92,3.5,9.37-.44.61-.54,1.23-1.07,2.34-2.03Zm-49.13-.19c5.78,6.7,6.4,6.8,12.09,2.15,2.15-1.76,1.36-4.76-2.78-9.96-3.11,2.61-6.21,5.21-9.32,7.81Z"/>
      <path class="cls-1" d="m150.04,318.9c13.15-6.84,26.47-12.79,41.86-8.81,5.98,1.55,11.17,4.58,15.95,8.34-.08.36-.16.71-.23,1.07-1.85-.31-4.02-.08-5.48-1-13.2-8.29-26.64-7.37-40.18-1.24-3.87,1.75-7.7,2.63-11.91,1.64Z"/>
      <path class="cls-1" d="m1036.6,319.91c-3.35-.62-6.91-.74-10.02-1.96-10.23-4-20.47-6.49-31.25-2.45-2.21.83-4.25,2.14-6.48,2.88-2.02.67-4.19.87-6.34.96,13.38-12.72,33.74-12.16,54.29-.53-.06.37-.12.74-.18,1.1Z"/>
      <path class="cls-1" d="m374.67,309.17c-.01,8.23-3.85,10.99-10.08,9.2-5.6-1.61-9.71-7.07-10.34-14.08-.26-2.94-.9-6.47,1.88-8.33,2.85-1.91,6.06-.23,8.74,1.27,5.43,3.04,9.7,7.05,9.81,11.94Zm-17.93-5.41c-.07,5.78,4.17,10.87,9.89,11.65.94.13,2.36-.23,2.92-.9,2.23-2.68,2.53-7.19.12-9.73-2.03-2.13-4.75-3.9-7.5-4.96-4.17-1.61-5.37-.48-5.43,3.94Z"/>
      <path class="cls-1" d="m819.72,319.43c-4.06,0-5.94-1.42-7.09-5.36-2.29-7.86,3.94-15.9,13.13-16.95,5.23-.59,7.51,1.24,8.15,6.51,1.08,9.01-5,15.78-14.19,15.79Zm11.72-12.68c.08-5.96-2.25-7.98-7.85-6.39-2,.57-4.31,1.58-5.49,3.14-1.43,1.9-2.61,4.62-2.51,6.92.27,5.85,1.97,6.8,7.62,5.39,5.21-1.3,8.17-4.56,8.22-9.07Z"/>
      <path class="cls-1" d="m1112.94,313.81c-1.1.94-1.82,1.38-2.3,2-3.6,4.6-8.24,3.93-13.19,3.04-2.93-.53-6.03-.25-9.05-.11-2.28.11-4.54.57-6.91.4,3.38-3.16,7.48-3.96,11.81-3.88,1.42.03,3.03.17,4.21.85,3.87,2.23,6.71.56,9.19-2.19,2.41-2.66,4.55-5.56,6.87-8.3.48-.57,1.24-.92,1.86-1.37.36.76.98,1.5,1.04,2.29.28,3.27.52,6.56.51,9.84,0,.98-.64,2.59-1.34,2.81-1.79.57-2.15-.92-2.25-2.39-.05-.79-.24-1.57-.46-2.97Z"/>
      <path class="cls-1" d="m634.32,275.97c0,3.84-3.54,6.8-8.09,6.78-4.29-.02-7.99-3.19-7.87-6.75.11-3.45,4.42-6.7,8.84-6.66,4.08.04,7.12,2.87,7.11,6.62Zm-7.63,4.06c1.39-1.89,2.63-3.04,3.05-4.44.14-.47-2.1-2.41-2.78-2.19-1.54.48-2.79,1.89-4.15,2.92,1.07,1.02,2.15,2.05,3.89,3.71Z"/>
      <path class="cls-1" d="m560.43,282.75c-4.57-.03-8-2.97-7.98-6.83.02-3.76,3.04-6.55,7.12-6.58,4.4-.03,8.64,3.25,8.71,6.74.07,3.65-3.5,6.69-7.84,6.67Zm-.73-10.64c-1.34,1.72-2.64,2.65-2.77,3.73-.27,2.25,1.65,3.18,3.45,2.91,1.23-.18,2.29-1.55,3.43-2.39-1.17-1.21-2.34-2.43-4.1-4.25Z"/>
      <path class="cls-1" d="m843.73,266.58c.1-6.29,5.68-11.69,11.95-11,1.46.16,3.3,2.1,3.94,3.65,2.18,5.25-1.4,11.14-7.71,13.31-5.55,1.91-8.29-.08-8.19-5.96Zm2.44.24c.94,1.16,1.75,3.14,2.86,3.33,3.13.53,7.48-3.15,8.2-6.32.78-3.44-1.38-5.65-4.81-4.93-3.58.75-5.61,3.43-6.25,7.92Z"/>
      <path class="cls-1" d="m540.93,308.87c-4.3-.02-7.52-2.9-7.4-6.62.11-3.36,3.64-6.34,7.51-6.33,4.4,0,7.84,2.8,7.73,6.29-.12,3.8-3.51,6.68-7.84,6.67Zm.15-10.1c-1.34,1.59-2.8,2.59-2.9,3.71-.07.77,1.96,2.53,2.71,2.37,1.28-.29,2.3-1.75,3.43-2.72-.89-.92-1.78-1.84-3.24-3.35Z"/>
      <path class="cls-1" d="m645.57,308.86c-4.33-.08-7.62-3.04-7.59-6.85.02-3.45,3.65-6.25,7.87-6.08,4.13.16,7.15,2.92,7.14,6.53-.01,3.97-2.93,6.48-7.41,6.4Zm3.35-5.8c0-.39.02-.79.03-1.18-1.07-.69-2.2-2.02-3.18-1.91-1.18.14-2.22,1.49-3.32,2.31,1.07.91,2.04,2.34,3.25,2.57.92.18,2.14-1.14,3.23-1.8Z"/>
      <path class="cls-1" d="m265.97,284.01c0,3.31-.05,6.62.01,9.93.15,7.4.39,14.79.49,22.18.01,1.03-.62,2.08-.95,3.11-.77-.88-2.11-1.69-2.21-2.64-1.09-9.86-1.59-19.73.54-29.53.24-1.1.74-2.13,1.12-3.2.34.05.67.09,1.01.14Z"/>
      <path class="cls-1" d="m924.43,284.75c.45,2.17.97,4.33,1.35,6.51,1.48,8.61.94,17.22-.17,25.81-.11.82-1.2,1.52-1.84,2.27-.42-.76-1.2-1.53-1.19-2.29.1-9.77.31-19.54.51-29.3.02-.97.13-1.93.2-2.9l1.14-.11Z"/>
      <path class="cls-1" d="m573.93,318.93c2.24-4.38,8.04-4.31,12.59,0h-12.59Z"/>
      <path class="cls-1" d="m600.14,318.75c4.8-4.27,10.95-4.26,12.44,0h-12.44Z"/>
      <path class="cls-1" d="m796.07,220.55c-18.89,7.97-36.51,17.94-51.11,32.62-.32-.29-.63-.58-.95-.86.51-1.1.77-2.46,1.58-3.25,3.81-3.72,7.43-7.78,11.75-10.8,10.75-7.51,22.04-14.16,34.68-18.14,1.13-.36,2.29-.61,3.43-.9l.62,1.34Z"/>
      <path class="cls-1" d="m442.23,252.69c-15.03-14.21-32.66-24.12-51.52-32.14.18-.42.36-.83.54-1.25,1.09.24,2.22.39,3.27.74,15.36,5.08,28.96,13.35,41.58,23.28,2.93,2.3,5.4,5.21,6.12,9.37Z"/>
      <path class="cls-1" d="m856.83,200.03c-.37.32-.63.74-.93.77-15.19,1.58-29.25,6.97-43.01,13.32,4.05-8.72,35.64-16.46,43.94-14.1Z"/>
      <path class="cls-1" d="m920.64,268.81c-.82-14.01-2.69-27.78-8.94-40.61,6.16,3.31,15.29,31.77,8.94,40.61Z"/>
      <path class="cls-1" d="m268.55,267.97c-6.03-8.38,1.49-34.57,8.98-41.61-.38,1.56-.45,2.38-.77,3.08-5.03,10.93-7.35,22.45-7.56,34.44-.02,1.37-.42,2.73-.64,4.09Z"/>
      <path class="cls-1" d="m330.04,200.39c9.49-2.33,38.39,4.73,43.9,13.65-14.12-6.22-28.38-11.99-43.9-13.65Z"/>
      <path class="cls-1" d="m328.75,261.2c.03-4.23,2.35-6.03,6.38-4.96,4.53,1.21,7.97,5.4,8.25,10.06.22,3.73-2.4,6.02-6.06,5.3-4.52-.89-8.6-5.84-8.57-10.41Zm11.23,4.71c.06-3.14-1.54-5.31-4.18-6.7-2.26-1.19-3.82-.18-4,2.39-.19,2.73,1.76,5.63,4.54,6.76,2.69,1.09,3.58.5,3.63-2.45Z"/>
      <path class="cls-1" d="m593.66,246.23c7.32,7.32,9.32,20.17,4.8,30.73-1.01,2.35-2.38,4.56-3.65,6.79-.93,1.62-2.02,1.55-3.1.1-8.46-11.31-7.57-28.36,1.95-37.62Zm-.26,33.74c5.78-9.22,5.91-18.18.42-27.24-6.48,7.73-6.74,19.27-.42,27.24Z"/>
    </g>
  </g>
</svg>